<mxfile host="app.diagrams.net" modified="2023-12-19T15:49:19.919Z" agent="Mozilla/5.0 (Macintosh; Intel Mac OS X 10_15_7) AppleWebKit/537.36 (KHTML, like Gecko) Chrome/120.0.0.0 Safari/537.36" etag="tZBtpzLc3ThE-UwE2KQ9" version="22.1.11" type="github">
  <diagram id="kgpKYQtTHZ0yAKxKKP6v" name="Page-1">
    <mxGraphModel dx="1094" dy="774" grid="1" gridSize="10" guides="1" tooltips="1" connect="1" arrows="1" fold="1" page="1" pageScale="1" pageWidth="1100" pageHeight="850" math="0" shadow="0">
      <root>
        <mxCell id="0" />
        <mxCell id="1" parent="0" />
        <mxCell id="75RM92X9t6_SjGFl8cf--1" value="" style="shape=table;startSize=0;container=1;collapsible=0;childLayout=tableLayout;direction=east;horizontal=1;" vertex="1" parent="1">
          <mxGeometry width="850" height="450" as="geometry" />
        </mxCell>
        <mxCell id="75RM92X9t6_SjGFl8cf--2" value="" style="shape=tableRow;horizontal=0;startSize=0;swimlaneHead=0;swimlaneBody=0;strokeColor=inherit;top=0;left=0;bottom=0;right=0;collapsible=0;dropTarget=0;fillColor=none;points=[[0,0.5],[1,0.5]];portConstraint=eastwest;" vertex="1" parent="75RM92X9t6_SjGFl8cf--1">
          <mxGeometry width="850" height="80" as="geometry" />
        </mxCell>
        <mxCell id="75RM92X9t6_SjGFl8cf--12" value="Current State" style="shape=partialRectangle;html=1;whiteSpace=wrap;connectable=0;strokeColor=inherit;overflow=hidden;fillColor=none;top=0;left=0;bottom=0;right=0;pointerEvents=1;rowspan=5;colspan=1;horizontal=0;" vertex="1" parent="75RM92X9t6_SjGFl8cf--2">
          <mxGeometry width="20" height="450" as="geometry">
            <mxRectangle width="20" height="80" as="alternateBounds" />
          </mxGeometry>
        </mxCell>
        <mxCell id="75RM92X9t6_SjGFl8cf--17" value="Developer" style="shape=partialRectangle;html=1;whiteSpace=wrap;connectable=0;strokeColor=inherit;overflow=hidden;fillColor=none;top=0;left=0;bottom=0;right=0;pointerEvents=1;horizontal=0;" vertex="1" parent="75RM92X9t6_SjGFl8cf--2">
          <mxGeometry x="20" width="20" height="80" as="geometry">
            <mxRectangle width="20" height="80" as="alternateBounds" />
          </mxGeometry>
        </mxCell>
        <mxCell id="75RM92X9t6_SjGFl8cf--3" value="" style="shape=partialRectangle;html=1;whiteSpace=wrap;connectable=0;strokeColor=inherit;overflow=hidden;fillColor=none;top=0;left=0;bottom=0;right=0;pointerEvents=1;" vertex="1" parent="75RM92X9t6_SjGFl8cf--2">
          <mxGeometry x="40" width="810" height="80" as="geometry">
            <mxRectangle width="810" height="80" as="alternateBounds" />
          </mxGeometry>
        </mxCell>
        <mxCell id="75RM92X9t6_SjGFl8cf--4" value="" style="shape=tableRow;horizontal=0;startSize=0;swimlaneHead=0;swimlaneBody=0;strokeColor=inherit;top=0;left=0;bottom=0;right=0;collapsible=0;dropTarget=0;fillColor=none;points=[[0,0.5],[1,0.5]];portConstraint=eastwest;" vertex="1" parent="75RM92X9t6_SjGFl8cf--1">
          <mxGeometry y="80" width="850" height="210" as="geometry" />
        </mxCell>
        <mxCell id="75RM92X9t6_SjGFl8cf--13" style="shape=partialRectangle;html=1;whiteSpace=wrap;connectable=0;strokeColor=inherit;overflow=hidden;fillColor=none;top=0;left=0;bottom=0;right=0;pointerEvents=1;" vertex="1" visible="0" parent="75RM92X9t6_SjGFl8cf--4">
          <mxGeometry width="20" height="210" as="geometry">
            <mxRectangle width="20" height="210" as="alternateBounds" />
          </mxGeometry>
        </mxCell>
        <mxCell id="75RM92X9t6_SjGFl8cf--18" value="Jenkins&lt;span style=&quot;white-space: pre;&quot;&gt;&#x9;&lt;/span&gt;" style="shape=partialRectangle;html=1;whiteSpace=wrap;connectable=0;strokeColor=inherit;overflow=hidden;fillColor=none;top=0;left=0;bottom=0;right=0;pointerEvents=1;horizontal=0;" vertex="1" parent="75RM92X9t6_SjGFl8cf--4">
          <mxGeometry x="20" width="20" height="210" as="geometry">
            <mxRectangle width="20" height="210" as="alternateBounds" />
          </mxGeometry>
        </mxCell>
        <mxCell id="75RM92X9t6_SjGFl8cf--5" value="" style="shape=partialRectangle;html=1;whiteSpace=wrap;connectable=0;strokeColor=inherit;overflow=hidden;fillColor=none;top=0;left=0;bottom=0;right=0;pointerEvents=1;" vertex="1" parent="75RM92X9t6_SjGFl8cf--4">
          <mxGeometry x="40" width="810" height="210" as="geometry">
            <mxRectangle width="810" height="210" as="alternateBounds" />
          </mxGeometry>
        </mxCell>
        <mxCell id="75RM92X9t6_SjGFl8cf--6" value="" style="shape=tableRow;horizontal=0;startSize=0;swimlaneHead=0;swimlaneBody=0;strokeColor=inherit;top=0;left=0;bottom=0;right=0;collapsible=0;dropTarget=0;fillColor=none;points=[[0,0.5],[1,0.5]];portConstraint=eastwest;" vertex="1" parent="75RM92X9t6_SjGFl8cf--1">
          <mxGeometry y="290" width="850" height="80" as="geometry" />
        </mxCell>
        <mxCell id="75RM92X9t6_SjGFl8cf--14" style="shape=partialRectangle;html=1;whiteSpace=wrap;connectable=0;strokeColor=inherit;overflow=hidden;fillColor=none;top=0;left=0;bottom=0;right=0;pointerEvents=1;" vertex="1" visible="0" parent="75RM92X9t6_SjGFl8cf--6">
          <mxGeometry width="20" height="80" as="geometry">
            <mxRectangle width="20" height="80" as="alternateBounds" />
          </mxGeometry>
        </mxCell>
        <mxCell id="75RM92X9t6_SjGFl8cf--19" value="DevOps&lt;span style=&quot;white-space: pre;&quot;&gt;&#x9;&lt;/span&gt;" style="shape=partialRectangle;html=1;whiteSpace=wrap;connectable=0;strokeColor=inherit;overflow=hidden;fillColor=none;top=0;left=0;bottom=0;right=0;pointerEvents=1;horizontal=0;" vertex="1" parent="75RM92X9t6_SjGFl8cf--6">
          <mxGeometry x="20" width="20" height="80" as="geometry">
            <mxRectangle width="20" height="80" as="alternateBounds" />
          </mxGeometry>
        </mxCell>
        <mxCell id="75RM92X9t6_SjGFl8cf--7" value="" style="shape=partialRectangle;html=1;whiteSpace=wrap;connectable=0;strokeColor=inherit;overflow=hidden;fillColor=none;top=0;left=0;bottom=0;right=0;pointerEvents=1;" vertex="1" parent="75RM92X9t6_SjGFl8cf--6">
          <mxGeometry x="40" width="810" height="80" as="geometry">
            <mxRectangle width="810" height="80" as="alternateBounds" />
          </mxGeometry>
        </mxCell>
        <mxCell id="75RM92X9t6_SjGFl8cf--8" value="" style="shape=tableRow;horizontal=0;startSize=0;swimlaneHead=0;swimlaneBody=0;strokeColor=inherit;top=0;left=0;bottom=0;right=0;collapsible=0;dropTarget=0;fillColor=none;points=[[0,0.5],[1,0.5]];portConstraint=eastwest;" vertex="1" parent="75RM92X9t6_SjGFl8cf--1">
          <mxGeometry y="370" width="850" height="80" as="geometry" />
        </mxCell>
        <mxCell id="75RM92X9t6_SjGFl8cf--15" style="shape=partialRectangle;html=1;whiteSpace=wrap;connectable=0;strokeColor=inherit;overflow=hidden;fillColor=none;top=0;left=0;bottom=0;right=0;pointerEvents=1;" vertex="1" visible="0" parent="75RM92X9t6_SjGFl8cf--8">
          <mxGeometry width="20" height="80" as="geometry">
            <mxRectangle width="20" height="80" as="alternateBounds" />
          </mxGeometry>
        </mxCell>
        <mxCell id="75RM92X9t6_SjGFl8cf--20" value="DevOps" style="shape=partialRectangle;html=1;whiteSpace=wrap;connectable=0;strokeColor=inherit;overflow=hidden;fillColor=none;top=0;left=0;bottom=0;right=0;pointerEvents=1;horizontal=0;" vertex="1" parent="75RM92X9t6_SjGFl8cf--8">
          <mxGeometry x="20" width="20" height="80" as="geometry">
            <mxRectangle width="20" height="80" as="alternateBounds" />
          </mxGeometry>
        </mxCell>
        <mxCell id="75RM92X9t6_SjGFl8cf--9" value="" style="shape=partialRectangle;html=1;whiteSpace=wrap;connectable=0;strokeColor=inherit;overflow=hidden;fillColor=none;top=0;left=0;bottom=0;right=0;pointerEvents=1;" vertex="1" parent="75RM92X9t6_SjGFl8cf--8">
          <mxGeometry x="40" width="810" height="80" as="geometry">
            <mxRectangle width="810" height="80" as="alternateBounds" />
          </mxGeometry>
        </mxCell>
        <mxCell id="75RM92X9t6_SjGFl8cf--25" value="" style="edgeStyle=orthogonalEdgeStyle;rounded=0;orthogonalLoop=1;jettySize=auto;html=1;" edge="1" parent="1" source="75RM92X9t6_SjGFl8cf--22" target="75RM92X9t6_SjGFl8cf--24">
          <mxGeometry relative="1" as="geometry">
            <Array as="points">
              <mxPoint x="100" y="40" />
              <mxPoint x="100" y="40" />
            </Array>
          </mxGeometry>
        </mxCell>
        <mxCell id="75RM92X9t6_SjGFl8cf--28" value="&lt;font style=&quot;font-size: 10px;&quot;&gt;Push&lt;/font&gt;" style="edgeLabel;html=1;align=center;verticalAlign=middle;resizable=0;points=[];" vertex="1" connectable="0" parent="75RM92X9t6_SjGFl8cf--25">
          <mxGeometry x="-0.2333" y="1" relative="1" as="geometry">
            <mxPoint as="offset" />
          </mxGeometry>
        </mxCell>
        <mxCell id="75RM92X9t6_SjGFl8cf--22" value="&lt;font style=&quot;font-size: 10px;&quot;&gt;Local&lt;/font&gt;" style="ellipse;whiteSpace=wrap;html=1;aspect=fixed;" vertex="1" parent="1">
          <mxGeometry x="50" y="20" width="40" height="40" as="geometry" />
        </mxCell>
        <mxCell id="75RM92X9t6_SjGFl8cf--24" value="" style="verticalLabelPosition=bottom;html=1;verticalAlign=top;align=center;strokeColor=none;fillColor=#00BEF2;shape=mxgraph.azure.git_repository;" vertex="1" parent="1">
          <mxGeometry x="140" y="20" width="40" height="40" as="geometry" />
        </mxCell>
        <mxCell id="75RM92X9t6_SjGFl8cf--31" value="&lt;font style=&quot;font-size: 10px;&quot;&gt;Build&lt;/font&gt;" style="labelPosition=center;verticalLabelPosition=middle;align=center;html=1;shape=mxgraph.basic.shaded_button;dx=4;fillColor=#E6E6E6;strokeColor=none;whiteSpace=wrap;" vertex="1" parent="1">
          <mxGeometry x="70" y="105" width="60" height="30" as="geometry" />
        </mxCell>
        <mxCell id="75RM92X9t6_SjGFl8cf--108" value="" style="edgeStyle=orthogonalEdgeStyle;rounded=0;orthogonalLoop=1;jettySize=auto;html=1;" edge="1" parent="1" source="75RM92X9t6_SjGFl8cf--70" target="75RM92X9t6_SjGFl8cf--103">
          <mxGeometry relative="1" as="geometry" />
        </mxCell>
        <mxCell id="75RM92X9t6_SjGFl8cf--70" value="&lt;font style=&quot;font-size: 10px;&quot;&gt;Build&lt;/font&gt;" style="shape=step;perimeter=stepPerimeter;whiteSpace=wrap;html=1;fixedSize=1;" vertex="1" parent="1">
          <mxGeometry x="223.12" y="100" width="71.25" height="40" as="geometry" />
        </mxCell>
        <mxCell id="75RM92X9t6_SjGFl8cf--95" value="" style="edgeStyle=orthogonalEdgeStyle;rounded=0;orthogonalLoop=1;jettySize=auto;html=1;" edge="1" parent="1" source="75RM92X9t6_SjGFl8cf--74" target="75RM92X9t6_SjGFl8cf--94">
          <mxGeometry relative="1" as="geometry" />
        </mxCell>
        <mxCell id="75RM92X9t6_SjGFl8cf--74" value="&lt;font style=&quot;font-size: 10px;&quot;&gt;Build&lt;/font&gt;" style="shape=step;perimeter=stepPerimeter;whiteSpace=wrap;html=1;fixedSize=1;" vertex="1" parent="1">
          <mxGeometry x="294.37" y="200" width="71.25" height="40" as="geometry" />
        </mxCell>
        <mxCell id="75RM92X9t6_SjGFl8cf--84" value="" style="shape=image;verticalLabelPosition=bottom;labelBackgroundColor=default;verticalAlign=top;aspect=fixed;imageAspect=0;image=data:image/png,iVBORw0KGgoAAAANSUhEUgAAAqgAAADgCAYAAADPLJR0AAAABHNCSVQICAgIfAhkiAAAAF96VFh0UmF3IHByb2ZpbGUgdHlwZSBBUFAxAAAImeNKT81LLcpMVigoyk/LzEnlUgADYxMuE0sTS6NEAwMDCwMIMDQwMDYEkkZAtjlUKNEABZiYm6UBoblZspkpiM8FAE+6FWgbLdiMAAAgAElEQVR4nOx9d5wcxZX/q56ZzXlXq7gSyhkFFIwQwgKTZIMx0dhGNobD/ODA9gG2AduSDIhgTMYcGI5wmPMBRhJZZBEkgkAoh1WWNmi1Oc/OdNfvj52eff36VfUIVuLuPvX9fPazM91Vr957VfXet6rDABgYGBgYGBgYGBgYGBgYGBgYGBgYGBgYGBgYGBgYGBgYGBgYGBgYGBgYGBgYGBgYGBgYGBgYGBgYGBgYGBgYGBgYGBgYGBgYGBgYGBgYGBgYGBgYGBgYGBgYGBgYGBgYGBgYGBgYGBgYGBgYGBgYGBgYGBgYGBgYGBgYGBgYGBgYGBgYGBgYGBgYGBgYGBgYGBgYGBgYGBgYGBgYGBgYGBgYGBgYGBgYGBgYGBgYGBgYGBgYGBgYGBgYGBgYGBgYGBgYGBgYGBgYGBgYGBgYGBgYGBgYGBgYGBgYGBgYGBgYGBgYGBgYGBgYGBgYGBgYGBgYGBgYGBgYGBgYGBgYGBgYGBgYGBgYGBgYGBgYGBgYGBgYGBgYGBgYGBgYGBgYGBgYGBgYGBgYGBgYGBgYGBgYGBgYGBgYGBgYGBgYGBgYGBgYGBgYGBgYGBgYGBgYGBgYGBgYGBgYGBgYGBgYGBgYGBgYGBgYGBgYGBgYGBgYGBgYGBgYGBgYGBgYGBgYGBgYGBgYGBgYGBgYGBgYGBgYGBgYGBgYGBgYGBgYGBgYGBgYGBgYGBgYGBgYGBgYGBgYGBgYGBgYGBgYGBgYGBgYGBgYGBgYGBgYGBgYGBgYGBgYGBgYGBgYGBgYGBgYGBgYGBgYGBgYGBgYGBgYGBgYGBgYGBgYGBgYGBgYGBgYGBgYGBgYGBgYGBgYGBgYGBgYGBgYGBgYGBgYGBgYGBgYGBgYGBgYGBgYGBgYGBgYGBgYGBgYGBgYfPMQ37QC/5cgpeT8KQBAMp/9BYWQSIYQQjhIrhBCOIo2UpaH6wshJNUb1aG6CgCQRCZtw/c9QCdWhyA5+JymHKu/wpbkOaqPTt9UbKW2afyrrR8gy2dvkB1Uhq4fubqH6pdDGSdB9Tm7VXYciq2p+CJVfbFPXL8E6aGzF8s41L5J9VwqZXXHVHOZs+FQ7QzSMWg8ft22uTGiKv9VYlpQuVTnZ1Dbuj5SldP5QiWL009lFwBAg5QFH36+LXzGMaPq4GvG/hTzA6uXahwZfDMwBLUXoUqaAHwQUdXD9dF5zzFSD5j6AAwB4iacLsCr7KR66Ca7KrhTO7ign/huYVuY+snzTPC0gPiNq6eRjW3xyEqFdHD9pUumoCHLATom+zwoIaiSiy75cvoz8oXwLqpSIR0ee3Vj8FDqcWOUO0/mHmD9g/pOMQeSY0Q1P1VzhLM1iARQXbm5QP2lsoPzkaot3VgIGh+c712/q/Rg+sIz1nRkhfpT0+cW1YPrF0VcV/pX5+9U4gPSlY3/qphOj3FlqS+D5FLZqeqjO7/0s/Vle2tbb6ltbB2enpF2b1p2wSvXnTKpDddLVGTbWtA95mEhgMTluHHC6ayLMypbDI4MDEHtReiStS6AKoIJJpme4JfieW0yxWXwMZpcUjkvFSSQJqCgoBlEjlJNjH7xPW0rEkoq5F9JoKl+2Ce4OtdGgP6exJGow5JqBdnw2U5sU40rJYmi+nG6MG2AW05FNHRJno4xxh4roA2frtxYcduhCU3lk1TaoLai89ycYOcx0de3gNG0wfWdxxZN/PG0Tez06a/xp0+nAPsOdaGi09EnW1UngMj69NDF0CD76ClIxPCAue6LHyo9VLoEEFmufewL1cInWTdgHLHjdt8+mbl82+d/qKhvuj47PQJxR3ZZFjwuQ3Dvb+bN2aKzKZV+pe1RO9xyqthoCOo3C0NQDwOYhEUDtC7J0ETsSfBEJj6e0s6cikSlQr6ojToywhFXVcDXJUqGKLs6q0ilh/AI/44Nd0y7w0F9ypEKLpBqkp6vLzj/KOBJJFzfID8BaMgsc4z1HS4TMMa0iR3XV/mVHPf1VVB7OsKVYpvacwGELtk3qehA/Z6oZwX5nRurqE0u1gA65tZz3DFCiQmR51kIcHOHtOWZ77oEz/g1OWbd75T4BMUlXRugmfucTBonVXVSaZ+Ju0m/K9oM9C2WSz57FkK4nk5P2s/cOZ2NwI9/mhOSsjZKmVa9fuePPtu5726wrAILAKQEEAJAAmyUEm4WYL3y2+/PbuHaXYB3TjVjLsC/nlycypgyOHIwBLUXcSiJkdTxTGIik92JA38iUoILsor/ysuDNIkxeil3QTgCxgUDHVngzqvqMv5NlXQmExh3Dvz9ALQ8LcclJu48MKD9hvVPxR9UH64fUkFQX3JtqNph6nt2kFR1dGNHNV5UeuBEDMwc0o0jaoOOvJH6uh0oJeg8PRQ7qa6qeowM3xjG9urawW0dynhjSANgf1IdVTFVFzuYdhKH+J1DIGNSEbd9fRrkI6K/b/zrxicX8wLsY+uqbF27p3Jqe1d0hrAib88cNnCHEPylf938C/KHW+/DTXvHv7mh/Mm0sDgmEg6DBJm0VggBEmSn48hHstMi910977gdxO9A+yZoflBdDyX3GHwzMAS1F4FJDjnmwaFObFKe7ogkq+pUQ2XYy7c6PYAEz1QShK6cqgyTiJSkmvMflwB0AZwSQBmw46uyAekKuD6Sgf3OEZXkmOH8oLKV9o/OTk4fYMYDPkbbJv2Ad7fY9pFfWLKD9PAtBFSkhPMR42N2vCl0CExCqrYp0QFQLyQYXZT60rY5W1KNISrddDIC5llKpCxo/FCdFfNft/DS7h7q+lgXt1SyqY50/HLQzGN2jKt8oot5SFd2sQUM8VXZ+8baHaUbK6qeONjcdnr/gtylg4sK3hvYp+jjSCZsmNSvXxsuz/VD0Nin9d/fXDFiS0XFjxvaOn8Ut+2RkUgIhCtWdJNVBwAsYa341ujBN80ZPeRtle4qfWgOOtQxaPDNwhDUXoQiWAL4yQlLFJEc9t4jktwgUc/zpD+Wj+XSJCMUl/V0tqWSdFTBn9pPCZkqiav05OqR9j2rbI5UuaIo8UI+TDbH6azyDfUP9Qux09O/QUn3UL7TflD5joAj0ywpoXU4e4OSB+6HgHZS1cEzZpg547vUKNEl1xR8Q+ccSzwZW3X3aQcSHU6+e46RlyyXyrzEn1X+wrom/OS5DIza912+1tmnGffKy+CMrV9rp1jVJ1zblPhw8lRt6uY29UWqejLHrITuNtWX8wk+/98frfv59pr6hyKhUCRm2xCL23Y4FFo3uCR3+eCSos9bOzo+PWPa+L2Mr7Q7t5wf3M/v7tqVIdvjp2zae/BnDW2dp0UiVqYlLE8Eth0H4nFn17jBpXfmpttPnjKp+wGqQ/EVZy9XJtXxY3BkYAjqYQBJSjjIWrgYR/jAm7Dd7xxhoGUAnVPek0OSjCfwumV0CYzRFwC8pICTpwrgigCLj2ntCdAtaSeWhX3G6M0SVI54ce2nmMCoXsgd/ntmsQ5BtjL6aN+AQOUQ2ez9vroki49zenKEhEI3XlT+AvATVNoXlHggvejiQfVgGfWDZyHpEjeNziy5CyCvusWrboFIyTQm4ewuPjnG3sNM6rjtsD7hiJGq75lj7LxXEQviM19843yqGWO+hQjVL4jcBJXT+YubI1y80YxRcH3H+Zn6AQDg4x37R779ZfnfQyEx3bKshPMBbNuBrljcBgF1ffKyPxtUXPD8yH4lK8cO7LON86nCF75YSvtm+frtZRX1LRcfaGz+kePI0ZEQHn4CbMeBaNxu75eX/bf8rII7Lpw9phL5zy3I2kl9xX1W+RgMvlEYgnoYQBO7pigln4DKcztGlJhy55JqILnsZXJuchI9KGFi77NLhQRxQcw9ziU8bFtQUNEEYfaSvSoZkrrKZKQjCSqCoutDdJ4+JMImd86ntJ9VtlE9db7h2tWQIaWsoGRKiQC1T6OL8koDtVUQIov7QzC7fQH2Aq3PzS2Vn4BHSj7UjU9dDGHspnYAtgXV1c5HYMazbtyo4oALUs7jW1yG6k7ml5ZUE1m+B8W49lTjMgUIwew0q+ym3xU6a+eFQkefHm6d8nKZvmL/5wsq6puuz4xEUAEAEAlnSgkx2wHHkTVZ6ZHVZcX5r4ws6/eGM6jPnmlCxHCbQfGf6upil5QZqz/fMmdfVf2/tnV1nZAWtvKEEACJJ6ckADi2A4U5GcuyM9MWXDR76tqEbOWrBHW+VZVV2WBw5GEIai9CFxRo4AVv8MdBPojUKkkZQ0xcme53NnBj/ZmEjuvSZK5ckeoSoYpQceSF2OBTn57TJCpfgsZ66PzDJUHqB6qPwo8ePZLG8TtxHFlSLgS4sYfs1e6YKXRn7VL5hhyzSFHVGGdJWYCepDnPDqGk51Rki9rG6aBoUEvOmGOeNjXtcPWAHFOV9/nTHXtcW1y/YV0DfBE0TgDpIMjY9dii0YPbxdUSbBWxV/iGra8ab7pFAy4XYIuSFKUCrKMuturaVZXZUlub+9nGin/b39Bwfsx2RllChMNCgBWi0xhAOhLijgNSQENWOLJyYEn+y0NKC9/+1vBB5VRf3IbqHFdme03NiPc37Dtvf33T1ZGw1S9kefXosuOQHg5/UpKdfcPFJx7zTtI/PcJUcTqVxRabkwy+GRiC2osICtZAJgitxwVVhuD0NKAmQVz73I6ZTx9VsFatilUkhZTTvnuOfg8iCeBNIkkfBRAm5Q6PLmAqyDNbRquwQg8FWab1tElJlVyDEhNnD5cIdeOB9puOdLjNQAqEgfOBTn+iK/te1KBEpOuLgMUAt7hiExuX/FL0VyqEjhLCVGINbgd0dcDrN9XtRj596H8sV0UGgsYSNy9UbfRU4XcQFXJ0P7iQ1IHRlcbd9Cc/WPM9S4q5mZFQfSRsxaxIuCMnHOlqao+2WZa1JSMjvS5kSyc/J72jpDirZWhhYSPXHrEnaLHD7iji8Yl0Dr38+baCEQOKhuyprpte0dQ6u7albWpX3B4Wtqx0ShBdxG0HHAk1OVlpnw8oyFlalt/njWPH9t/N6MqNYV+swn1XXV2d/cGegz/ZXlH3M2nBzLBldctKjDhHShAStsZsZ8Hvz5n737g9V9ZCALEIQILgY0zQ2DH45mEIai+CSRC+IvgLt3oDf/BAxf07IkEJXZXISVltsmHKJY+p7NcdZ4K/x2ZOR5XdnA5ukUQ51WujqGwtieXaUJErSpKwnVySpL7kAjvXHlfGcyKYACl3DHQ6cDIZgqSMLYytnqSuqM+S40OwJWj3RKcfqwe1HdvByEnlxwRYHWiZoP7CY17jawDw7eRTgubTN2hccPYEnWMInjbGqGQrynnIGh2jQe2rdFDNfVr+8XfXFNS2tt0V7eqab4WsmCWFFCFwpAQnYllOKGRVCZCNwrKc9HCkMy0UasnKinyaEY7siYREXAioGNYnd0tL//5N7qV0xlZfrNH0q5aQSSmt177cXpwRsUYdbGqZXdHQfHZ7V3y0EFZ+OGT1DHAJkHhfKcRtGwBkXVZ6+srBhbkvTBnW97VhffseoP7idGf6ClCeS/uwvGLKp9v2/LIzFvthxCWpiR6SIEECVErHubWzAP590dy5cZeYAvjfj6rqT6wjzUcqnQ2ODAxB7UUQckIJnyDHvlITif80iArmnIegcURVoz8NwILKwXXo+VQCko5IUFLJgCYd7sEqcI+pSHqKhM+zMPg65EaX5Km/sQ4c0eLap7oFEX1dOS6RU5sU5AeP9cAFEjqmXLTgNnS6qvpF188qW3V26vwaJEfXhypyQce5ykb8PWhsEh21ZFQ3pql8nY4qPYgubGxIFUFzIlU9sKwgHZg+TPrg080Vxe+V7/hb3JE/CImeae1ICUIIkBIQ2+s+J4VoB5BdYcuS6ZFwYyRsrY2Eww35mem12ZHw++H0jH2DsrMPjB9aWq3SP0j3VGzbtWtXRruVMWxrTePRlXUNJze1R08CyxoStgAEdOubGDAAUoLd/SLT2tz0zFUDinL+8/ih414vLRWtQX7jxhc+9sHmnaPW7TtwbUNLx8/TIuEQIJclfNkQAuverLz4X66cO7dVF98M6fzfBUNQexGEYCQPk8SEV4hBu6y0f/DlNQ8E+mUYQCQhKOEn6tKkGvQkLn1YKqVfpHF1oKpjfbnjwnsvIfYD3fHwnCc6KN9xSnzC9oki0XmIsMcohlSgdpXki/uuOkf9Lr1EXQjm/is6Ft36CoIIVAbuYyaZK8ccHQMckaNjjRAKgfWkZbh+Ef5bP3wLAkaGVj4ldByZoWMV2RBE0JPlOeJM/Omb60yfBT7hDP4+peOVvbeX2szpqJKpqhtEXDm/UFmqeY3LUR2RjR5fMPV8PtTJBQDYUls7YNmqTf9h286pYYuu4dz63V/dM1ICCHBAggApJUgQjgCQQoANQhxMC1mtWWnhLflZWSszwuG6Pvn5HwKkV84eU+L7xSWGPLMEPMBv1raq1qJdtQeO211Td1p9S/s8IcRgSwgQCZYou5UGkAC2lNICubM0P/fZoSWFL3x7wrAv6Jjh2qE64eOb9xzs//GuPZdW1DefEwmHJ4me8t1kGWSHA+J+yMpa/LuTpzVRubQNHWl185tOhsGRgSGovQgukAH4d07o6UQZ1cNUSfG0DiMrIcpH6FiikUpSSCUhaM7p3pWoJClYDmOcbjeHJahcIFIkV7ZJTqbKXq4cRz4YGYF9otKXS/Ia4qa63Mm+7obTQaGHb2wz/vaMdZVth+IXagfVE7zzgdWN04OSUAVRDRxDOp1xmVTHI+kvAAWZ1tmmk69oh40ztH3cVtB8TmXu62KTyj63HjcGODt140ITN5LydHNCCCE37qsZ8cqXW56O23Jm2BKUmx4ypJQgpQAJ0pHgxEKWJdPC4TXZ6ZF9hdmZr2dnRLYV5RVunzm0tIbzMaerxp8ev0kprS2VLYWV9bVTt1QfvKCpreNEAXBUyL307qkPEHecrrRQaOOgkrxnpgwa+MyYwSWVSHYSQbq4qJEy552P1n5/x8GGa8OWNdlDjrsldQmQD8WdzJtu+MGMuiD7VOMtSA+DIwdDUHsRimBOfUwTiicB60gX06R/Od5TVptA8DEu4RJCfUgkgbGF7qSxCYOSeA0J8umVdIhmZwPrQf0gFTtSgpD9QyRXSZ2wDADfYsO3Q8UlQkoadEk+yJ9BpIr0IZuQiW3J7yodGV8kM4urcqrJkrND1QcqHXTkies/jpxS17k2qAhSKgQLy2I+KxcpqjEMTD8odPX1c5CvqI+440G2BpFYqg8+pvrOjDGfntycoXro4l2QfUIIubW6euiST7Ytth17SkhYrQB2hgSrzAKRKQVuKyFJQPedAChUCIHdIgGkACmk5zK7DdIBCc0REarNSI98UJybsaEgN3vl0OK+5c6A3JbxQnQh/XxveND5lcOexsbCjXsOzt5dXfu9pvbo90BAv5DV/TSVlDKhffcOsO3YTdlZmS+OH9D3qeETh344VIhO3I4kV28UY86Ni1kvfL5p3rZ9Nb8DYR0TQqRfJnabLSEfsoSz8Noz5taqyHnQPDQE9X8GDEHtRQSQSzYhk++4LJAyHJRJDH33yEo1+SrKKZ8MVhEkBWFM6RIrtiMFssqSfp/DUttBosRUSYpTSa7UR5p2VT7wED9VcqH1UrSV22XFO+5Bl9ST/kilPc4HHBF25ejIA1eea0NDojnyLajtbp9wbVF5qs+0LJIT1GceIknlczbrxhn2tStXZw/WQXOelRtEdFIltLh8EHFg5r/HTixHMYc94yGV9hRj1NUh/dM9BwZ0tUUzs9OtrqiAzKbmzomtndGBUohwzLEz2jq7sh1pW122k2PH7DlxxymOS2mBIy0pZaawRDpIAOFeUkeEzEteu+FICdKRHSEhtudkZmzKzUp/56iSws9bwl3lp48Y0fJVyJeKuFW2tJR8vHXvcXtrGs9t64ydZFmif8h94N7d2RTdRBUkrB9cmvfv08oGLxs5qKgylTGi0CV9yacbvlNeXbfQljAtbFlkR0bGhYQH3Z3UQyWdX0Ung8MDQ1B7EakmaQY0oAKA8j4w365AQoAnQaiOK1aNust47E4llp+QoUyYXH2GoHJ2qXakdAmZEiyhkedLppSUuDppkr7K31qCmIIOFKr+SZ5nfKolKwH6J/2oIzRB3zU6KPuWyuHa0BFAzVjxtZmKr4J8qCLETD1ukQqgGD8q/VT9jP2lqhPkW9xu4rj2V65UepKyyttHgsiA6ryunmpecXVVY4qzVddeUL+p7MPyDxyArD0t1UMa2luKm9q6shwZD0fj8tjmjs5ZMTset23nqLgjB0oJVkhARmKGdhNXVxagBCIBHOmAlBAPWdaOPnnZb5bmZb9ckBHZXAmd1eePH9/F6aLyla7crpq2fqvKt5+3v67pZ7G4MyYUEllW4qEwKQUI0U2cHcduy8/KXjqhrO9f5owdslZoropQ/1BfvvLllrkb9xy4Pe7I6eGQ1W1wgrA7EhzLknc7Gdk3pXJPKpYdNCYNjhwMQe1FSHJfGAJHAtifPWXIGpfI2OSG6gl6ThWoe057LyvrgquGjPgIoBD+p/t1CZPTl5NPy2Nwdbi6Cl9wsizqE12Cpn6jfg5qUydXVSYhL6XduBTa0PnZJyPVvlTZoxtjKpMZO9jFB9emhkAGteHRWWWTTq6CGGnv8xT8bR6pLtjoWGR/IIOSOtKGchHGHPPIoLqqCKpqPgaQ0MArFWRuALZd5ycqj9NBoRM77r4q+ZFShtfvbcqt62wPtbY3TWhrj05t7owVdnR1nR6NO8XxeDxfAhRaQgB+XynavASQABIkxKUES8L+vOz0LcW52cuGluS/42RYu44tK+tQ2JISKce2fb5z/4T1e2vOrm5qvdB2nNGRcMhHMuKOA2HLenn8oH6PTx808g3dk/6kTd/DiSu37Zvz0aZdd0SlPTMtFAIJ7kNTAAAQleDcYmUU3nXdKZPaDsU+g/8ZMAS1F5EiYQo8T4I9Lkd/3QnAvwvlIWRUvioZ6JI4Lcd95uoEJSxFeaWPaF2qh0pHXRmiky8Rc3oFERxMahU+VhJF2l4qSZsrL9WLJZ8dnA5IrpKscn7Q9KVQkXxM0oLGgmpsud+Ff6ffs5gL0lnnW8ZmX8IkdTh9UoKGZCl3nVX18WEIIJoB7bOLTioX11cRSPw5lbiC63ubUT9tHTCP6NgBYMa6Lk7qyBttNyhO6eRxeH3j9hEH69ryJNgzmtq7ju+Kx8d3dEaPAkuEQ5aVbVkWGvg9+xpSSrAdBxwJXemR8CdlhfkvDe9b/NZBaN80b+TIKLVDp5PqvJQy/Nwnm+ZVNjRc0tIeOzEcsnJC5Dkq23HAcWTVUSUF948cXvrIjIED64Jkq/rz1S93HLdpX8Vd0Zg9I/EWKkD7NG2OlDcOi8554Pzzha2yw5VpiOv/LBiC2otIMRF5EiY5Tgklm1B0xIJJHB5iS2UoiKnv5z+DEk6qJE53PCEv1R8NUBJEVXmVv9xDACw5ZX+rO5U2DrFtz05ZT1Hfq6KSamgSNwuVz4l8dkxyx1L1P6eDO84Ym31VGB0Cm2F0ZMeyot2gNnU+CFrk6HysXVwy9gCnZwrECdfV2ar1g278aGKCcreYIb5a+3F5xkZqp6d+Kv2mI84BY9/Xj9hfKr9Qsh1EEF3skjJj5covx2RHMqY1dLSX1rW0n9kejY2zBOSGQyGw0H2rGHbikruwQl8eVZy3rG9+/vI6q2OLe+lfF785n1E71+2vG7Ru1/6f76lr+AlIGBkhP50qpYSY7TSU5GY9PbC44LEzpo5eS2UxuYq98rh83bY563ZX3dlly+mRkOXZSXUADkgHfnn9WXM8vziF7VEQ7ZT8b3D4YAhqL4NbgQVMdJYECME+yY0vNXN9h5OD6revffdYYjJGyWyQjVyQVyURpj0fUdYlBNQ2l9Tdz3SnOWk71Z/4RZXolLsqCoLN7jphGcR2+lO1yf5mynr8SO2idTS26XZ32cUOZ7+qTWqDyt/0mEp/rh2mvO9JYE5Hrn4qdqcih9al9nI+5trT/Vf5i+qA2+XK6+aAql3GZ565J8itCIfiR6qDwp80vgQuQFRtUvkqnah/uDZTsVXnU13/Uj3oeQ7PrFw/JitinVDZ0DKnpb1rckcsdlRa2MoKhULArQ4cKSFu29GMSNpng0ryXkwD6+Wzj52wWecLdE5LrDdKmbbts03H76hpuKY9Gp2THg5nC/xglwSIxm3ITA+tPGZ42Y1zxw59j5NDv3N+fuHzjSdu3Vd7pwQ5JYxvd+j+t+Ooorx/uWD25Heprtgm3Zg3OPIwBPUwQBPQAR9nkhi7e4jK6y7xKXe7NIFR+Sogao8qUATZpgu0KqKiCt6KJMFClTSkgtyhsqm+0F+7w0Pqa3epBEPmdH3iyhT63UdPwlbZyCRa7a8VSc0iRioWRdQP3HhW+VQx9lWfv+p48OyQUz9zOnKyuXZQX7gLJ9X7S4Pmqm/BxI07znTcHvGpzsfsLiUZQ1iubzxSOcSvHl0oOAISEFd9ujIyPTv2OvLB9GFK7QbprYtFqjlF55tqDNJjq/btyyzfXX90eig0bVdN7UkdMfuksCXy0sLdu6q0QtxxwLbttqz0tC8HFeU/X5yT/+J3jh6yE+uC9aU+pX7DOq3fVTlm9e6qH+6va7w0Eg4PpK9OjcVtcECuHj+4/8IfHDPmdSGEzdhJx5GPHL+2Zuu81bsqFoet0CR8W4EjAaR0Pj5mVNn8U8YNL6e+wvq7bSUaNC/s/wZhCGovAk/gBGji7z7I3EvKHXPF0mBASU9QAqPJxf0MKLiScr6HbTjygc8TP7DBHSc3DSHQElcVmWESqCdAcv5R6JpM6JzdDCHTESXaFzSZ+RYkDKHztM3U9biJ6hDkN1qXtknO0XLcLnYQkdeSdSxT8FcLOD20iYQjU+g7/UzLcPVAKEgJN+cYm1X+9KitKJqMlmYAACAASURBVItjhYcU0rmlmbPJNhkfq9piF2NJZf36qC7lo+rq+3N1/lTENi5m+QhOgE6+tqketFwQcdTVwW1RcDG0pwr7oy4+/TE21tT027mv9oS9tc0z69vaTwQJkyIJokoRtx2IO7K9IDvt45AVfnbU4P4vnTxmcCXWDTcHAT519XljbXV2U8fB83dU1V8XB2d0eihk4cEWdxyIxuwvx5aV3Hz+zKNf0MUsLga65f/5ycZzN1fULAiHrAmufRIkOI6EvKzMZ0eXDbriO2MH1mHZxBDP/NDZZnB4YQhqLwInI5KQKQGFxDEtEVMRPdoWadPzsm6aSHFTEEym6XlPYsZ200ShC65UD+HdefGVURFgxg8eO9B5Hyhh0gRDJemjn6muXJJWtKMjEsD5B8kHrB9HzhU+Y/XR6cnZpCALWsKWCgnn/K6Sw7VDbOd2qjz9Tv17KD5S+JjdbWJsZeeLaj4d4lxIinOLq8aJjoxx5FBXVtUXKpJHbTmE/vbFMDJXPMfRMc93tx8oGaF64L7A53VzQOMfXz8dytxVtaMb3wDdl9w3frJ+YnNb9Ky61vbvxmxnSiRkdd+vSXonZtsAQjSX5GS+GLGsRy+eO+0D7CPGP+z4xTnjXSnDVR9vOO5AQ9O/tHV0/TCt56kmEABgOxKitr19cFH+08cMG37f0UMKGoDAnUdUF9Rm2tMfrT1vz8H6P6SFQqOxYV22E89Jj9z5y9Nn/V6I7oemkn2f0J8MqMAFjcHhgyGovQgaAMkxF9zuBT3nfqbkxBWeSuATTDBhV7uapOUJLoydHhkqPVNIZkm9qC66NrgyXLtuHZ0+zLHABBJUlvpLkUg4fyjtTXxXXopVtRMkG5XVPrjEJcCAcoHfg/pDl/SZ9tkFhcLWVOSx/lKV09mmIm86v6Tymeql0JOLNz6dU5irSsKuO0eOK+eLJh76mgLgr4So5j9nh6pfguIKM/c9uirGh86eVHdhte3o4gr2x7u7dmUcqG4e19bedWZNc+u5DsD47vs2BQiQAIkHq6SQEI3HnTQrvLs0P2dZv4K8R+dNGbnJlaPRV5lrAAA+3rF/5Mdb91zX1tl1aSRkCSkEgJRgCQDbAeiMxTv7FuY+OnvYkJsnDut7wG2LyxlUdqJsxuMr1lxfWd90QyQcCncX7t5FtW2nYdKQgb86Y9rop7ANruyFAGIhWVwafDMwBLWXcQgTNjD40s+qgCr9l5qT6uhkuPqqiJxbntrGBTzOD6Su7r5HLclKOkVDaH0ODCAGqXyniUgwK3aaqDQJk758n7vfUEuKg5Im5/8g+Sq/cn5EdgIo/K8jm1g3VV2dnj3F+PeCBiV41dhn2nTHIiXrWoLB2aQ7z8wt37zXEaagdlW2gbfvtLeKEP20ZZhynjmu6ysVgUXHte8xTcFP7MJFFdOCdGOOAZWvqO85FiDXI0NhmypmcAtNX5+9Wl6e3t4YG1fX1HpuXWv7WUKKcZYFIJKXxrsrOY6EuG3HMtLTVo0sLb53+qAxrw8YINqxfDqeuByDP5fvrxv03tYdl1U2tl6YHg6NSL5tICGgy45HC7IzHzt2zICbpw0ZUpWor1xA07G4o7J+8Mtrt97cFu36cViI5Hu3ut/DGtp4zPCBPz9p/LBPcT8sTJDTVHKcweGHIai9CAXxAiBJ3T1GCRmSgaELfmxQ0wVeqi9HToPKqWzGNgUkN5a0qMgiI0dFFDjfcwnGszPNEElf4qV6qkgW0c9DaokObL8RO1PaVdElAh15VCVlXbLX9VGqZFOXhImv2HvMOKjGvqqsrg91xEfl31Rs4vxO5OA4kRw7QXMjBXuD3tfq05eb80HjkNqG6wXEj8CdKpW/g3QLIp6u32ncUpFJlc6HQmZwm/QY6Be5yvisaitVnV5avTorEs6bsLXy4JntXbHzBIhR9EEmAAm2A+BIu64oO+vp0QMG3H/ihME7OH1U44DqtGzLllzZBGdsrqq+FkBMwQ82SQCIxePRvMyMJ2aPHnrr1GH996Tazy7eXr/z6C92Vd4Yd+JnhywrDNDt5M64DRFLvHTGrHGXjS8trfbpLKWQh+A/g8MDQ1B7GTpCQJFqsj9EeAitKysomaoCIZPEfaSL01kXmBTfk8RRQ/hU9np2vrDNus/cd5VfOB/R81gfxn5lEhRk54GzLxVCoiJpQURQUVe7o6PSk8pH/lK+GisVe4gslZ3s/ZpB9YJ8QHVg/Ip9o7SRIUS+p8qDYgHXP9z4JG1rX0tG+yjAxyyJo/pp5gr71gRNG+yr6bh6Cl8FvtouqDw+T3VQzbOAvvDEuaAYEyAvpfGi6DtfLN+3b1/mit11U+ta269p7+w6y7KEEOhBKpn4iaq4I7vS06yPxwwofeC7k0cvE0J04bZTGStuufLy8vTPD7R/d099442OI6eGhABAbcZspysnM+0/ThhfdvPksrIKrg80/S/e2FD+nS92VD5oCWskgASReINBZywWHz+o9KZzZkxYLISIq8Yzp7fBkYEhqL0IktTo/yS44Jb4rvqpSt/lLYUKlIhod2gVwdATtIKCHZMwtEmOVdpvv3/prvBjQLLwEAyFL2iix7tYvrbweV0So9AREFV5VyRng649VVtcclclQq69oH5k4Fk8AGgXGdziRDDH2DYY3bTk0v1Oxz6VxfSxZ3wEjcGARM2SeqqbipwweinjQ1C/KvzhEwPgjU/cmOLkovIpvxaMygPF4pjzqcpeLjZwPtHUY3VU+QCXo2VTnZ9UpsrvHPkMksGVAwBYU17V58t9+8+ob+v4UVfcmRUKWZlSygRv7BZjSwkg5d5+BTl3HjvhqH+OKSmpxLqQ8eSJBcK/MAu/tmbbyev3VS+0HTkjTF7qH3OceG5G5G/Hjjjq1ukjBu5TtAFYPjqX/l8r1122u6bx+nBI9E+0CyAEdMXtyukjyq447egRy7g+MPhmYQhqL0L6d8F8ySxRjk1S5DtHlFTEDUhZLclSESVFQlX+kpIq0KrKoWPJJMKVxz7RJRpSh9qnfDJeBOxeYB+qEmIqhEMVPIlOrj5Bidujjy6Z4vKcTF0bSL7nvmbSrqqcb2zp+g77U+Ef7Bv3APtrQ1QXV66K5KU61hT9TMc0+9Aa9hegucr1oWLesQtbKpcjG7RN6hdkO7ubyc1tXE94Fw5YD+0OJDd/VQSN6qPRi30VnGo8UJnUt5r2te+JJcdU85n1VSpxTfOZywEqIuu7hUnX38tWbxi0v671ly0d0R8JS/SzRM/WppTdu5Ex267LyUh7c+bIQXfOHD74C9VYVvUz9t/ra7aduKmy5uauuD0zRO4xsB07mpeZ8ciso4+6aUr//gdpH1GbcX/sqK4ufWvDnqtrWzuuiVhWRo9MCQVZGe9Iy/qXK74zfSeuuxBALDKvmfpGYQjqYQROrADsLl3yHFNdR1RVZX0Bm0lqgMqpAoXyHYYa4qXcBVJ91xxjX2Ct0xvAS3o53RTJ1qO7JtBpCTIXGAHUiYjTN0Av7U+uBrSvtPtQoUqgKp10tnGyNYmfLQf+eeXbkVSMZzy/PEmd2kHbDbJF0bYQfmKatFPjC59cOj9U+jK2IlHBT/Rr5AUSeE5vCuxLHUFU1GUflkml/zTHfH7hxrYqJnHfU/WPa4+qbVcGN6d08yZIV5WP8P831lZnt3TUzthV2/D7WNyeJSwrgz7xGXccJyzEexOOGnDP5D7Zbw8YMKCdi5/IFuVtJys27Tz+0+0Vt8YdZ1aI/E5r3HFixdlZD54ybeSioYWFjdg3jI2eeLBmV8XkN9ftuMcBmGOJnhzsSAkOiMU5kf5/unreyCinr8E3A0NQexEpBALP7hD5DEAIDT6nSChsolGRGi5wkQDqkceRm4BjPjLNETnkL/bJXIVPXd2Uv8TDJawAUL8nbaCyiK2+BYDOTwqZHoKk6xcVIWPGmI+gqRKyimDo+jnAj0E7x8p6HAnANmAEzCntcTK3fH2fwpz1N6Ih4VyiRO2CTi6jt29MITLiyvLonjhHxxxu16MXJTdB+kCAD1WExCsqqV8YAEYBwKCEXNXO1UEA2CaESBIgZKtqhy7w/m5u3EnvwjLw/lzUnjZ+4jLoHLtjTuc9bkMVFwD1JZKVlLtgwQKxaNEiV1bQlaikzm9u2DZ26/66H7R0Rq8CIUpDQliJK+UAAOA4DtgO7B7Rv/Bvg/OK/v3Y8WX1VDa1RdVvr6/ffuzGPdV3dsXjs0L4Z0slQJfjdB5VknfjT2ZPuV8IEQuKccgfoRc/2/L99RXVd4Qta7jnRwqkrAawLv7N949/nfYhGHxjMAS1F6FLblwwo8mLCXJc0vAFH65NFeFT6apLtArdgJ5PxT6mDPvzmCkmSG0A4eyniUaXcDh/M/ICExSVxenB2adqC5fDdgmR2gNiOtmqBKrzKXdOkfDZcaPTg+rNncM+4/SiiVxVnuqpGtO6flHJYHygJB2qdri2ZA9BxWRTAoCQ3ZdgfWRUSv8v0rkkSfTs0HsWUNQmRifPIoyziZPhnq+qqppeVFR0b1VV1bHRaNS2LIsdY/369dsVjUb/cv/99/9t0aJFjmsn9getkyrJ0PU1OgcAfrIbNAawOm6/BPlGAV9/gGJck76neuP+9Zzj9HK/r5YysvOTDT/cdaD+3LgNp4XDIg073JESumLxtgGF+Q/NGjf8gXH9C/eofBU0V15bu3X2xr0Hbo/ZzqxQ4sEmIQRIKWXcketHDii66bwZE5eKxANOuvninmtokAX/XPPp9QcaW38ZCUfSPWUBloO0fv7b78/23EtLZRocORiC2osghMb3PlKcBDTBRfuTotK7A8TuPhHyx+2WYHnaHR/SppI4aAgqBNXDx0i9JKE7xLq6esrXSOmSm47cBdWl9VXn3WOSuZyfqn5MeSVxoHIUY0G5q0rlpWqvVO9opbR4o/JJu9w9dr7Lp25zSA/dQjFlQqGbAzr76HkKPCYYmQBeMklJB/7O2ozFKc5zZT31CCF2+5glQVTm6tWrr87Jybn36quvhj179kAkEvEUlFJCeno63HjjjTB58uQ3hw8ffj4ANAJACLp3W3VkjLZJz+PxGGQv51u3LPWvBd6dYFoWH+d8g0Htw8d1/XQofawi5b6x/8HmnaNW76r4bVs0dkHECmWDAHCvmkuQEI3F2woyMx8/fvTg+6YMH1TuUTjFPAEA8Nbancd/vnv/nY6UM/ArqGxHgi2d1ZPLBi783rRRr1DddXK/2L5vxDubdt3X5Tinhy1ys4KUv7ruzDn3GWL6PwP0VhKDrw93Mjvoz93REO55gO5Jg4mDex68QR3cz65ct7h7TEppIWKL6+GEm5xwePLRieiWTehGg7arp4U+C/yfEiYaMFJJ8rgelq8ip4wsh9PRPUdsEe6fyifcMVUdV3dVoFTJx2UTOspEv+K+p4lHq5/7MSFLSO+iKSkjiJzqdOVIM0dOoWf8uzpRPTz9zJXj+gqdSxI4t20sR9G/2jGOSKR2Ic/5ltORwh2LurHC9aMbTxR6UUJiacrRP4uco7DAnzPo7S5ue5g04jbx/+T5eDwuWlpa7PXr18PWrVthw4YNnr+NGzfCF198AVVVVSCEgIEDB+ZANzkNEV11pJIb/zjm4rqHQlC4mA3Q7QMV0aQ6UF0pgkg+9S1dANHzGEoegBfMeE4dP3bYtrkTx/2xrKDgtphtfymdHrUECMiIRLKbOqI/XbF17+8/214xi84PJgexdn9n0rAPJpSVLpBSrpZSgkyYE7IEhISYtqWq+obnP9l0vEp3/N3VfcrwQbuGD+jzn7Yt90spaaUrbn/po3G4vME3B0NQexHuRGMmhnIH0q0KisCCSSwmQaRNDxRJXFDdCFFOJnUmwVOyQkl2MggqZCSP0eMcEXX/I3IPVI8gYkt1TOhg4Tr0PNMvSgKO9SA2W5L4npJ2Uteix0m/Afah6zPhvVUgWQ77FvsM+wQTeeRL6lvfwgD7mPjIon3CjB36FgDVLp0HpD32PEqgFh23eNxhfbF9Cn+78t3FAku6mXrYd8l20BiwiCw6rnwkHNtAdMBElf75XMV8dkmkqo7qHG0nqF1cjiXBaWlpTigUkpmZmYyIbmRmZkJGRgbEYrGIbdt5AJAFAGFF+9wxdjHClNf9UZ8DOqZql2sfl6FEFsul5JkjvFx/UFmu79lFLo3bjO7dFdD5yWXFFfO/PWXx6AElC2NSronZtqfhtEgot6Wjc/5b67ff9/bGXfNw/MWxSkrv7U4kjsG8KaOXjx5YujgWd9aB7JnHIcuCzpg9q7qh6fcrNu0YyeQtmhPcY/axg8a8OKAg9+lo3I4TE0cJcC57ePXqiG5xbnBkYAhqLwKTGTJRPLtq+HOiDF25S5rQ0GdMgGggE7gtSsSongpdWVACS+snyvgebHDJFBf4aHlMdLDu6LsvAOG6VB+NvUmSgPRSBSNl4KbkR9GOry1JiDK2HctJ+CeZGBXEWrWb6yPu9I/o7Lkvl+kbH2GiNtCyTGLwjBtXT9oe1Y/rb5KMfDtgWDbXvs4/iWMOrYfHgUQLKEZ/h8rRzS/NmPaQeRpT0H+XaFI/WOQY6ysEfHXGF5PAvyvKHcOk12eSQk+Ix+Pa+JMU7jgQi8XSbdsuAoAcAEgjdgnyHcBvOyWXqj9g/nMEkbOPlqVklvMxlcERT67/OP/jdlWLKo8sunhOVkDjnJsD586c+PIxQwf9LmSJd6NxuwVrlB4JgQR5zGc79t2yfP2OM6SUESTXnW++BXxSwcSxGf3Hvj5yYMmfY/F4NTYvEg5BQ3vHiVur6y8pr6vLI3HWE7Pw/379RNuQvkUvpIWszbbjS1sXNexvn04PGhx5GILai+ASLSaX7n9NsuJW3hJ6khQOXIDlYhmEdHrq0t0YpDe3Q+O7LQEdE1QGloWPYZLJkTxKSPF/gXY3OXLFESdcBxMuQXZkOcLt9gE6Jl2bCcH0fMflsY7ud6wLKBKTIqgmiZabELB/sHzqh4TPPLeQ4Daw3hzRpD7niDAdH5S0Y92RPLoz7vEF9Skmgbpxy41rZLOFdPDIwbq7Y1s3XrG/sE9cHSmJJD7mxgKekz5irOoP4me6u8f5lhInvINH75XE/+lnGofoAo+WpQTat8sYjUbBovcDMhBCQFdXV7rjOIXQvYMaAv+tB1g3TAiprq4OdFcXk1z6n9oDAWWxX/DzBbQtVfsc0ab9Qsk3AK8rd9tFtxDFeHbPk7jhiddCCHve5JFvHDdq8OVZ6ekPdXTFG0G4iggIhywAKY9es6viT8vXlJ8hpQxh2WQMswvGsjLRMeaoPkuK87L+Ho078aQzJEBaKBSubmi5eE151cXlUqZjGWRueub7SeOHrjmqtPCZLttplMgtAqBQCLjqwXffzeF8ZXDkYAjqYQCZCMmAIdEDTjTRAwpGaGLhnTSc6BxcB00+2SPSf18PDUI00Ch08tRFCVSqkrUkl1pJIk2CCYRs8MRt4XquasQnrr66n2Oll3wpIVXp4ekrTEQURMbtS7oo8ZBwVy4l16gsS8IpmUfltH2L9aPkDJM6VN+3qOL6FumV3M0mfqZXA5JkENtFx56qfY7Q0z9XL7cvkH0WsZGOAXq7CSWE2tsrVH3DJUraHtIZEoTXc1sAMxc8cYb8JUWCn4xRUFKHP9P/gpTj6h0SJL0fUFHGcZyIECIbADKg+xI/99Ad1RPIZ6wjJbEqUqj64+IXJZ5APqt8pY0/jBxcn9qngoSee4V9cZWLL25covMdCz1+7LBtp44bcXd+ZuYDHTHbQ/pCVjdJ/XJf1R9f+aL8TNn9WjGaAzwxGf8HAJjUr1/btyeMfjAjEvpHLB6PioTFQgiIWFZpeVXtL7at3TqLk8HNGyFEfGif4qfzMjPfitnedCEAzm5ogJNS8KXBYYQhqL0ITMw4QpYADfKqS/DJcpRQagiH5545QIlPoY/y8j6XLF19aZLFidmtzsmRzK4Y4xsPyXLlMqQ/uQNFgqmFyrlyLFoX2ZUkFMQuHMDdfrCIL30LALpqR/3gtmMR+R6fcwSa9gPxN+07Om44QsKRE9dXnnGJxxG2EfmT24FM2seQZ/ecbwHFyPAQANlzywTrO+QPlX2+xQ1OvnQMYHmU8DJ+xePKIXUtgJ4dcqoD8onHb6gNvKilvnb945IOj1zOBcRH7u4jR7poWdV4U9WzwLu7qSPHIIQAIVRq98C27ZCUMg285JT6VDce6DEdIXWPOaQMrYft5dqhZfExAf5dXCqXQkeA8R/tW2xzsjy30KMxKLFYolckPDFg/NDS6tOnTLi3T27O3Z0xuzG56JDdJFUCTNq4r/qPL3++7XsJmZ423DHvxk6c76SUYmz/wt3Hjx/2ZwtCb3Vfmu+uHgpZIAFGb9pfc+XqvTXDXRmKHJPEzJGD9g8rLXwWpHPAJdRCAHTG4+E+eVnBg9HgsMIQ1F4Es9OZJFDuebTT57nUyUwm7a4is9PWXdi/K+e7nIp2g3yXTAPItSTJ1SPP1ZWrn5CbvPxJVs7J88K7O+zKp7uhvraQ7vQSqXT1dm126yLy5fMP9PSP57487CPsP2wz/UzapZ89pJbaRPUj/eVgGcRPnvFBxoFPVzJWPWMS/xHipFr8BPnZMx+InnQMeexDNifnGvIdO2cYHelYS9ZBBBjPV4fYjwkE9hle3CSP0TlI5jwd79j/Di6HdFIlXRUBor5xL+lzxMvjJ3RMkHMu6O0BXPsSlRXgv0QOjuOkRE4BkgTKvbRPiSW2iSOFwBzj3nTgW6SgMtQX2E++OcuUofrgNnE91YKDayfos8oeX58yY527SuPb9XQxekBu7cTRpfeXFeTeGYvHm0BKNwh3v3dLOJM37z+w4PW1209LGtSz6MT5gPXVzKED1x8zfMDD0bjd/RR+olRayLI6o7HvrSvf86s1uxoKsByOrLo2HTWoYEV+Zsa7MdtxBAC0ReOd/QtyfhPOyH+b2mZwZGEIai/CXVHiVSZKoJ7j6Lv7Gb8qCgA8u3zJ73jiukmL7vzgiYhXn3hFSs8lvrM7jXhVi85r/UB0oLuayeN4J4jo41vRY/9QG93DdIcK+YXugOEdLw85Qfoon7Cn7aBdheROCPEzR+rYHWysBxdYsXzOD5TA4nbcdl0ZVBbue2wTHquuTOLLxFc14XbPozZdX3v8z+hh4T/Rs4PpGyuY8NIxiMomky/tM7c4rkPnLW4Pt0VJNe4Xqie2lznnIQVkjrBzAPykRLWTZjHHOLIFqAwlIu5nzh+0DNYH76Sq6n1V4DFNfcn5Beumsl9H9Gh5lS3Ul5zdKv+6x+mPJ+BydC5TUqdqj96b2l2YXAFiFt/uYs33k8t4rhw/ZEjDzIlD7h1YUnhr1HYaE3VBCAEhYYENcvK6vZW3vLlux0muXADf1TBB2pTu/J/QJ/vtkX1L/twZs/dj6yKhcHpFU+vZuw9WnULzHfFPEpP69as5ql/xPwFEfUs0JvsX5vw+bPV58JLZY1poWYMjC0NQex+YzEguMQEJfIhIeIIPt9NCV7bJwuSyDA00uBwzaT1t0h0hFRHm2qZEmewSJYFX3zTgueewPHqMkeUJZLrAhPxEy1GbtZfamXNS9PzyF30q3bO77hIzaiP1PUOCBWrLZ5PbPqlLfeLZKaWyhGLn2LUP13UTRo8a/O0iWDdmfNFdZo8eSB88p3y6cAQRHyP/WVvJGHJ6ivXojJO0axPuG25+qca4og+Sn+kiBPsYjTNMSihZwmSEe9qfjn18DBMjjvSxCyfFcdquWxYAAMLhcEr3oGqgIpCUnLqf3Z1fLg56Fujg9yknn9bH9ahu3NsSJHhvEXBl0N1dTPRx+zq7Ob/jscLaxi3CaRka8zHGl5a2zhg76MEBhbm3xx2nUXbP3m6jBIAdd6au3V158+fbK49xZVFyTNt259uAAQPa504e9kxRTvbL0XgcRMIayxIQsaz+5dW117y3dWdSLmcfljtsYNGHkZD1Wt+87BsKreyHL547tFORIw2OIAxB7V3gycwFERZkZ8ZHSMgOEg0YgkxkvNvF6oeSHruTRnfE8PcU7KY7h74dTbcdrA+WhXeL8C4WJufcDhj2D/qP71n0+YXYJogOtEzyO9GF/iiAb5ecHke2+/oU9SfdQfPpg9snuvgCvXsO9Sn2q0Xk0D7B9ngIELKJJgOB28b9RPxJd659/gYv8PgQ6Ds3d7i6Ht/Sc7RPcDnc725ZNJeoLNW8UL4rl9OL+EtFqPBnTEa4e0Ax6WHjACpDF8+UDAM6Lpg/YI6pyOTXhap91X2h1AZON9/4IKC+1JXl9KX3umPSzPmIWwBwvk9Fn2S7dGPBIxzFSDqvVDHe/T6+tLT1jPHHPFCan73YkU49JG7jEEJAKGRBp21P/qB8z8/X7TkwjLZN4yvOAwAAA3Jza6eP6P9oKBR6O2bbSc9YlhAx25m+ZW/Nebsaui/1u/VVhHpcnz4NJ44bfuPg4vB9588d34rzk8E3B0NQexF49wX8Ac6zW0Sqela5TLDwnSO7Vviyn+99kih4JGVKtMtHdsuAk+WWx4GJ7vjgY/gz1kHRblJfZCN7ryHZ6fPsuqEdNc95IiupH1cO73SpAjY+jspjgubbaUP2evqS8TmW7dkRpn2P/EF3X5N9Sckk2aXAr6zyjT2kk+oeQ/dzUlc3oWBdiE88diFdJVPH2yiyEfUrAGmf1ie+893jjOcH8gVQPwFDntGckKQe27e0bdyXeG4A9NwuQXyjInW4TUpw6Pymu2oqkoaP0fs9JSrrllHdz+rqgx8ew/pAPB5P+R7UAGCb3Pawrlh31y6sC70MT0k4BZ7TXB2qG4C/fzBU/aiTqyLObh2OuGKZPpLpEjRu7uAxyxqJFppSSlFaKlpPnDz8kaKs7L/YtmySIJO75ZGQyGjt6PzR+5t2Xb754MH+AN58EWAjzBw++IvxA0ufitmyRkqZLBW2hKhr67xs3Y7q2uamMQAAIABJREFU78vu+5U9+rkxKtGWBQCx6SMG7jtj2rR2XJRr0+DIwRDUXgTaLeMuyyQDBJ786Dy4x/BuE5Gh2hlKBiFKRol8V0+L+6+wx5PwVf/dz0yQY+89xX5AbXme/EbyPDJRgKS7p9w9pBZtl+qNbdXtDuAVPW6LIzXYJldnxS5DUlemDSqL+pPbPaUrf58NpH88O0qoLNaNkhZf0sa+pgsZ0qbnvk7XF3gBgoiuZ+cc64/P4fLYNkr+qF/JGBDMf9pvnoUj7geO2BN5LLgkzxEAOnYYHVxwcYMek8A/ue+eo/2MiSgwdbjjnDxMFj31Lcv6upf43bZoGxz5VukGoH7ACtcD8F+Op/Ge+8/GdOB9Dsx3jryqQO2k77llSTKZGy554+Kjp326eAZvH8DwoqKmY0ePfCgvK+3PThyaRKK6AAFpoVBBQ3v75avW77m8vLwuj/gG6+ghvu4cH1zc78WBhblPdNlOJ9IHwpZVUF5Ze8H63ZUjkE2e221I7Pb9El2Ajw0OMwxB7X3oVs+egMeRSTxhEt8tPKGYROgGlOQDMVzSJnW4XTLuEo/gki4lA0R33w4jozc+7vkFHoUsD1FF5/B9onR3BInyXcb1kRvUlo8IMD5K6q4j7G77tG3ynfa9wG24xxUEyFNOeHdouQQdBLoTeyiES4J/XHFldf5gx5b0LlwErUsSio+8q3RBhN7VC8vB4677oIIou7KIPOp/XD4VUiqZ8h4ZzAKDxnPP2wSY46pETPWmYwqY/xgc8WMJUVKhr09QOYKI9XGP0z73LbaIDDomcFlKAimCiKSK1HJ9qiLadDxxiwsuFvj6lOQN7gE6cMtRfShpxGXc40cPKWiYPWno3zIywg/Y0ul5AEkApIVDufsamq/+onb/T6WUEeG9auPxMY2DU4YWNs4YOfjptHDoi5htu22CJQR02fZxn+85cMo+KTNdXRhbAKDnah3o+8zgCMIQ1F4Ek9xVwUt12dZ3iRXvRlEyhS+7oGPcT0b6Ai8iwsnvKPF5giJNzBwBlt6dSlUQUBFhgJ6Ey15CYuxQ7tAi3VWETrp2MgReYvvIblXyKXJA5IUjqXRHgS48SFseos3snCV1Zci2B2RcKG8RoOV0csgx34Ml3CKG+lLhF4nHN9d+4jN9PZtPb0qqEVn3jB26IBLCd1uOZ04xuih9SORR/9NXgLHAc43TnYkV+DVPqvtFPX1Czkvw/8IQJZcc0aKvl1ItaHB55fleuMTPkS9qq4P+dGSNI3MAPLGl5zi93DK0Xe6WCPrH+Zgj1tS3HGlVfqdzmIsL3DzHYxvHTVVbk/r1qzlhQtlfI+HQg3Hb6UJyID0cKthSUXvNmxt2nozluTK4eOS2dXRZ3/Uj+/e5XzrOXnSlH0KWyKtubLmyfMPuGdgGshtMc5TvTQUG3wzC37QC/5fAJFqW4CnKchBSSh/BI+1x90xxyduT7OhODSJkDiVIHGHDst16Gp/QBwFcHX16Ed08iUKRvFm/a0hTsgx3kMqUPe+09NSh8mX3fU6ujQ5jn2dR4O4WMTvDbqL0JCAsA7WttDGht+r9joHJhyHC2Pee8YD7S7ULxunP/UcyLVdH5CNujLD18fEFCxZY7rhmyD+no9u2b1zL7t8SDwNANgDkJf5nJP4AAGIA0AEA7QDQkviLAUAcE1/XJjzfNHPL59SFCxe6/sDjE4AZq4pzFvCvL+KIDpXP7aRiEkbbo3DnCPW/ovghQQIAbNy4MW3cuHH5XV1dBWeccUaeECItHA6HLcuyYrGYHY1GOy644ILmX/ziFw0LFy5sXLRoURzpy5FU9zhnC/6vI6y+DYsFCxZYV199dU5RUVE+AOTMmzcv27KstFAoFI7FYsK2bWnbdmz+/Plt8+fPbwOApkceeaTpF7/4RYzox+2Cu23pfiCB3bBwZXNjD8dEMk+tniKS2/l153/lW1/ufHz17n1zbClnhYQAkACWEBAJhQZ/Ur73qs/KK6qmjxy4JqmkSN4rimOAlWhLCCHkCcPGvHqgoeXbta1t/5IWsqzEBAMpndFbq6ourKuTa4qLRTMTT1S3xhl8wzAEtXfhGfTosyf44iROSRdKVjQxZgFAKQAUAkBZ4nMRdCdI3I8SALqklK0A0AAANQBQBQD1ANAghGhy2yXyPYmQrjSpoRwRkFJmA0AJABQDwCAA6JvQMYvoGAeADillfUK//QBQCwC1QohWFQHDwZD4qteDCtWB+kdKWQgA/QBgGAAMhW6b0xKnbQBollJWAsAOAKgEgAqkO919pXYqyQnRIRMA8qGbKOVDt7+LAaAAeoiT5wEB6BkfLnmqhe4+qAeAJgCoE0J0kXaU+igIvHLBEtRXaEzR13KxJDcV+YsWLaLJNpmMuB1p1LabeEugu4+PBYD+0O3X/q2trUe1trb26+zsLIjH47kAIEKhUEd6enpjVlbWwezs7H2RSGQPALQCQJuU8lMA2CSE2Ed3hly7GD/gJOrGEblo0SLfq4ruuuuuouLi4pJQKCTsxKVOFy0tLZCdnW01NDS0/Nu//VsFeB8gAiSLvvdU94AcPi+eeuqpMtu2syzL8vV9S0sLZGRkOPv27du/aNEi917B3pi3EgCiAABXXXVV+siRI4c3NzdPKigoOLqzs3NkS0vL8KVLlw7s7OzMj0ajaVJKSEtLi2dnZzcCQEVHR8fWE088cXNHR8e64447bt33v//9HUgvjrjTBaTrD2qzb6y5Jx5//PGM5ubmssrKyjEjRoyYKKUc1tzcPLS9vX3gc88917ezszMnGo2GhRAQDochIyOj3bbthpqamqrS0tIdo0aN2nX99ddvWbx48bpnnnlm949//OMGpj23Tak55y4UPHrjnEQ2V9yFnmdeohig3HBgFpHblq3evHjd3uo/g2WNDVsCJABEQpawY/HTPirfXfPRjurrjhver8aVQxdzdDFcXCya31637ZmmnR0nOhJGhhLWhi0L6tu65n28b8vLAPCyWxfZ5vEPXngfjtxikDoMQe1FkJVkcjWaGOi4HCxYsAAWLlwoAZK7IQAAgBIPlJeX540YMWIMAEwEgKlSyvHNzc39GxsbS5ubmwuampqgqakJOjo6IBaLAQBAeno65ObmQl5eHuTm5jo5OTmNeXl5dXl5eZWWZe2QUq4DgE2NjY3bLrvssv3PPfecndBJt0NqAYBcuHBhckfXLffggw/mXHHFFeMSOk6XUo5qamoa1NjY2KelpaWgsbERWlpaoL29HWKxGITDYcjKyoLc3FwoLCyE3Nzc5oKCgpq8vLz9lmVtk1KuBoAv33rrrW0nn3xyE9bN9SX1GQk2IISQH3zwQeHs2bNnQjdho8kFmO9uGQsAWt544401p5566j7sh0RbYwFgFgDM7ejoGF9TUzOkrq6usKamBpqbm8FxHMjKyoKSkhIoKSmJ9unTp7KwsHBHTU3Niqeeeur1xx577MsVK1bEXX0pyZZSCtfPGO+++27429/+dhF0E/9B0L1IGQUAQ6PRaL+2trbi1tbWwra2tty2trZwW1tb0u+2bQMAQCgUgoyMjKT/s7KyICcnpzknJ6cxNze3NiMjoxIANksp1wLA1oULF25btGhRMyGrPkK3cOFCsXDhQoCenV757LPPZp533nkzAWAg8m0qsACgc/Xq1eunT5++1R2TiQnkIW133XVX5q9//esyABgC3Qu3SKJMHADq33zzzVWnnHJKG+pjnJBdvwMwJAIA4Kc//Wm/k08++UQA+EFra+ukDRs2jNy+fTt0dXVBVVUV7NmzB9x+7+joAACAtLS0rJycnKzi4uIBgwYNmjRkyBDIzMyE0tJSmDx58sF+/fqtffXVV9967733Xrzjjjs24/bIDiK9iuDGEG73E37wgx9MmTp16rWhUGhEPB63uMQqhAhFIpEDV1999S333XffSmQz3hHFx3Cf0GPJskOGDMn4wx/+cMHYsWPnt7a2FgohbKYcWJYVHzhw4MsLFiy4e9GiRR2ora+KLgBoveiii7LPOeecqbZt/+Dss8+e29zcPOGTTz4Jb926FSoqKqCiogLq6+uhubkZpJSQk5MTLikpKRk0aFBJWVnZpClTpsCiRYvaW1tb1zzyyCMvDR48+OXTTjttIwBL7HS7q1x8SZa79tprS/v37/+tcePGfeeYY46ZGYvFRm/bti3/1Vdfhf3798OBAweguroampqaoLW1FRJkGvLz87P69OmT1bdv34H9+/efNm7cOLj22mudWCy2feLEiZ/eeuutS6dNm7bq5JNPrmR0UOmq2vH1bVx4vyZvOaKyPfUDNjUEAMgzjxnzaktHZ+aOA/W3hyLhYTIx/jMiYWho6zhzX1X1Z1LKfxdCxEluUu54jpo48rPKpra/76ltusYCkesWCgnRb0dl/Q8qmptXDczLq2N0VF6hMfjmYDrhMABdQgDoSS6qAA9AdjOuvfbaoXPnzj3xlFNOOamrq2v6tm3bRmzbtg3WrFkDO3fuhNraWqivr4fGxkaor6+H9vZ2iMfjANBNUPPy8iAvLw8KCgqgsLAQCgsLYdiwYTBu3DgYMWIEDB06tKa4uHjDqlWrPl+7du1Hu3bt+vSee+6pQvood4Jd3HfffYMKCgrmzJo16zsDBgw4fuvWrcM3b94s1q1bBzt27Ejq6CaGtrY2iMfjEA6HITs7G/Ly8qCoqAiKioqgpKQEhg0bBkcffTSMHj0axowZU97e3v7Z0qVLX129evU7jzzySBVtHxQBFQDg9NNPT7/77rtvyMnJuaqioqLwUC4dSimhuLi4VUr52nnnnXfll19+eRAA4NJLLx161llnXfjd7373rC1btkxdtWpVaOXKlbBz506orq6GAwcOQENDAziOA9nZ2VBaWgp9+/aFQYMGwfTp0+H444+HQYMGbSkvL1+6cuXKJ/7whz9sZeyR9P/8+fOL586dO2/evHkzS0tLB7e3tw+rqqo6qrq6OtslSdu2bYPa2lpoamqC5uZmaG5uhtbWVmhpaYHW1lZwnG4uY1kWZGRkQE5ODuTl5UF2djYUFBRAQUEBlJSUwNixY93xYY8YMWLHzp07V2/atOmj2trad6+88srNwIMmZAAAWLly5fxRo0bdvHv37rJ4PA6Wldrt7vF4HAoKCuLFxcUrL7300qteeumldUDG4AMPPDA+Ozt71owZM741evTosTU1NcNra2uLOzo6QpZlQSQSsYcOHXpw3bp19/ziF7+4e9OmTTFVd3MHr7vuun4ZGRknnnXWWecXFBR85+WXX87++OOP4bPPPoPt27enZAdFYWEhzJ49G6ZOnQrnnHMO5Ofnf/bSSy8tbW5uXnrDDTdsShSjl+3peGBtuOyyyyLnn3/+bZMnT/63e+65B6LRKHu5XEoJ1157Lbzxxhv3XnTRRb+FboKHQS+9Y/IqSbnkou+ss84atWTJkn++8cYbE958801lXw8ZMgSuuOKKljvvvPPU6667bhV07+7bAAArVqy4uqCg4C9nn312eMeOHWz9zMxMuPfee2HixImb5syZc1NaWtqmc889d9jFF188b/r06aeWl5cPfuaZZ2DVqlWwZs0aaG1tVbjMi+LiYpg0aRKcccYZcO6550IoFFr91ltvPbFly5bnFy9efCBRDF8pUJF5etuCBACYMWNG3vz58+ddcMEFF5SUlMxdtWpV/ssvvwyffvopbNy4EaqquPCmRnZ2NowfPx4mTpwI5513HkybNq0lGo1+8Oqrrz69adOmpXfffXcHKs7FFQrPlYmgnUNE3pLjhFnEqq4Eeq6C7ZIy49U3V11X19K5KCMSFgASJAiQUkJ7tGvX7NFH/fKUSSNfYnTw3QLkfv9kd/XQD9eX/7XLdk4LCZHoNAlxR+4+eki/q8+YOuYlbC/ROZXbwwwM/vcB74jRz8C/1gW/qgRuv/32AU8++eS/VldXr2hsbGz/+9//Ln/605/KiRMnysLCQny55iv95eXlyeHDh8t58+bJP/7xj/Kjjz6SnZ2d1Zs3b379nXfe+fkll1xShMyhOgNAN/lbsmTJObW1tcuj0Wjz888/L+fPny8nTpwo8/Pzv5Z+BQUFcvz48fKnP/2pfO6552RDQ0PD1q1bX7z11lvPW7BgQQ7RDcj3pJ633377gGg0+tkdd9whR48eLceMGZPy3+jRo+Xll18u29vb284888wpJ5xwQviOO+64sLKy8v29e/fKxYsXyxkzZsjs7OxDsm3cuHHy+uuvl3v37pUHDx78cNGiRScx9tD/oY0bN14jpWxatmyZXLBggbz44ovl7Nmz5fDhw2VxcbEMhUJfe1y4f5ZlydLSUjlp0iQ5f/58+Y9//EPW19d31dfXf/L888//9rbbbhus0NkzTh5++OFIZWXlf77wwgtyypQpctSoUSn7f8SIEfKss86SbW1tctGiRRcDmh9PPvnk0f/1X/+1sL6+/vO6urqO5557Tv7rv/6rnDdvnpw8ebIcPXq0HDt2rDz66KPlQw89JNvb278888wzByT0wvcIA6M7AACcf/75c9atW7f04MGDDU888YScO3euDIfDveZjdywsXLhQ7tq1S1ZUVHx22223XQneq1n0/mEB/BixALrvt3z33XcfefXVVwPbfuWVV+Sjjz76GHTfdhMB7y0gtB0uTlEfwoUXXni0lHLrj3/8Y23bQ4cOlY2NjR2PPvro2QkZ7i0xsGLFiqvXrl0bGz58uLJ+VlaWfPjhh+X777+/9uSTT/7NCy+88JiUcs8nn3wiL7nkEjl48OCv3TeTJk2SDz74oIzH4+2fffbZMyeffPJI6m/SR6rXdQEAwLPPPnvMihUrHpVSNi5btkyeffbZsn///r02lvLz8+Xpp58un332WRmLxepXrVr14IUXXjiG0dMF3Rn3HEvkLYvJXx6452lZIsP34Kx7DNdZvbdm+O1LV/zj5iXvxf784vvy9hffl3e8+L5cvOQ9efuy995Yvn57Ga1D5Uj0wKuUMvT8qvWXL17yXv3ty1bIOxLyblm6Qt73+srHtla2lDB2+HK32UU1+D8HDUHl/pIT+Iorrjipurr6tZaWlta//e1vcs6cOV+b8AX9lZWVyXnz5slnnnlGNjc31y9duvSP0POwhy/gvvvuu2PWrFlzv+M4B/7xj3/IU045RRYVFR0W3YqKiuSpp54qlyxZIqPRaPW6desev/XWW0cgV6tIHVx99dWDW1paPvrVr371ldo+9dRTZVNTU/VNN910ycqVK++WUh78+9//LmfNmvW1CeG0adPk8uXLpZSy/K9//euZSHffA00LFiwo2b9//8tLliyRpaWlh3UscH85OTly5syZ8t5775X19fXRAwcOvPHrX//6NKQiJS0CoPvSe2Vl5VMPP/zwV/LX+PHjZXV1dex3v/vdZQAAP/zhDwcsXbr01wcOHPiivLw8/qc//UlOnz5d5uXlKWVceeWVsqmpae2ZZ545GgDSoZsMKYnfVVddlb5kyZJzDh48uOHFF1+U3/72t2V6evph9e+YMWPkn//8Z1lbW9v40ksvLbzxxhuHEN8K9Jn7tbnkgmD58uUPvv322zI3N1fb5ttvvy0fffTRJ6D71pe8hG8oiaE6sOPT/X7OOeeMl1JuuPLKK7VtT58+XdbW1jbffPPNF0L3PdLZroxUCGpmZqa8//777bq6usrdu3dv27Nnj/Pb3/5WlpWV9Wq/pKeny/PPP1/u3LlT1tTUvHL55ZdPQPayfUCOAQCI2267bX5bW9v6L774Qv7oRz/qlU0G1V9+fr6cP3++3L17t2xqavrgoosuOoH0I+1PT78yBM0ipM+X11wwxM5DTDlZtNyb63ZMvGnJOx/eunSFvGPZ+/L2Ze/LPy97X/7p+Xc6Hn3n89t2SZmhao8eAwDYXlFfds+rH76yeOl78vZlK+TtCeJ7y9IVO19YvfH7RD/lu5rBwOD/CshqjL7InVtxw7e+9a3Md9555/91dXVtW758uTz11FNlZmbmYScf+K+oqEg+88wzcv/+/W8fc8wx7i5ZGFDAveWWW05vaWlZuWXLFvmTn/xEFhQUHBHdCgsL5c9+9jO5ceNGuX///hX33HPPqcjlOHEmE+ill146qLm5+cMbbrjhK7V59tlny87OzoZoNLpx+/btzsUXXxyY+A/lr3///vK///u/pZRy0/z58+cATz5g2bJlAzZv3vzqI488ckTHA/2LRCLy+OOPl6+99prs6OjYvnjx4otIHwAgkrNgwYKMysrKx5988kktiVT9fetb35JVVVVdN9xww1Wnn376cZ9//vnz7e3tLXfddZecMGFCSjJ+85vfyD179qw99thjp0P3Q2Pug3o+X19++eWlH3744f2xWOzAQw89JPv27XvEfGtZlrz00ktlRUVFx5YtW96cN2/eHOJbShB9f88++2zaG2+88ddUCepjjz32XFpa2ijofqguG7y7y1yb7Ph0P6dKUGfMmCEPHDjQet111/0/ABgA3SQ5DJA6Qf2P//gPR0ppP/PMM3Lq1KmHtW9mz54t161bJxsaGl474YQT3F1J1a5pkmwtWLAgbf369dd2dnYefPTRR+WIESOO2HiaMWOGXLlypWxubv7ywgsvPBH1laqPBQB4cpXuDwCAkDm8i6oiovTPU96V9fcPv7jkT/9858Ady95P7nre3k1Sa15btxVfcfIRS9yui39+suGSxUveq7/9xZ5d1MVL3ut64PVVf6tobi6mssDgfxzMe1B7GeT+FQnegO45973vfa/k1ltvveX444+/5S9/+cvI+fPnw/Lly5MPXBwptLW1QV1dHbS0tISi0WgBdO82hV1933///XOuu+66+99+++1jzznnHHj66aehsbHxiOjW0NAATzzxBJx//vmwZs2aOb/85S8fuf/++6+Cbr9SXwMAgG3bbtD6Sm2Gw2EAgLyXXnpp3DnnnCMef/xxaGlpCaqWMqqqquCaa66BVatWjV20aNGfJk+ePBz85Amam5ulEMKJRCIQCtGH8Y8cYrEYfPDBB/Dzn/8cnnrqqeHXXHPNrXfcccd88P/Ge9LhjuN85dcGOY4Dzc3NsQsuuOA7jz322AO2bZ9z4f9n77vDo6j299+ZbdnNpjdCOiShhBYBaYqIdFApaqR4EUXUSwSvIlhAQFDwoiAqcOFKE0HRiyJKRzpBEgglCZBCCunJ7maz2V5mfn/MTjI72d1AEsr3+eV9nn12d3bnlJkz57znUydPln/00UfIzMy8ozJIkoTBYJBotdpAMJJCMZyMmTfeeCP45ZdfXhMUFPTG1KlTg+fPn4/KykqnZd4LUBSFrVu3YsKECR7Z2dnDvv3227WjRo1iF2Pu/OFqMNM1NTU0a2d8J6BpWiYQCPwBSMGo+V3dKH6KVL60kLb3oZFq203dZF1dnQ+YqBOS2NjYuxrYWVlZxIIFC8jk5GSkp6ffzal3jbNnz+L1119HZWXlyDVr1izv1q1bBBp7vbOgAUYS/9JLLy2Mi4tbtHDhwsB33nmn2XbLzUFqaipeeeUVXL58uef69eu/nDp1KjuWGoX14rabcBH710k0CeakxqSOHQ80+zu3HM5/6uvklgUAw+PDd/t7euyycCJQEAQgFgmCrhVUfnQ6rzTCTdcd6gWALpFhxzwl4vM0546RJES1RuPQjPyK/rzz29T6DyHavPhbGU4GOPuw8eMDku++++7svn37vvHee+9JN27ceN+JKQuRSASRSASbzSa22Wy+AORg4jji+++/n/j4449/sXnz5uhFixbdtUF/ayErKwuvv/46Pvvss8jk5OSPKIrSzJ07dzuY68o6WxAAYFcrNxtKpRIrVqwg161bB4VC0fLGO0FJSQkWLVqEPXv2DJ47d+7zM2bM+BZM/Ey3Ac0fJMrLy/Hhhx+CIIiwN954Y0lhYaF2/fr1v4K57nxniGbXQ9M0PDw8RPHx8SN++OEHj08//RQ3b96863IsFovIYrGwIbeMYMZ0/UI6d+7ckMmTJ6/28fFJmj17tuDYsWPNbnNLYLPZkJqaijlz5uCLL77otW7dujXJyclvHzx48DiY68oP/QTcISF0AQlFUd4A1GjYGPGzkDkjx86I6F3daIqiCLPZLAcj0dZbLJY77ofZbMb27duh0WhgNvP9u+4Nzp8/j/fff5/Ytm3b0ytXrswdN27cJ2DGEv+e0AAwZ86cf7Vr1+6d2bNne37//ff10VVcgSRJdOjQAb1790a3bt0QFBQEuVwOoVAIiqJgNBqhUqmQm5uLixcvIjMzEyaTyW2ZN2/eRHJyMnbs2NHryy+//CAvL+/2hQsXcuFcWFIv7WTJJF9Can9vtAnlOFRRdEMCEwcnKnYecBYWCmgU31l7Iqtg+/nc231tFDVIYHe2IwkCFpttSEFZVRJN018RBGHltJ12RSq7tPO9fSPA+9fscsVAgiZ8CQIgCRIWioouqlY9c61IndIjyreG3xZuH9ocph4s2gjqvQF3gmcHOPuAUwCwdevW8Y899tibCxculG7YsKHJSedeg6IoWK1Wic1m8wMjWdHPnTv3meeff/7zLVu2RL///vv3jKzdKcrKyjB//nwACHnzzTcXKZVKxSeffLIfzDUW2N9pVoLaXKSkpCAlJeWebxhOnjyJHTt2EC+99NK077777vi5c+eugiHa9WSPoiiCIIjWCmLeYiiVSixbtgwxMTEx8+fPn33mzJkrGRkZBWCufz25FggEzSapIpEI1dXVoh9++EG0evVqKJXKuy6DIAjQNC2wWCxsPFjWIcgCgP70009DBg0atNrX1zfpjTfeEJw8ebJZbWXBeq7fjSSTj6KiIsyfPx8rV67s/vXXX695++235+/fv/8wGkgqdyPQ7AFBEISQJEkJGsx4+PaUrrRA/DmNL5G+o+ptNpsHGNvXu1p/bDbbHc1B3t7eSEhIQHh4OPz8/ODh4QGSJGE0GlFTU4O8vDykVZeTAAAgAElEQVTcuHEDer3+jurdv38/Vq1aJV60aNGU119/PW3jxo2/8f5CA0B6evqrMTEx8+fOndskOSVJEo899hiSkpIwaNAgSCQSg1qt1tXU1Bi1Wq3ZbDZTJEnSgYGBwri4OMnYsWO9xGKx/Nq1a8SuXbuwb98+t2tGRkYG5s+fj+3btw+ZO3fuzDfffHNlbW2tGo03kzQAgk9MAUdSyvfG58c1Zf7eEBOZDTfHVfdzyCgJOM8YOKRr9LXK2rq1eRWKWJIgQth5TyQQEOUqzT/+upH3F4DL/PK5beKS7Rvl5X+VKGvPGSzWsYR9GItIglTpTE9WqqsfBXCYG0rRTrSpNmL6cKCNoLY+CMAhPzz3OADgnXfe6Tl27Nj3v//++5CHgZyysFgsYoqivABYx48f32P58uUfHT9+PPbjjz9+4OSURVVVFT766CO0a9eu45w5cxacOHGi+MyZM9fQQFBbLEG9X5Jsm82GrVu3IikpqdPEiROfOnfuXC4YKaoVAC0UCh9KlVNxcTG++OILbN++ve/rr7/+fHJy8jdgQhYRAOjo6OgWEdTKykp88MEHSE1NRW1tbbPbSVEUCYYIicAxQ/j2228DHn/88RVCoTDpzTffbBY59fPzQ0REBGJjY9GtWzdERkZCKBSiuroaN27cQFZWFkpLS1FSUnJX5RYUFGDBggVYtWpVjzVr1qwEYNq/f/9JMNeWjS/qkFHHz8/vjscITdPsdWEJO3suS0Cc5WCn4Rh7tdnPl71+gb1+0mw2t4qZmZ+fH/r27YsRI0YgMTERwcHBNpIkLVar1WRPWkCTJEmIxWIRTdMeeXl5gj179uCPP/5ATU2N27ItFgu2bt2KUaNGRc6cOfMf+/btu1heXl4Gzj3ZsWPH4wkJCQvXrFnj991337klpxEREUhOTsakSZMohUJR89tvv5WcO3euoqSkpFalUun0er2BoigLAJtUKhX4+vqKAwMDZY888kjgpEmT4tatW9dhzJgxwk8++QQFBQUu6zl27Bg2btwomDdv3ounTp26sHHjxj/QWErukugBjkH7+VJF7nc+6eSA4JfDDQ/FNQFgpbHXitTHlFr9L2qd/jWRQChhC6IJxN+4rXijSK1+P8qXkXzyw2JxPwNA53btSrICFH9mlykHkQLCl6ZpkAQBk83W8bZKM7aCps+2IwgdOJJwlqS6vLBtuG9oI6itC65qxGHite8EKQDE7NmzX1Kr1b3Wrl0LjUbTOhW7yFR1N6BpWmA2mwmZTBY6e/bsN8rKynovWrQIpaWlD0X7WJSWluLDDz/EL7/88tjnn3/+ztSpUxcUFBRUwr5wt1SCej9x5coVnD59mhw2bNhQsVi8x2w2V4AhqGar1drsC9Wa19sZUlJScODAAa/hw4ePSUhIOJSVlXUddilqYWEhzGbzHcc+5SM/Px/5+fmt0m6efaQNANGvX7/ngoKCpv/jH/8g74acCoVChIeHY9SoURg1ahTdsWNHCoCpqqpKU1lZqbPZbFRCQoJk6NChXh4eHp7V1dWiU6dOEb///jsyMzPvWC1dWFiIDz74ABs2bOi1bNmyf167di2nuLi4DA1Sam7c5Lsa6wRBuLovLtW/nGPcgP3NkZ4yBXHiZLZkM0mSJNq3b49nnnkGEyZMQIcOHSwKhUKdmpqq+OWXX1RFRUW1paWlWo1GYwZglcvlREREhKxz585+Q4YMCf/0008jJ0yYIFu+fDnS09PdjreysjKsX78e69atGzhx4sRh69at2wWm/9bFixfLp0yZ8t6RI0eiV61a5Vbg0KdPH/z73/9GTEyMbvPmzTk//PBDfnFxcbXNZqsDoAOzQTWA2fDZ9Ho9rVQqiVu3bhEXLlwQ7d692zcpKSnho48+eioqKipk1qxZLm1cKYrCjh07MG7cuMgpU6ZM2Lt3b3plZWUpmHFkheN9dEry2M88Mlp/HleCyimLSz7rUwzfSfkA0CPKt+bU9Vtfp+SW9KUouh+TtJSGgCAkdUbTixdvFh8HsNtJm8AvkyAIa2Zh+amCKvXfFE2PYudFAUmQyjrdEyW3yjsBSHcmMeWT3Tbcf7QR1NYFdzcIwFEFAgCrVq3qHhkZOWbJkiWi5tjVsRCLxQgMDERkZCS8vb0hFotBkiRsNhuMRiM0Gg3KysqgUqlgNpvrswm5AkEQMJvNMBgMxGuvvTZ80KBBT//rX/8SXL582e157iASiRAaGoqoqCh4eXlBKBTCarVCo9GgqKgI5eXl9QkG7hbp6elYtWoV8fXXX4+dMGHCydWrV/8I++LdUgnq/QRFUTh48CAef/zx7j179oxOS0urAbM43bGRnUgkgkQiQUhISL0NG6vWtJtuwGQyQafTQaVSoaKiAkajsdnXHgC0Wi3279+P0aNHdxkyZEi/rKysW2AWPYtKpWrR9b8XhBoMObW+/vrrQxMTE99dsWIFeac2pwKBAJGRkXjttdfwzDPPUARB6NPT0ytWrFhRmp2dXVNVVaVVq9U6m81m9vHxIQMCAiSRkZFew4cPDx83blyHadOmBV28eFG4du1aXLx48Y6Ial5eHr766iusX79+1HvvvffmnDlzVoOxGeVKMgG7k5S3t3czLkkjcLU+rCqYT1Jpzm8PDIGBgXjuuecwY8YMOjw83JSWllaxcOHCovPnz5cXFRWpaSbVs9H+soB5nujMzEz64MGD5IYNG+RJSUmdP/rooyc2bdoUlpycTJw/f95tnSdPnsSVK1eCpk6dOm737t1nFApFIQB07979VZPJ9ORnn32Gqqoql+f3798fX3/9NTw9PVVvv/32tX379uXQTLpnDZh7WwvGTtoAJn0razLDRgkQq1Qq8YYNG7Jv3LiR/+OPP768YsWK8JkzZ7rUNNy6dQu//PIL3n333cf69++f+Pvvvyvs18JhHPEdpPg2p05+d5o6mFs3z0TAQerqRDPkUMYTXTvmbj1x6afyWk1XEgIv9gcC8CpWaqZl5FeeJAiikuPY5ECSuccSotrdulJcefa2Uj1SSJIETdMQgIDJbAktqqnpS9P0VYIgbJw20W3k9OFAG0G9B+DY4jRKyRYbGzuouLg47PDhw80y9BcKhejZsyfGjx+Pfv36USEhIZRYLLba7WZAEASsVitpMpkEKpVKcOPGDTI9PR3nz59HcXGx0+wqdns96PV6U2JiYsjkyZNHHTt2LHDPnj3NJgthYWGYPHkyRo4cSbdr184qFAqtJEnSNE3DZrMJKysrRQcOHCB2796N4uLipgt0gl9++QXjx48PnDlzZtKff/75d05OTh4AVFdXEwKBgLgXdptc6VNL7A25yMjIgM1m8xkyZMgjaWlpWWA8zvWenp4uz5HJZPD390fXrl3Ru3dvxMfHo2PHjpSPjw8lEomsJElS7H0FQFAURZpMJlKn05G3bt0SXL16FYcOHUJubm6TjhzOQNM0Ll++jLy8PN8ePXr0ArAfzEJr9Pf3vyfXvgWgARgHDRrUZfny5St27doV9+WXX97RiQEBAXj22WcxY8YMSi6Xa/bs2VO0f//+4kuXLlXYbDYNGqReRgAmvV5vLS8vpzIzMwUHDhyQxMbGths7dmzspEmTeuzYsaPDrl27RNu2bYOrbElcHD16FGvWrPF6//33/1leXl6yYsWKrWA2ASwI4O5U/E2Au9BzpbN8G1T+/+4bJBIJBg0ahHfeeQd9+vQxnT59umzRokV5J0+eLDabzWoAdQC0YO6L3v6qJ6j2YgRGo1Gwffv2nNzc3NzNmzdP+eyzz+JfffVV5Ofnu6y7vLwcv/76K5YuXdp36NChfX7++efc4cOHx4wcOXLat99+K09LS3N5blxcHL744gtIJBLF9OnT/7548WIBAAWAavurxt52llRb0UBQWbMLARiTFdnJkyfL582bZ9uyZcs7kydP9tq4caPLufrAgQOYNm1a5OjRox87fPhwutFoVMCR/ILjweQgGXdmJwpHEsiCXe/4ZdAEzwSA/5nTbocOdG7nv1etMwwz2mxjBfb5hCRIQm82D8iurhpL0/Q2VkLLKY9bBPvF0rFdwLkyVW0eTdNxBEEABECSZFBJtXrsxbKyAwAcFiG+6UAbHgzaCGrrgktIG6nAFi9eLOzVq1efv//+2zsnJ+euCydJEs899xw+/vhjSigU1p08ebJy7969isLCQo1KpdJbLBarPc2mODIyUh4XF+fbo0ePwNGjRwfodDrZ2bNnBb/99hvS0tIahYmyWq0Qi8WYMGFCYlBQUM9///vfzbY7jY+Px6pVq/DII48Yjh49WvLjjz9W5ufnq3U6nVkulyM2NtbzqaeeCnvvvfeihgwZ4rVgwQJkZWXddT1KpRKbNm3Cli1bBj799NNDv/zyy3IAtQKBoFXDp/n7+yMmJgaxsbHw8vKCQCCA2WxGbW0tsrKyUFBQ0CKv4lu3bqGyslIYGRnZBYx3sxEASktLie7du5Nms7k+TWxYWBh69OiBwYMHo3///nRQUJBFr9dri4uL69LS0tQFBQV1RUVFGqVSabBYLDahUEh7enoKgoKCxKGhoZ7t27f36tq1q9/rr78eOH36dJ9t27aR//nPf5pld6tUKpGXlyfq1atXfFhYWERpaWkuAOLkyZOYO3fuA2WonPSurJ2g6M0335yk0Wj6Lly48I7CpHXq1AmLFy/GoEGDjMePH7/9zTffZKenpxeDIeJ19ncuSTWjwU6UACDKy8srXLt27eXdu3dfeOuttx6bMWNG/2eeeabdggULcOTIEbebHLPZjE2bNuGRRx7xnzx58nO//fbbuZs3b95Ag7MXgdaRoPLtTfm/OVP533cIBAJMnDgRK1eupKqrq5VvvfXW9d9++63AarUqwNyHWjRIIrVgyClL9ixokAgLYA+ll5KSUrp48WLq22+/fXP69Omhn376qdtn+fTp09DpdO0HDhzY9+eff/595syZL1gsloQdO3bAaDQ6PcfT0xNz585Fhw4dtDNnzrx88eLFHDDktAJAuf0zO47MnLZy1V5s/FWRve0eO3fu/C0pKalXcnLyM3v27CGqq6ud1p+dnY2LFy+Sjz766ID27dv/mp+fX2u/JqxDJrFkyRJiyZIl9feaq5oH577bbTMdnJ3QmBzyJakOqn84EmA+waxX2w/oElO453zmiuxyRU9aSIQzPwAEQfjfrlY/fzb39kkA+dx6nKj7SYIgKJWKvnxFVnasps4QKxQybFcoIKE2mAaolPp+AIqdOYq14cGijaC2Lvherg4ICgoK8/T07JiXl+dyMnOHrl27YtmyZXRGRsbt5cuX30hPTy8HMyGzaiF2YmPbIQoKCvLq2bNnyJgxYzoOHjw4Zvjw4e3OnDkj2bZtG1JTU2E0GkHTNIxGIx0VFSWPiYnpnpqa6nfmzJlmXYCgoCCsXr0acXFx6rfffvvanj178tGwYBgAWE6cOEFt3rxZNGXKlM6rVq0asWbNmnavvvpqsySpx48fR3p6uvekSZOG79y582RFRYXWTlBbvPMNCgrCk08+iUmTJqFz585WDw8Ps9VqtdI0TQkEAlIoFApVKpXHr7/+Sn733XfN8jYHAJVKhaKiIiIqKqo9mPiQdQCINWvWWCdPnmyLjo5mCSnGjBlDR0VFGaqrq7WXLl1SnDp1qjIzM1OZk5OjMpvNWjCqQRMcFzqumlAglUo9H3nkkaBZs2b1XLp0aW+pVCr+/PPPmzQD4cNkMqG0tBT9+/cPbd++fWhpaWkB7uGc4uPjg4CAAHh7e0MqldZLs61WKywWCwwGA2pra1FRUQGapllyCgDWAQMGdJw4ceLk5cuX4/bt203WFRISgi+++AKRkZGqd999N/N///vfLTCSLjUYaZcKzLiuA/P8mdBwvQHmeovBSLykFRUVio8++ijv999/T1uxYsUz3333XZ+XXnpJcOLECbft0Ov12L59O5544olHn3/++RHLli0rstfF2qO2Btwtys5+czvP3StIJBKMGDECVqtVM2PGjAsZGRm3wBA7JRiSx94Tnf3FPgc2+4ttL4kGkir57bff9j399NMxSUlJ03799VfR1atXXbYhLy8PaWlpZHR0dPQTTzzRr3///qN3794tdRfrdPDgwZgwYQK1cePGGwcOHMgCUAWg1P6qQsMcbuK1lXt/WaLIklQJAPWWLVt27969e8iwYcN8fvzxR6f1m81mpKSkYODAgRFdunSJzmfExCxBtQLAkiVLHKSlzqSjnOsHPqnkSxu5v3OPOZNIurP/bB/uk16oqv3dbLW8ToIUEgRAkgRhsNj6F1bWDKNp+r9cu1iuaR2vL5qYAO9jijr9VCETFxkEQYAAfMpUtYk0Tf9JEISxjaQ+XGgjqK0LZ9LT+s9mszmorq4upLy8vFlq1Z49eyI4OJheu3btjfT09EwwpI+VHLC7b+5ELKyurhYeO3ZMdOzYsdTo6OjQpKSkHlOnTu39xBNPRPz888/khg0bUFJSgrq6OltISIiXxWIJPHbsGOlqN+4OAoEAb731FgYMGGCaNWvWlT179lxHw2Ku5rSRoiiK/uGHH3IkEknNV1999dKbb77pv3jx4ru+Lmq1Gvv27cPChQsf7dKlS+eKiooik8nUoqj2YrEYAwcOxJw5czBgwABzdna2Yvfu3RWXL19WFBUV1RqNRqOPj48gJibGY+zYsZEffvhhN19fX4+lS5c2a+MBAOXl5cSgQYMCgoKCAqqrqysBSPPz85V79uw5PmXKlJ47d+6UWq3WutTU1OItW7ZUHT9+XFNSUqJDA0EyoGGRM6KBoLLjoT4tqcFgEJw7d45MTU29pNVqFfPmzRt7+PBh8tKlS3fVZrPZjLKyMhAE4SuRSIJgD+dUU1ND2J2TWozQ0FDEx8ejV69e6NWrFzp27AgfHx+rWCy22Z0wCIqiYLFYSIvFQlZWVgouXryI4cOHg6Zpura21iiTyQTJycnPlJeXd/7++++brNPDwwPJycno1auXbsqUKWlnzpzJBjOOlWAIhRLMeNagQYXMvurVyGCuuRB2kgrAMzU1tTIpKSn/5MmT85YvX957ypQpKCoqctue8+fP4+TJk94TJ058+rfffjudmZmZBY5ksxVU/M48r9njrsp+IKpPm82GoqIibXZ2djEYCWQ1gEr7O6veN6Jhw8AlfFwTBZakSiwWi3Lnzp1/DB8+fMioUaNiMjMzXW7W9Ho9zp8/j1mzZkUuWLBgolgsjv39999daiC8vLzw/PPPQ61WK7du3XodDVLTYvt7DZh5kS815TsesdebJZUWAKLTp0+fKSkpuf7UU08N2L17t0uJfG5uLkQiUVCPHj3i9+/fnwZmvnBIX+vM6YjvU8H5XyM1vzNixz/myrGJPcZXrQ+IiDD8eObqjkJVzdMEgUjmwhAgCfhWqGsn/V1YcQRAobM+c2xgmegApYosaakyy2KzDmBjrApJUqTQaAdfyC+NAJDL7XMbHjzaCGrrwmmIDfaL1WqVms1miUajaZZtZ2ZmJjQaDfnCCy8E5OXlGe0q1XIwEzO7OHLtlgRoWCA9CgsLiz///PPsP//8M/3NN9987OWXX+7br1+/gH379iExMVEolUql2dnZYne2VO7QuXNnvPDCC/jpp5/y9u3blw1m4WBf7ERssrdPCADbt2+vGjJkSPCUKVOS/ve//5HNyQ5z+vRpaDSa0OHDhyeeOHHib6vVKmoJQUpMTMSGDRtotVpd/eGHH+bt3bu3sKamRokGuzYDANvly5ete/fulVZXV1dOmzZt+F9//SVubrB3tVoNmUzm6eXl5VtdXc1KSAzz5s3blpqaWiAWi8MyMjJsf//9t81qtUrAkEGrvT0sUWJVmibOu9n+P9Zrlx0PYovFIvryyy+1EydO7PXMM89E3C1BpSgKVVVVoGlaLBaLvezlivz8/O5OFMuDSCRCly5dMHLkSAwdOhTR0dE2ALqSkhJNRkaGprCwUFNVVaXT6/UWkiQJDw8Pws/PT9iuXTuPmJgY32HDhnkSBEH//PPPlxUKRVViYmLYiBEjxq9evfqOwj5Nnz4d//jHP8yrV6/OOnPmTA4YUloOZhxXoWFDqEfD9WW961mw44+VeGntL7lCodDMnj17886dO/2WLVvW4a233nIbTkuv1+OHH37Axo0b+4wcOfKJzMzMQjDPPIXWUfG7k4ZySZJTZ5j7CZvNBolEYpPL5bUqlaoMzD2pALMJZm2BzXC8H3wzBbYv7HOB06dP/52VlZU+ePDgqK1bt5LunJ0uX74MkiRjR48eHXD8+HH/jIwMl/+Njo7GgAEDqD/++KPwNiO6V6KBWNeAGROsfSz3ujqbv7jX3woAKpWq/Pr166m9e/fu5+fnR7rS4hQVFUGpVEr8/f2jRCKR3GKx1KDBm7/e295VP/iEkhMqqlFMU2d2ptzQUu7K5avpCYKgX3ysR9pXh1L+MJitswWM1BMkAVistt63SitH0jT9nd3JqVGZ9n6RANC9fUBheq70TKlKM4DRsdFMxjmTJaZWZ+hJ0/Qtzv/bSOpDgDaC2rrgP+AOqhE25E1znWuuXr2Kr7/+Gu+9917Pnj174syZM/KTJ0+ezc/Pr1SpVCVKpbLOXp8IzL1lVYwS+2cpAFVWVlbFnDlzcg8fPnx17ty5I959991Ii8Vi1ev1ouvXr3vm5uY2q31jxoyBSCTS/vTTTzctFksZmEW9BMyEXIsGMwSWQAutVmvFTz/9tG/06NEDhw0bFnXlypW7dj7Kzs5Gbm4ukZiY+Iinp2eA3Waz2XaoHTp0QHh4uCU5OfnaX3/9dQMMGWBt21hHBgsYSTD15ZdfVj/zzDMdnn766S4nTpy4a1U5wKSbFYvFErFY7Anm3gkAiOrq6lSbN2/eByZveXsA7cBk+qLBLGw6e9tY6RFrSkF36tRJarPZPGia9pDJZF6dO3f26dGjh79UKg0QiUS+APzlcnlgYGCgrXfv3vXOcncDjUYDiqJImUwmBTPGBAaDoUWTe3R0NL755hvExsbq//7776pNmzZVXbhwoTIzM7Nao9FwnZKMcJQ4CUQikdjf358EYKyuri4HoBw4cOCjUqm0065du5qsOz4+HgsWLMCvv/6a89VXX10CQ4BKwKhjK8EQIVZSzRILbhv4YCVeZjRsHKSnTp069N5770l27Nix5NSpUz6bN292266zZ8/i1q1b8oEDB/bbunXrQZVKZeTV3VLwVbqAY1gpZwSP+9/7BoIgLARBqMCQvCow6v1aNKjI+RsFdxJiGwDo9frKmzdvnhk7duyIiIgIL3cEtbCwEAqFwqdjx44+KSkpqKiocNVOdOvWDRKJRLt3796bYMZRCYDbYObEOri+f84mQb6tsAUANBpNWvv27amAgACXBLWkpARlZWUICQkJkclk3rW1tWIwcwy/zU6dg9yQVwdiyvnMJaRckkpwybArwsqLGkAdzbi17ULu7YlCoSDUHhQLABlQoa579kphxWE4kaISjWOZWqKC/c+XqOpqKJr2IwmCCZ5NIKyypq7/tpOFf8Ju/48HYMLShsZoI6itj/oJnWM4TgCgZTKZWSQSWby9vZtFBgDgq6++QnFxsWTKlCmPzpgxI+Hll18eqdFobmo0mmvHjx/Pu3XrVh6A25s2baqAPV2pHR5giI0MgJSiqNo//vij8tKlSzmdOnUKi4uL85s/f/644uJi/+bknffy8sLgwYNx48aNioyMjNtgFo8y+6sKDWosbpo6IQDq4sWLF/Ly8lKHDh0atXXrVtyteYFOp0N6ejpGjx4dFRgYGGSz2WptNluzPcmtVivq6uoorVarRgMpqbK/s3aeVtjvtVqtrs7Nzb2SkJDQSSwWk81xOLJYLCAIQkgQhBgNGwx2syEBQxZ0YEi/CMwCVmtvkxEA+eyzz/qFhoZ29/X1bf/444+HxsbGhgiFwmCKogIpigoMCQnxlsvlniaTSWo0Gj10Op20rq5OfPToURw5cqRZ14qiKAgEAlIikbDZgQQmk4kiGDSrzODgYHTu3Jn+73//m7Ny5cpr9vvA9c42cV7shocGQFosFqKyspKCnbxLpVJTUlLSwJMnTzZp4+zp6Yn3338fNTU1ilWrVl2habocDJEoBTOOufefa0rDB181zkq8uOpZ8Y8//rj3+eef7/3OO+9MTUlJIW7cuOGybQaDASdOnMBLL73UMyEhocuZM2eqwUnv2wpw1hdn0tNmx2BtKWgmtBFIkrShQXPA3TSy14NPLlyRb669MHXu3LnLzz77bG1ERISXu7ioWq22XuKdn5/vckPq4eGBxMREKJXK2pycnHJ7W9n2GtBKm4ubN28WPv3007REInH5H4vFApVKhZiYGB9fX19fDkFtpKrnS0OdHbsTYsmXRHJIKWk/x0FayZ7PL4umaSIPyLhWWLbHSlHJBAgQNA0BSUJvtg4oVNY8BWAz1x6W1y+2PKpEqbx4pVD0l8FkmUSSzARFkiR0JnN03yiJHICxKWlyG+4f2ghq68JhQueQUwCA2WzWSKVSdWBgIIRCYbPsUC0WC3766SccOnQI3bp18+zdu3fXQYMGde3QocOEl156SRccHFwqEAgqly9fXnLu3LnMIUOGZKSlpWWPGDEiFw27Q28AXgB0ZWVltWVlZZe1Wm1vAM+5y0ziDpGRkYiJicHu3btL1Wp1BRipBmuvp0FDXD/uomADQFdWVhbfuHEj7fHHHx8bFBQka479a05ODl566aXA+Pj4SIPBkNsSgkrTNAQCAaRSqRYNqt0KNDgzcJ1hSIvFYrt48eLNSZMm2by8vJpFUNmxQhAEa7fITY1rAUPMbGiIlaiPjY3179q1a4epU6f2iYiI6NW3b99YgUAQVlVVFaxUKr2rqqqEdXV1UKlUKC4uRm5uLlQqFXQ6HQwGA/R6PfR6PdRqNVQqVbM2TPZrTNA0LWTbLZVKyZaE4KJpGjqdDtnZ2SqtVluKBsckNZsddpoAACAASURBVBokxKwEkz+muNfN6OXlJY6Pj++5bNmyJiXzvXr1wrPPPkv985//vFpWVlYCZgyzamQVGGLBktP65nLq5g44ZxIYlqiypjjWhQsXbjxx4kSfF198sfPixYvdtu/MmTOYPn16dHh4eAcAqWjICd8a4JbjjqxyXw9EwkQQBE1RFNfWmm97z7W5BhpSxYJ3jAUNAKmpqaUGg6E8ISEh/M8//3QZJ7iurg5arRZardZtuDCpVIqePXuiT58+vvv27RtrMBgeEwqFeoqidCRJWoxGo61Dhw50YGAgrl27hm7dusHb2xsKhQJarRaxsbGorq6G0WiEn58f0tPT4eXlhe7du+PatWtQKBQEQRBUXFycv5eXlyAsLAzuzA3q6urg5eXl6eXl5QVmk8tmE7PZBSYEVzXPCzHVyOmJC76TEguOut/hWvNIrkPZzkhwHEGY9l/M+eHS7dKJHkJBe8YSFSAJ+BZVq565Ulx8qFdERCnnvPp6uZLUMH//qvb+3meyi6smiDxIAQECBr0ZlFSq7h0faub0pb5dLi9oG+452ghq64Pmv7MPXl1dXRlJkqWhoaF9m0tQWajVapw9exZnz57Fli1b4O/vT4SFhcm7du3aKSQkpFN8fDwGDBhglUql1X369KnIycm56u3tfe78+fPHJkyYUAiGNPoC8ARA9O/fX0QQRMD169eb1Z74+HjIZDJTTk5OJRgiwTqR1DtGwVH6QnO+W8+ePXvzySef1HTs2FHWnDYUFxeDpmm/0NDQiNzc3GKLxdKiHTBBEDRJklo4xipkiTbX6YIEYKmsrCzz8fGxhYWFidypB92BpmnQNM0617DtZ8kQba8fY8eODRs1atSEcePGjQkKCuphNpvbX7x40efzzz9HQUEB8vPzUVpaCp1OB6PRWE9G7xXsagKWHJItzeTFSso8PT31JElWUhTF2n7WoMHuk+sAw03TyQ0wbo6Pj/cTi8WiOwkr9cILL6C8vFx19OhR1mO/Ag3k1J3klB88n63fmQQS9jLMAKjr169npKSknB43blynb775hnAX2k2v18NsNgulUqkXmOdWD8Dk5+fXZN+aAN/+ka/WB6/9wANcuO3iMPa+O7sfrjYHzvpVDx8fn1qKokpjYmL6iEQiwhVBNRgM0Gg0KCwsRHl5uct2GgwG7Ny5E9euXfOSyWQJAkFj383s7GxYrVZIpVJcunQJNpsNQqEQAoEARqMRIpEIAKPVkcvlsNlsOHbsGGQyGYRCZvm+fv06amtrm9QQmEwmkCTpIRAIpHBM/8slhQ7ncI/z1O7OTAD4vzdaA9n/8m1EnUlN+e3v0TvuWlZZxR6Kpt8iCQI0DQhJElqDpf/tKv0gAD9z6+dJT1libD58NadUJBKaLFZKpjOZbTFB/tuCfbxWEQSh4Tlxub2ebbj3aCOo9wYOHpjsA7J06dLanj175vXo0cMWFBQkuJNwN3eCuro61NXVoaioCCkpKQAAuVyO4OBgYVBQUOigQYNCn3zyycTExMSJI0eOLM7MzDx04cKFba+++momGImcbNiwYWKLxeLRXHIVHh4Om82mq6ioYCWmbOo+rnSD6zji8PQXFhZWSCQSVVxcXDs2A9LdoKioCAaDQezp6Rlks9k8WupFbpcMGtAQ75LtD5cwwv6dJghC7eHhYfL39/doSb0kEzuJL6myAbC+9dZb3v/85z9fi46OfpGiqA5Hjx71P3r0KE6fPo2KigoolcpWSx5wl2D1+VwJZktBEwRhQEO8SNbRrt7+Fw2kwxmRIgBYn3rqqTCRSNQkQY2MjMS4ceOwefPmHLVaXWavV4kGRxau5JRrw0jwjvHBl8aw76w62rh27dpf//e//0186qmnAnfv3u2yjTqdDnq9noiKigoUCoXeVqu1FnYJmNvONQ2+5Jf7md9H7sbyYZAwuTOz4NrQAo59q4/hyR6Qy+Vamqar/fz8KKFQ6DISCE3TKC0tRXh4uNuYqSxBFQgELcqOxmqCOE5ADt/Zz009+xaLBSRJCkmSFKPBhMipqp4rNeXU4XSM88mqMymrK9MArr0qvw1O/mf49ULW3msllRNkImE4E2+fAGgEl6trX7icW34iMS60mlMOxSuDJAiCim3f7tqV/PKrBqst4JGYsKUdgtsfSIzxa3oH24b7jjaC2org7AJZA3H+X+icnJy0oUOHqjt37hzQWgTVGVgVVH5+PlJTU7Ft2zZ07NjRe+TIkQkzZszoNHny5HFRUVGbFy9e/J+zZ89qDx8+7G00GpulngYAPz8/GI1GQ01NDbugcyVdXOkF4Lgw0AAwcuRItc1mUwYEBEAgENw10SovL0dNTQ2Cg4N9xWKxtCUqfk67uM4t3JBNjSCXy3UkSRplMplPC+okONJHluxRALBmzZqhkydP/kgul/fftGmTbM+ePcjMzIRKpWpBda0HzoLWKrDbsJooitKiQSLP2hqy98DZICFomsaSJUuIpUuXUkFBQZFarVZeWlrqtr4xY8aAoijtoUOH8iiKUoGRmrKSU659I58MOxvb3N8p3nmNTFzS0tKuVFdXn3366aef3b17t8trqFQqUVVVRXTo0CHUx8fHS6lU1qto3XauafClp1y46pez/z4M4LbJnb1so7afOnXKZLVaNXK53OaOoALMvVAoFE0m6LDZbM1ymrwXsEtBSYIgWBMi9uVKculUpc+VdrJk1hmpdFJeo3NdmQy4+l/fzuFXcisVh2009SoJJnOiQECiRmvoYKJtHQBUuyoT9nvuE+hVEeznvbhTmJ9iYFy0Qy5vN+e24QGgVTPu/P8OzgNFchZsrtQQW7duPavRaK5OmzYNMpnsfrULKpUKaWlp+Pe//41hw4YJV69e3alv375Ldu3atWnLli09AgICJDU1Nc3OiCSXy6HT6UxKpZINecQSO1feqA6ExsfHR0vTtNbT07NedXU3YDM7hYWFectkMllLvPjZNtonK3aR40rswPlMAwBJknqxWGxupXvKXhf99OnTPQ4dOvThnDlzdl24cGHo4MGDZR988AFOnz790JDTewSCJEkLGrz1WacoB/MKzrPGggaAJUuWsAtmuEqlatKuuUePHrh9+7ayuLi4FIzUtAaM5NyABsc+Z4uXM9tTdnPB/Y1w8n8aAHQ6neLw4cNpCQkJ8PBwLYBXq9VQKBTw8fEJFAgEbLQHEgA35mNrwBkBfdjXCmfXlz8Hu/q93izEYrFoPTw86KY2tyaTCbW1tS0y03oQoCiKHStcU6JGJJL96IxgOiuXa7fJO4dLfuufVXsbCPsx7nGCawLAfw/39q6N8vNLtVoom116CgFJwGS2JdyqUgynaVrUVDkBgO7lJ3r9xZJTbnu557ThweNhn3T+z8HJYumwe8/Ozi7/8ccf94wZM0YzfPjw+94+s9mMgoICLFu2DElJSTKlUvnc5MmT1/Xq1aunSqWyNHe3L5FIoNfrLQaDgRuCh2sf6EzaVA+lUmkWCoUmiUSCphYHV7DbcklIkhTZJ+JmldMEuBKZ+oaSJGkjSdLmzM6smXWYwsPD/V955ZWVQ4cO/Xjx4sUh06dPR3p6+j21J32IQNuNwNiNQX2KRS442go+UQUACASCwLq6OqE7Fb89/S7y8/OrdTodN2IA35ygvm3O2sI5zrex5v6f30YKgC07Ozu3Xbt22oSEBJfttFgs0Gg0kEgkXkKhUApHZ7qWgNvGpvr2sII/r7Cf+RtkivfZoV8CgcBCkmST/aSZ7HsPjXT0TkBRFKuZ4EpPgca2oyz4ElQu6eOn9XYgtoCjXSrXJpXzmbbXQTkpx5U5ga1rZMgxmkA6DRpsC4RCUlxeox15rbiyE1sGtxyODSpNEARFNKRyZTd4BKcOdnPbRlQfMNoI6r0BzX0g4EjM6I0bN/5ZUVFxcunSpXSvXr0eSANNJhMOHz6M6dOnC//+++/+QqFwiMViIV05BrgDQRCQyWSgKMpmtVr5GYycqQZZcO2/LDRNmwUCQbMIKk3TMJvNEIvFEpFIJLmHu2Cni5fNZrMAsLYSQTX7+flJNm3a9F7//v2T58yZI1mxYsUd5Y///wzchZXiqhk5UhtvnU4HnU7nspB27dohJCQEt27dqjCbzWxaXjacFdesg4Bzosl9vvkSOv5iyyW7LImFyWQqkEqllR06dHDbYa1WC5FI5EEQhAQN4cjuGC5sFRttuHi/Ofv+sJJVvoaDT77d9pFNn3snsFgsTRJUgUAAsVj8ULx4c2sjMs8nadxjLLHj/E5xSKDDtWT/5+x3HlGknRBHmlOOw4ttS/fI4JJQX69dZqvN7uTBSFENFnOcSqPvxG8Pf07gtoVbJ9+kgG/D2ob7jzYb1FYE9yFyYmRev2jl5+dX/POf/1y7bdu28NWrVyfOmTOHyMrKulcSP5egaRoZGRmYP3++YMeOHXJPT8+7mqBZkCTJTnysdy33BTgu1Nz3eggEAkogEDTbc5JzHklRlOAeXkvuQl4/gQmFQookSao5148HGoB18uTJj40YMeLVJUuWCP7zn/+0tEynIAii/nUnThYPCRwk2IsXL64fS9xnjqZpYsmSJUS7du3ETW265HI5ZDIZFApFndVqZVPGshmi+GOY6+DHVYXzCZ4rItvIOQcACIJQCwQCfVMe+RaLBUKhUGi3I2TVtHcMgokj6vJnzju3T676+zCSVK5U0NVnwMVmmSTJRqGSnEEkEkEsFrvdTMvlcsyZMwdDhgyhm2vb3xqw256id+/eyMzMrKmurtaicaYt9r+NpKHc68Enc7x6Gjm/OpFMcjNMEZzjDmPNiRSTuxk1H824lVuq0mho0N6ssxQJIji3QjmsSK0+HuXrW8P+nb0GvH41ah/3uytS24b7izaCeg/Aebi4huPciZE8ffp0WnJy8qdff/31om3btvVavHgx/vrrr2bncm8JLl++jFWrVuGJJ56Ap6cnXGUjcQWbzQatVguSJCEQCPihX2jeZ8BJppeBAwcK5XK50GAwNIuokyQJsViMmpoam9VqdakiagW4k8S0GCaTydypU6ewJUuWvHX48OGg1atXt0q5MpkMEokEIpEIQUFBCA4Ohp+fH3x8fODp6YkbN27gr7/+apW67gPqn6klS5YwHxzD1rCSEPznP/+xNGXTzIbjCgwMJEUikdFisbDxNbnk1JnDDV9Kx4UrNbmzvtBSqVRK07TEXcpTABAKhaAoiiZJsj7u7AsvvNDsRAsu2ufMnOH/grqT227+RsBV3wBO30QikdRsNjdJUoODg9HUhl4ikWDYsGFITEys/f3336vt0rr7bhNAEAQtFArpAwcOGHbu3Hm2uLi4Eo6xnAlwSCPP4ckloeNLGvkbRL7KHw0qfWcmBXzNR/05zkhidGBw6mWPsoMWqy1JKCCZnRRBEGqDMUFbawgFY0Ne336Obwg/FSq/rS4jDrTh/qONoLYi2N3hHTgs2AAIDxw4cK6urm7lV1999fbGjRsTt2/fLtm5cydu3boFk8l0H1psb4zNhkOHDsFsNqO5KmqLxQKZTCaQyWSkSqVyp9Z3CrlcLgIgtlqtzZYki8Vi6HQ6i53k34/Jxak0rLmw2Ww0RVHU2LFj+/v5+Q1YvXp1i+xN5XI5IiMj0b17d/Tp0wcdOnSAv78/5ePjQ8lkMpokSatIJLJGR0dLfvzxR/H/MYJaTwy50hYnC6tWKpXCw8PD5eavuroaCoUCHTt29BUKhRYL4/nCSk9dSRAbtQPOCRK3zSy40kkKAORyeZjJZAoqKipy23GZTAaz2WxvooMz1h3BnvmrKfs6Z0Sc+95UUP8HAVfmQ9xnlL1e/PPq4+gSBOGl1+vdJpoQiURo3749PD093c6XFEVBqVTSBw8erH755ZdPgXG6s6AhRe79Ag3GXEUDhrhx0zXbwFOD004C64PzrAGNJY3gPCccu072ONg6XEhOGypzTxzrpa9oJ9eE+Xhm5VXVUCIBs0sQkCRMJku3vGp1X5qmb3LNfu5QWlvfD841eFjG9/+XaCOorQtuelMAjXaI7EPABuoWnzlzJmXy5Ml1s2bNem7mzJmjxo8fH7J3715y//79yMvLQ3V19X1R/VdVVeHw4cPNJsZarRbe3t5iPz8/SUlJCfcnV9IncL8TBOFhs9lker2+WapmDw8PeHl5oayszKDVaq2s6voewOmizQbUbglsNhsVFhbmNW7cuAGnTp1qtkSTJEn069cP06ZNw+OPP055enoaq6ur627fvl13+fJlnUKh0KtUKkNlZaXOaDRaPvnkk74EQUS0uAP3B9yHgbKbJxDc54674FitVqVcLqd8fX1JVznT1Wo18vLy0LFjx2CpVAqDwcC1n3ZFTrm/UWhMkPjhpbjtbySd6tevX2xpaalfVlaWy44LBAL4+PhAp9MZbTabM7OCJmEymSCXy4UCgYBLQly105man/vbwwS+pJe/cXB2/xw2GKtWrZIKBAI/hUIhcGcWIpPJEBISAg8PD7fPvdVqRU1NDdG5c2dhQEBAnVKpLEZDVIr7aU9DgdlwGcGQVBUaUk+7lPTzyKHDH1xIW9nf6iWqvM+NymVP4dfpTNXOK8v0d17RgVtVNUk0TScw8z1AEPBT1em619TUeAGo5dZLM4lQHMaBE7ME/rhowwNEG0FtXTQKUcGq+jlkiX0YbLCnKszJybk+b968/x49evTmSy+99NTkyZO7TZo0KfD69evilJQUZGRkID8/H1VVVdDr9fcktInVakVzUoyyUKvVkMlk0sDAQDbOEl+dz18YAM7EZDKZvAwGg49Go3GZYtAdQkND4ePjA4VCoTebzbZWsAV1BmcTFgGAlkgkLV6wKYqioqOjA7t37979k08+aVYZAoEAEydOxGeffQaz2az6448/So8dO1aWnZ2tKCsrq7XZbFzvdJNMJiMNBkPnVnLuuh9wIFZselCutIbzmbZarWV+fn76oKAguSuCCgAZGRkYPnx4aExMTABPA1BfFhov5gTvHWg8vvmEyVl5xFNPPZW4f/9+1NXVuWyjr68vAgICoFKptCaTycIp545hz1TkjMTxiSj/M78upyrghwhcCRifcDjt67Vr1zwnTZrUvrS0lHQXbs/T0xOBgYH1dqiuYDQakZeXh8cff9wjMDCwTqlU3gZDDHVoCF12P0CDWW/YsG1sG1gzFoJo8Gqvv0bs2gU4Eke+xsJ+bkNlDaSvkamEE1LroAXhSi65dfL+DwB0rK9nTqpcelSjNyWI7WFrBQIS1XX6QTdqtBFgktDwpbzs9eBvXtg2kITrOOZtuM9oI6itCwd7FzSe0LmLEktQWbVT1eHDh48cPnz4xqOPPtp92LBhPQcPHhw/ffr0UJFI5F1VVSUtLCxEcXExcnJykJOTA4VCgdLS0oci7FBZWRkEAoFXcHCwNxwXZmeTQiMoFIoAmUzmf/v27WaFbomJiYFEIrHW1tZq76Fhu7P7CQAt3jTQNA2BQEB069Yt2GAwBLEZwe4Wjz76KJYtW0bl5+eXvvPOO1eysrJKwEhNWM90No+9CYDRw8ODlEql2v9Dk7GDtHLp0qX0kiVL+GOsXuqyaNGiIl9fX21YWJjcXZ7yI0eOYP78+SEjR47scenSpQtgnkk2CL4z6SL33Zn0lAt3xI8eMWJEJ5vN9uRff/3lVmITEBCAoKAgpKenq/V6PTcBxh3DbDbD29tbQJIkP6Uutz+A43PrTJp01+T4PsIZAeGSVKfS7cDAwKCAgIDwrKwst5vkgIAA+Pv70x4eHoSvry9cmWVYLBZkZGTA29vbs1evXtLs7OxqMKSpDgw5vJ9gnaKsaDAzsNqPuZKGOlOB19ua8mxP68GxA3ewTWXnGL5Uk3vMFaG1f3ZQuwcGBtb9fOHaLaXWADEYgkoSBMwWW0eD0dqZpukbBEHYWNLJ2p9y67V/d7C5dbJ2t+EBoY2g3js42MbBPlk+//zz4ri4OD+FQmHctGlTLRjSwE4eNgC21NTUmtTU1Ovr168Pj4+Pj+jdu3dU586dQ2NjYwO6desWMH78eLnJZJJoNBpRbm4uMjIycOXKFVy9ehVNOVncK+Tk5ECr1Xp27do1BEz4G/6iwF0QGqnXpFJpJEVRATk5Oc2qPyIiAlarVVtQUFBDEITtHqn3WTSSqLXUS5eiKAiFQrJ///6hSqVSVFZWdtdlSKVSTJw4ETabTf2vf/0r/fr163lgMjAp0bAw6sCRoJIkKRSJRK5jMD2c4Koe+VJKh43QzZs3qwBYfH193RZ48+ZNHDlyhEhKShq0YcOGn2tqaqrBEFS2LnZxdJbm09nGhS8t5T8P9eNn1qxZT5eWlkYdPHjQbRvlcjnkcjmKi4u1FovFjIZ5g6Zp2ioUCpuMwqHVahEeHi6RyWQijUbjSgLMBbet/NShDxMI3menWcbgXDJMAUCfPn262my2oIKCArfSs7i4OHh6ehq8vLzIDh06eFy9etXlfwsKCqBQKGRPPfVU+O7du41oSABxvwkq4BhT2KkHP2dz77B28Uki4Tw9aT2xcyIkoLn/ZesD537wyCgrTeXaotL8ekK8vXKyCWUxRdERBMkURxMIKKhQDULXmP1gNuROow7w4cpkoQ0PDm0EtfXhsFMEZ/Hs2bOn76hRo97o1KnTEJvNpoyMjPx54cKF7EPE7m5Z6ZZerVarUlNTC1JTU30A+Pj6+vpFR0cHhoaG+sfHxwd07do1MDo6OmjgwIF+BEH4ZWVlEd9//z0OHDjQLCmkQCAASZLNkgYWFBQgPz+fGDx4cKy/v7+PSqUqQ2MJjVPV2tdffy0JDg4ekJ+f71VeXn7XdQNAp06doFAoNCUlJarQ0FDbnQTbbgH4UiWaJMkWTWo0TdMkSRKhoaEBpaWlbuN2ukJAQAC6d+9Op6WlVd64caMIQBWYHPYVYIgqq95nVXtmACKxWGy6x4S+NeFMkgc4LoAUu8hcvXrVZLFYzF5eXk0W/PPPPyMpKanL6NGje+7atasADYHwXUlMnZqrwDnhcyZBxciRI/1Hjx79zKZNm8im0rFKpVIIhULKYDA4pN6dNWsWTdO0USwWN5mFrba2Fj4+PjJPT08Jp/3OJKd8YsqFK6nqgwR3w0jyPlNwHmbK4Zx27doNvHz5spe7FNQEQaBPnz6oqKhQm0wmQbdu3Tz27t3rktDevn0b586dEw4bNiwhLi4uODc3txAN87yrfnDbB853ODnmzISBXx5/PHI3G9yy+dJRAq6lq40cpDgS00Zqek6ZTh2h+FJWfl/5gh72vMAAz2seEtE1s9kSISQFIAhAQBKk1mjqkVNZ2w5AAbcuV23hwj5/tDlJPQRoC9Tf+mg0qbAPw/Tp0/u/+OKLczIyMkZqtdop8+bN+2bPnj3vr1y5MhLMhKUGs8NWgCEVZQCKARQCyFGr1deuXLmScvDgwb/Wrl27/1//+tdvM2fO/Omtt976dceOHYfbt29/66uvvrI+99xzzWq4XC5Ht27dEBgYeNfnajQanDp1CgkJCV369+8fbe87q0Z0taDRAGC1WmOjoqIGHz16lFQoFHddt5eXF3r16oWioiKFRqPRikQi6z0kqPxJvdUWaYIg4OnpKddqtc0y2/Dw8ICnpyel0WhqaZpWoGH8lAAoBTOmqsFIVFUAVAqFQkdR1P2PbdZysGPKbUDtnJwcQ3l5+dVhw4Y1WeC5c+dw6NAh6bvvvpsUERERCoZIsIzPIdsNXC9cXNLDnwsakdl58+a9UlVV1XvHjh1Ntq9fv36gKKqmtLS0xt42KwDbrFmzYLVadWwYMXdQKBTw8vLy9PDwkLj4C388c9cIrtStvj8Gg8ECu8PaAwTbHpL3HXDsE/84AQCff/55XN++fQefOHFCWFVV5bKSkJAQPProo7h69Wp5ZmZmxaBBgxAQEODy/3q9Hvv27YO/v3/8K6+8MggN44lLkLkvFpSL35vzouAoNeWbPzQC1/6U850N0E/xiB0r1XR5nv0/Dj4azmxcmY+NnKnq7xPNj5ATFKRq7yv/m6JoA1uwkCRhslh6FCtUCRwbWYJXjst+c9rVRk4fMNoIaiuDaJymrX6QJyQktK+pqfH84osvMH36dHz88ccR/fv3/2DatGkbt2/fnjRv3rxgMBIuFRgSwRLVEvurCAxZLQSQp9frM4uLiy8eP378+IoVK/a89tprO4qKiq7Mnj0bwcHBd912qVSKwYMHo2vXrs3q+59//gmNRhPy2muvPenp6eljvw5COEpOHSbjxYsXk8OHD3/29u3bnf78889mSX67du2KqKgopKSklGq1Wp1QKLQ4s2dqZTgjIS0GSZJCq9XarEgGVqsVVquV9PDwsILZ6FSDkaIq0aBaZFX8ZgDUW2+9ZaJp2tYaUQjuExqRC95iw3W0IAAYfv7554NDhgxBu3bt3BZcV1eHlStXon379gPefvvtiQCk9p+cSRAJNA635GzRc0lEFixY0HPYsGFvfv3119L09HS3bZNIJBg8eDCys7NLr1+/XoEGCSqVn59PCQQChY+PDy2TydyWc/XqVcjlcv/AwECurThX0+Fs/uKneiU5x9G3b18hAMkDHkPc59HZw8MlHI3MM5588snxarW668GDB93OQYmJiYiPjzcfOXLk1v79+2/07NlT36VLF7cNO3v2LP744w+P6dOnPz1o0KBe9vYJ0JhAu3rn95H9jftyRsxpAPj9998HnThx4sVly5bFgDcGXcBVrFI4OcYloCTRkB3K1Tn8zQLfCape0slV7aPx/QMAJBCEOdjb8xpF01puXRaK9tEaTe3Y/3LLcRZZgFsmpw9teMBoI6itjEY7PMeBTwGwEQQBhUKBNWvWYPr06bK0tLRR48ePX/v2229v2b9//8zZs2dHoUGiWgWgHIwErMz+KgFwGw2ENQ/A1evXrx/Pzc29ERUV1SwpqFAoRN++ffHYY481K6PUzZs3sXXrVmL06NGjk5OTh4KZENiYFcjCywAAIABJREFUf04JXXh4+Khu3bq9tnnzZvH169fvuk4AePLJJyEUCutSUlLKwGQBsggEgns1wThT6bZOwUzIJKq56V5ra2tRUlJCxMbGevn4+OjAjB3W9tSIhtie9dKUbt26DUxISEhsrmnFA4DDgmJ3kHKmwmSPUcePH0+XSqWFEydObLLwtLQ0fPPNN8KpU6e+8sYbb7yABi1AUw8ElxixhI8lcnwCSM+ePTt+9uzZXx49erTDzp07m2xX7969ERsba0tJSSlRKpWsDaMFgC0rK4tWq9UlXl5eVFMENT09HXV1deLRo0fHcfrmTGLEvYb8TUH9/9auXdt7/vz571VUVETevHmzyX7cBzgbD+w7V6JI2N/pDz/88JHExMSpP/30k4e7MF8SiQSjR4+GyWSqPXv2bNHx48evCIXC6jFjxriVXGu1WnzzzTfQ6XRd169fP7tLly4d4GiD6irSiYOkmtM/ft8o3jEKAP38888H/f333wseffTRLZ07d/52wIABC8LDw/15zXOQXPKJmTOiyl/j+Har9t/riSGvTJqti62bXwf3xd188ohv/XFfuUeFSCiotHEEEgIQQpVGO6BQrfZ20n6CWz7XvpX9HW14KNBGUFsfziZ6AEwgdnu2JQCMl+exY8fw2muvYebMmSEpKSlj+/Tps+rjjz/elZubu+LUqVPPJCcntwezEGnBSMLKwNjV5NhftwAUREVFaRcvXtxz/PjxfVJSUlBQUHDXDReJROjSpQvGjBnTpLTJGSiKwoYNG/D777/7LVq0aM4XX3wxI9hRlFt/LaZOnep94cKFf0ybNu3zX3/9NXrTpk3Nkp4GBQVhzJgxuHTpUlFeXl45AL1YLDaRJHkv4gzy1bv1ExlFUS0mqzRN0waDwSCTySCVSps+gYfa2locOXIEPXv2jP34448f8/LykoAhqDrwvNHXrVsXe+HChQ9ffPHFdUePHo1Zv359S5t/P1FPNpYsWeLwvHEXS/bYmTNnck6ePLnvtddeQ1BQUJOFr1u3Dr/88kvIJ5988ubo0aN7gnn+AMf7z1XBsr85kFA4JxCgaZp4//333ykrKxv6zjvvwJ1KGWCI0Ysvvoja2trKw4cP54PZhNXboS5dupT6448/botEInVsbKzbssrLy3Hs2DE899xz/ePi4kLsbeSS8Hri5qRv9f3+9NNPQ2pqapJnzJix5caNG1Nef/11ycmTJ93W3Yqg7XFgGx2H840w+5lrd0kBQHJycvsFCxZ8kJ6envDf//7XbSa/zp07Y8SIEThy5EhBcXGxIicnJ/vMmTOpL774oi06Otptgy9fvozFixeTMTExI7du3fpRfHx8ZzhKpl1JCrnH+JJffr9oAPSsWbNkhw4demHdunXbExISFq5YsSL+p59+CvDz8xvg4+Pjxym7fv7iZ2QDGhM6bn/4Ek8eyaw3JXDi4e9ATF1ECGgEPplk6wWAQD95jrdMnGrlrB+kgCDUBmMX2ggfXtnOpLZOkwa0SVEfPNqcpO4N+Ooy9kF3OuAVCgV++eUXHD16FD169PAdOXLkwCeffLJPp06d1CtXrix89dVXb9TU1OTQNF0WFhamlMlkJrvnqEwsFgeJxeKYiIiIvuHh4T32798ftGzZsmZ5lUdHRyMkJMQaHBxMDhkyhNy1a9ddl6FSqfDuu+9CrVbHvvrqq0uGDRs2rLKy8nRMTEye3Vvc4/bt23FxcXFDfXx8Bvzwww9+y5cvh7sYle4wevRoxMTEmDZs2JCrVqurwSzeEAqF94KgspNjI7s8b29vpyfcKUiSJGw2G11eXq7y9/eHl5cXtFpt0ydyG0JR2L9/PxITEz1ffvnl54YMGRJVWFh4Niws7EZYWJgaAAQCQUBFRcUj8fHxTyoUii7ffPONdNOmTXDnGPKQol5Cw3WgcOLkQQDQffPNNz/v3bt3UlJSUti3337rtuDa2lqsXr0affr0SVi/fv2yhQsXfrpz586TnHobmRlw4I604tNPPw3Jzs5+JyIiYuqcOXP+X3tfHh5Fkff/6Z4jk8l9AkGICkROUU5BkMUFBBRdNahcK4ugyIIn/vYVjySueKGuCILiLuDNC7ILClkWWEX0RU7DEQj3mQQScmcySebo/v0xXTPV1dWTiEH2fZ/6PM88M9NdXfWtb1V961PfOlrKz89vMqN9+vTBb37zG+WLL744dvDgwWLojwvzA8D+/ftLbTbbsZtuuilpzZo1pnEpioIlS5Zg1KhRGdnZ2Xc/+uijh2tqasqh9yyyA7Gg3dq4cWOq1Wod2bVr1/Eul2vQ559/HvXhhx/ixIkTl/3cSEmSYLFYYLVaERERQY7pI0clsZ5F3tuQdDbh4Ycf7vzqq6/mlJaW3vVf//Vf8rFjx0zTjoiIwLhx4+BwOKo+/fTTwwjMSlQvXbp0zYoVK/qNGzcu/dVXXzXdYKqqKlauXAmr1Wp9/fXXMzds2BD3wQcfzHv99de3MEHNNufwpv11hPaOO+5Ivuuuu35z++23P+B0On+zYcOGpPfeew8//vgjpk6dikGDBsmqqpK1xzZop8YAUHNycti2Q+Sm137S0/fBNamq/hWi5DfX/nLIqI5000SRIrDsuao6Ga+Oj69NiHZWVLr0g4sGrz+prM6dhsBMI5GP1afOa0qT0ubs/Be4vBAEtWXBdlY/a6qgqqoKW7duxY4dO7Bo0SJ7jx49Unv06JHau3fv3hkZGb6UlBRvRESE32q1qoMHD1b9fr9cW1truXDhgm3Dhg32rVu3St9//z0uZbo2IiICQ4YMQWVlZWV9fb1v/Pjxrb7//nv53LlzPzuuwsJCPPPMM9i4cWP8nXfeeXvfvn2HxcTEeCIiIvx+v19OSUmJyM3Njfjqq6+k77777pKPxmrTpg0mT56MgoKCs998881JaAdQWywWm8ViuZxrUA1vDnK5XL9oWkiSJPh8PvXHH38sfuCBB5TWrVvLl1KOFRUVeOmll7Bjx47Yu+6669aePXsOSkhI8DgcDr8kSXC5XNaampqI119/3bZhwwbs37//V32tbguA27Gw97TOJThNumnTpoMbN278x8MPPzxzxYoVaGoz3qlTpzBz5kz5tddeu3XJkiVXjxo1anlBQcHHc+fOJQ2Ct2aTNy2uAMDGjRujvF7v2FtuuWV6aWnpjdOmTbN//fXXTWbW4XAgMzMTtbW1JWvWrDmG0GkMboROY0B+fn75Tz/99NNNN910U7jXugLAzp078cYbb1iys7MznU6n54UXXng/Pz//EIxrTQEAs2bNihg2bFjXnj17jk5ISBhaU1NzY25ubsLy5culHTt2/Gr1x+/3o7KyEhkZGVctWbJk/Lp166JWrly56cknn6zIyclhCRHv7V4AgLFjx0YPHz78rvHjxz926tSp3k888YTlu+++C5t2nz59MG7cOHXNmjUnduzYcRIBgtq4bt26bVu2bFn/xBNPTF2/fr19z549pnH4fD589tlnKCkpsWVnZ4988cUXMwYNGrRiyZIlK77++uvDCC2/4cHMmNmffPLJ66ZNmzaqTZs2w+rr62/Yvn178rJly6StW7cGbavdbockSTKAaABOTTfE5SirIeZHk9MgKTXxbJLrNHlknTIG4kdACCO7m5980xuzGB2wJNb/z7zDO09JKFJUta0M7S2CfqXD+Yrqfqqq7tT0Sm+Yol8OECSigpT+Z0EQ1JYFr2LT08DNIjGNjY0oKipCUVERNm3aBKfTaYmPj7dERkZGWK1WkDWKfr8fXq8XLpcL5eXl8Hg8l+zF6Ny5M+666y71q6++OrFv377z8+fPHzplypT4uXPnXtKbnWpqavD3v/8d//rXv6Tk5GSH0+l0WCwW+P1+uFwulJWVob6+/hd5XSZPnoxu3brVT58+/VBJSckFBDoNl9VqjbiMa1AB45ow9Zce1E/Kc+/evSUTJkw4/5vf/KZtXl7eJcVVVVWFlStXIjc3V0pOTo6IjIyMoJeVVFZWory8/JLK9T8AdLkGOxpAd8A2b51ezQcffLBm9erVd7z44otXz549G+HeFgQAe/bswYMPPihPnDix49SpU7NGjBgxtGPHjkvnzp27dcKECcUUKeJNJ6uqqkqLFi2KPnfu3MBbb711YkVFxd0ffPBB9JIlS3D8+PEmN8JJkoT77rsPd955p2/x4sXHCgoKziKwZKMGDEEF0LB58+Zts2fPfmjw4MERmzZtMo1XURQsWrQIfr8/7vHHH5+6cePGm8vKyrZHR0cfkySpzGKx1FutVllRlDiXy5Wempra2+l0dj5x4kSrtWvX2leuXIm8vLxf/QUhjY2NWLhwIUpLS2N/97vfjXj99dcHvPDCCw+WlZVtTklJ+TEjI+NsQ0PDxT179lRnZ2cHK/df/vIX2759++ISExPbz5gxo09ycvIYWZYHfvnll7FvvPEGCgoKwtqh1NRUPP300ygtLS1ZsGDBXkVRKhAoBxeAmmeeeeav69ev7z137tz+EyZMQHl5uWlcfr8fGzduxMGDB+XJkyd3nDRp0n/99a9/zSwvL/+fM2fO/FBYWHi4vLy8+Prrr6/asWOHm0y9A0BhYaEtNzc3XlXV1H79+rVJSUnp4XK5BrZt2/b64uLidl988YV11apV0u7du+FyuXh5skqSFI8ASSUH9evWXwL6qXDqf5B4Uu2N158ZyKn2W9ZOAAh6Wen4zUgh5UGlYSDNbeNj9u+1yMWKoraVLZImhGSpbmhMA2CRAgf2m511Kqn6Q/xlKczJIAK/HgRBbVnw1igGG57VapV/LiHz+/2ora0N+wrEX4rIyEhMmjQJUVFR1WvWrDm2a9eu/GHDhjmmTp06/IcffrBe6jvhVVWFy+X62VPVzcHNN9+MGTNmqLm5uSf/9a9/kQPpqwG45AAuhweV60UA0OTxPs2BLMs4c+ZMRUFBQcEdd9zR9t13372kdblAQPeXu978J0HVHxJOH6dDPvKGDRt2zZ49+8033njjlTNnzsS+9dZbTcZbXFyMefPmITc31/bUU0/99p577hl066237t27d++6d95551+LFi069dFHH9XddNNNhBDJq1atcrRr1y5l/fr1twwYMODOSZMmDdmyZUv8n//8Z2zdurXZg7JbbrkFf/rTn9TNmzcf+fDDD/cjcLpHFQIEtR4hgiEBUDZs2LDt0Ucf3fXAAw8M+ve//x2WADc2NmLBggX4/vvvbXfcccf1AwcOvL5t27ZqTEyMarFYVL/fj/r6ermsrAybNm2Stm/fjl27duHEiROXXCdbAqdPn8a8efOwfPlyecCAAXHDhg27afDgwf0zMzPdsiwXOhyO8yNHjqxUVdUN7fzTWbNmOX0+X6Lf77+2vLz8qvXr10tffPEFvvnmmyaXQjkcDjz66KMYPHhww8yZM/cdP378DAJ2phKBAbFUUFBQ8PLLL89buHDhojlz5qQ+99xzYT3YqqqisLAQc+fOxcqVK62jR4/uPHLkyM7du3ef3KdPn/MOh+OcJEmVw4cPr/V4PF7tyDxLQkJC1MSJE+Pdbneb+vr6tpWVlc68vDzp3//+N3bv3o0jR46ELRtVVa2KosQDiNFkb6Tuma0jZaLgekR1nkktIL0kQPfGKFAEk/VislP8tCwUqQx6V4PEUrZ6I6xWX4MnNOiWZMDt8cSWAxGgNqVxvLWsDlQ6fYErB0FQLw8MHjYg4L3Sph3/ozB69GhMmDBBWb58+dFdu3adAVD81ltvrRo4cGDSW2+91W/8+PG41B32lwMdO3bE22+/jbNnz55/8cUXd7rd7vMIdNxVAOpsNpvjMo2A2fWF5LtFDJnFYpHPnz9fu3r16p1vv/320Ntuu82Sm5vbElH/X0OQlEmBkw8MGztMnmlYvHjxf99www0dnnzyySe+//57aefOnU0npqrIz8/HQw89hDfffDPi/vvv73/vvff2u+WWW2ZPmjTpLIB91dXVp71er8disbS57bbbuquqel1NTU3C5s2bbU8++SS2bdv2s16AkZaWhlmzZqG0tLQoOzt7V3V1dSECpKgCoVMZCBuRAKg7d+4sXLly5T8efPDBAZ999pnlm2++aTJfeXl5yMvLg7YxT7JarUET5fP54PV6UVNT0ySpliQJVqv1F7/ytzlQVRWlpaVYu3Yt1q5di9jYWCkjIyPqxhtvvK5du3bXxcfHw+FwwGKxQFEU1NfXo7y8HIcPH8bOnTtx5syZZh3jZrFYMG7cOMycOdO/bNmywytXrjyE0JvZ6KUW0tKlSzffcMMNSx5//PGnqqqqnPPmzQtLUkk+yGurP/jgA7Rt29bSs2fPqzIyMq5KSkpCVFQUbDYbZFmGz+eD2+1GZWUlioqKkJeXh1OnTqG6urrZAwZJkqyyLMcgMMXfAGqdLk3YeCSR9ZYybc7wVilQNpHxWgbtZZilA2w6Eu19JWnSntXyCndFfGREQXGjtz/JlyxJaPD4byk6V5IOIJ/ODysb+c16VoUn9cpCENSWBUtedNBGwv9Ro7J+/fohJycHu3fvPvv222/nIXD2qvvIkSNnn3322cXLli1LfOeddzpOmzbN9J3TvybatWuHd955B506dXLdfffde86dO3cGgY67HJpnSZZlH5nSvkzgTSH/YlgsFhkANm/evKukpGT3448/3v/bb7/9xa9RbQ6ioqLgdrsv+0aXFgK9G9dwk+pceTMargULFqwaOHBgvw8++ODm3//+9zhw4ECzElVVFYcOHUJWVhYWLVokde3aNa5Lly49evbs2SM9PR02mw0lJSU4cOAA9u/fj+PHj+PIkSM/O3PJycl48cUX0bt3b9cTTzxx8Pz58+cQIKalCNT1OgR28LNLDLyLFy9eN2HChLuef/75W/bs2dPs9d1ut/uSp+zj4uIwYsQIVFVVIdzSgsuFmpoa7N69G7t3726xOGVZxj333IOcnBzlq6++Op6Tk7NDVVXyoouLCHhRiRdbAuB77LHHlkdFRbV58cUXJzgcDsdrr73W7BmM+vp6HD9+HMePH2+xPHBgUVXViYBHkW4bqmr0oJKpeHoAHiRsnLWiuoE6j9Dy1pzSv5m0dWtQ2TRoTywADL3xmqrVOw9+X1jh+h2ARO05eLzexEp3QwotB0mDJsisDE0RZ4FfB+KYqZYFb0dvEIqiSFrD+xVFMsfgwYOxZMkSuN3uC08//fS2ixcvko6wDID766+/3jht2rRXBgwYcPpvf/sbrrvuuisqb4cOHfD+++9j2LBhjU8++eSe7777Ll+TtVT7JtNWfvzMDWo/A6zHtEXTcTgc1hMnTlyYP3/+6hEjRrj/+Mc/tmT0XIwZMwZTpkzBZSb1LQXdhiTtHFSgic0c2scHQMrPz99///33Z0VHR+/59NNP0aNHj58tRElJCb799lssWrQIjzzyCEaNGoURI0Zg/PjxePXVV7F+/fpLIqdJSUn485//jDFjxrifffbZ3WvXrs1DgBCVQF/H6QXEwWUMhw8fPj179uyFQ4YMKX3ppZcQEWH2wqiWwTXXXINXXnkFy5YtQ/fu3S9rWr8WrFYrJk6ciPnz56vbtm07NXv27B/r6uqKEXp1cCUC3lOyjpOcJFD26KOPvvm3v/1t+f/7f/+vZuHChejQocMVyweN+vp6yLJslWXZBv1LAgDovZlUGzI4VGjiSE+5s+kRAsh6LKlpe9N42bC015S+zciACNmmShJ17jgAnwpLo8fn4OWVR07p5QZs3gV+fQiC2vIgBMZwREtkZKQsSdKv4hELh6ioKEyZMgUff/wx6urqLjz00EPbjh49ehIBLyR581A1AO8//vGPdVOmTHm1V69eZ1asWIHBgwdfEZlvuukmfPLJJ+jXr59r+vTpOz/66KPdCHTYJZrMVdDO+3Q4HJfTE8ju2m7RhDSvn/rhhx9u+uKLLz55+eWX/c05YP5SYLVaMW3aNCxbtgyDBw/+37JpirchKfBHOyCc6vx0R+IgQCJ8AKRDhw7tyszMzI6IiNi3bNkyXH/99b9MKFX9xWsz09LS8Nxzz6nDhw93zZ49e9eKFSt+QqAtkjpOvKeNMJ6hGfQwLV++fOO77777zmOPPVb33HPPITo6+hfJxYPD4cDo0aOxYsUKTJ8+vaExgBZPh4YkSZedcCclJWHOnDl45513lM2bN5+cNWvW9srKynMI6P8CAjanGtQRXxp8ABSPx1Mxffr0hc8+++z8MWPGFH399dd44IEHfvExdJcKq9WKLl264Oabb4bNZoPP5zP0SzTYKW5ARyZ55JLu74KEj/GA6nbMs2SUJrJmxBGhdae6ASn1H5EOS6NFVhVFvwErorHB24pOi07ThJgK/IdAENSWBXmNmq5hkpsnT56sa9OmTURmZibS09OviIB9+vTBggULMH/+fN+ePXtOjhs37rsDBw4cRcAAFyM0feVCYJ2SumrVqnUTJkyYa7fb8/7xj39gzpw5SEtL+1Xkbd26NZ5++mmsWbMGERERpZmZmd8vX758B0Jv2CpGoNMgHg1EREQov+Tg/GYuE9btdP2Zz5qmqaqqAkB2u901zz777PtHjx5d+/HHH+O+++67pHjNcNVVV+Gll17Cu+++qzidzsaampoWjR/45bowga5ctYP6uQf0s9EidLSOB4C8b9++/7nnnnuy4uLi9n322WcYNmzYJcvcEhg6dChmzJjhW7RoUf4XX3yxC4G2eF77XAR/7SkBTVg9c+bM+fi9995b+MILL1QvWrQIGRkZLSbnjTfeiIULF+Kzzz5TKyoqzjz//PP7CgsL65p6+xw5NcFisXCVTE4lMYPFYsGMGTPw1FNPXRbP5ODBg7F06VLMmTPH8+mnnxY8+uij31+8ePEUAjbmHAIDhQoEBgke6JdY+BEgrQ0AKt98883PMzMzX3a5XNuWLVvWsHTpUowePRoJCQnGhC8DOnbsiMzMTCxatAhfffUV7rrrrtr169fnFxUVVcPYRrj9FQmnMrvo1fCvNNV5VdXQm6W4rxANt36cbtMm61y1KAJxREdGlNos1kraOSFLiK1uaBisqqqdJcn66MRbpP4TIdagtix00/dUw1YlSVLnzZu38/rrr1/19ttv3z5x4sSkr7/+Glu2bMHevXtRVVV1+YSSJPTv3x+ZmZnIzMyEoihVzz///JG//e1vBS6XqxCBzq8QgY6wAiFySl6JKf/zn//ccPLkyZJnn312UnZ29m/vuOOOhKVLlyI3NxfFxcUtLnOrVq0wfPhwTJs2DT179mxYt25d4TPPPLPn/PnzpxHwKhVpMtPrwbwAYLPZJEmS5Lq6uktKu7q6GpIGzm3aG0cbVxmAdCm75lXttANZliVZliUtbsuZM2fO3nvvva9/8skn9k8++eSOTp06YfHixaioqLiEXAXgdDoxcuRIPPXUU8jIyHC/+eabR4cNG9YKQJtLiY/UW5qcOJ1OyWazSW63+5JOEaiuroaqqpLFYpHI0WQMdOvigOBaVLaTIWFk6A+h9yFQX6IPHTq07Z577nn5r3/969MrV67s//bbb0tvvfXWFZnlOHDgAHbs2CH17NnTmZCQUFdZWUnaJHllLanj7GY92pPkA2Cpr6+vmTlz5vtFRUXurKysR/r27Zs2f/58rFu3DoWFhZckX+/evZGZmYlx48bBarVW/+Uvfzk5b968vA4dOlhnzpx5HTnJgtdsVFWF1WqF1Wol60hUACqRJSYmxmKxWCykHrFxqKqKNm3a4IknnkD79u3V8ePHS+vXr0dubi727Nlzyd5/u92O/v3744EHHsB9992H0tLSsmnTphV8/vnnBX6//zwCXtNzCA0SamBc/0vKgJBUCYD0zTffbBk9enThpEmTbv/jH/84bNWqVR1++OEH6auvvsK2bduQn5/fopvKMjIy0KtXL9x8880YNGgQ2rVr5ykpKanatGnT+a+//vrwd999l+d2u6ugX5YgAVDYne1UtLpd96CIJ+uBhN7DyoaXmbWkQd2x60lJmuxGLY4swWsA4IM1P9JmP1DT0NBRW+sKCRLcXm98VWBjmId6hpZZJyuzAUt4VK8gBEFtefAaEQBIx44dOzlx4sTZd99997cjR44c/dBDD/V55JFH0g8fPizv3LkTP/74I44ePYrz58+jsrLyFwkRFxeH9PR09OnTB8OHD8fAgQNhsVhq1qxZc/bDDz88tm/fvtMITBkSzynZAEB3hPQrD6UjR47smzx5csX69esPzJo1a/Tbb7/dffr06VHr1q3D1q1bcfjw4V9EVtu0aYNOnTph6NChGDVqFK699lrPwYMHSyZPnnx0/fr1J7xebwkC5JR4Ti+As2nE5/P5nE6npXPnzujTpw+sVmuzPWN+vx+9e/eG0+m0at5MdpqY/k2MmmK3271RUVG2Hj164MyZMz87zW7dusFut8uqqpLDur0A5GPHjh3PzMx86c9//nPlyy+//Lvhw4fHLFq0CFu2bGnyFZk0rrrqKgwZMgT33XcfBg4cqBw8ePDCxIkT87ds2XJi6NChozp37ox+/foBQLPXovr9fvTv3x9RUVEW7YxfFQBcLpe3vr5eTk9Px5AhQ+B2u5sdp9frxQ033IDExESoqsp7pSUh8Lq1wHTnSnUu9GCCfdaLwA7s6AMHDmy/7777ch577LGxzzzzzNh27drFLFiwAM15y1NLYv/+/Xj55ZetK1eu7Hru3LkDzz///BaEyCnx2hHw6iP570HAtrteffXVT/Ly8sqeeeaZ++fPn99r+vTp0Zs2bcJ3332H48ePo6ysDBUVFYZd7U6nEwkJCWjdujVuuOEG3HrrrRg8eDBkWa5dv379uffff/9YXl7eGQAlPp/PWltbWzZr1qz4AQMGwOFwGOq+z+dDmzZt4HQ61SNHjlQgQJCCI48jR464HnjgAenDDz9EVVUVIiIidHEoioKUlBQoilL//PPPH8zIyLBPnz693dSpUxN2796Nb7/9Fnv27EFAnHjNAAAgAElEQVRxcTEqKytNd7cnJCQE89W7d28MGzYMffv2hc/nq1q6dOmZDz/88PDx48cLEVruROxMGQLklEzt06SJ1EWyhIRs35fKysqO/eUvf/l43bp1eXfffffAO++884asrKz0urq6+AMHDuDAgQPYu3cvTp8+jYqKCtTW1qKmpsb0BABZlhEXF4fY2FgkJibi2muvRa9evXDdddehS5cuiIuLaygvL6/Zs2dP2euvv178ww8/XCgsLLzA5IHdZGdYz8muw6T/EzKnUmeHgqqPHJJLe2KD3lDWM0uH521YkkJvraLbfjCsR66vsdstlUq9CqskB6Vq9PoivW43WYeq659ZObX4dUdkCVw5CHd2C4KdrqBHedR6GQlAdFxcXMeuXbveNHTo0H59+/bt3L1793ZOpzOlsrLSWlxcjIKCApw8eRIlJSXBTqSiogLV1dVoaGiAqqqIiIhAVFQUEhMTkZycjMTERKSlpeGaa65Bt27dkJ6ejtjY2IZz585Vbtiw4Xxubm7hzp07ifGt1r4vIDR1Rc5XpMkpEFhU7wAQhcAZerHJycmdf/vb3/a7//77+wwYMOA6v9+fUlhYiMOHD+PQoUM4d+4cSkpKcPHiRVRWVqK2thaNjY2w2+2IjY1FfHw8WrVqhZSUFKSlpaFbt27o3Lkz0tLSVACun3766eKXX355etOmTWfLyspKOfJeRGDdaT1CB5arADBq1KiIF154Yf6NN9445cKFC1bNu0YMatj1qaqqIjExETt37jw4efLkRRcuXMhDwFtbDu01qjB68JQhQ4Ykv/fee++np6f/7uLFi7TXIBhvOCQlJWHdunXbH3nkkUV1dXWHtDzWIuD9s1qt1mt+//vf3zFjxozb09PTux05ciTi22+/xYEDB3Dy5EkUFhaiuroaiqIgMjISKSkpaNOmDdLT03HjjTdi0KBBuOaaa5SCgoKS//7v/z69cuXKExcvXiy0Wq3VTz/9dI/s7Oy7S0tLI30+n0p7jpujq6KiouI//OEP7+3evXszAoOHoiVLlvzpwQcfnFNWVhbd2NioSJIkKYoiNaV/v9+P5ORknDlzpujhhx/+YNeuXT8g4MG6iIBnn51W5G2MIh1aMAx1XUHo3eUyAjuaowFEAmg9bdq0zGeffXZsfX19+urVq/Hpp5/i6NGjpvK2NGRZxksvvYSpU6eemzJlSk5ubu5XCNRvN/TEyAzEzlgRyFMUgJiEhISOY8aM+c2YMWP69+3bt5Pdbm9VVlYml5aWoqSkBKWlpairq0NERATi4+ORkpKClJQUJCUlITo6urG4uLhy69atJX//+9/P/vjjj+dUVa1EoE2WWiyWinvvvbfr2LFj+8bFxUXW19dHKori9Pv9kQBsqqrKFovF7/F4vLt27TqzcOHCtY2NjYcQ8kq6e/Tocd2sWbMe7NSp07UejyeqoaEh1u/3RymKEqHlBR6Px79u3brCzz///LDFYmm4+eab44cNG9Z+6NCh6ddee21br9cbV15eHrSXhKgqioKoqCgkJCQgNTUVKSkpSEhIgM1mqztx4kTlpk2bzufm5p7bu3dvEUJnzZKNaaUIHe1Fdu0HX1tNNulprwpFdna2lJOTIyFQtyIR8NzFIlDHkpKTk9P79+/fdeDAgRm9e/du36FDh9SoqKhEt9ttI3aysrISVVVVcLlcqKurg6qqsNvtiIqKQlxcHBITE4NE2+l0+mpra2tPnz5dc/DgwYqdO3eW5eXllZw4caJKVVXibHBpebiIkCOilqpTvDZpcLQwm5bUwCU92aS8pME4yLMs8aO9qoyHVjVJjysXCbu7uNi570jxwvOVtX+wa456RVURYbX8c/yQG/7QKjq6hM4L0z+zb9AyfV2rwK8HQVBbELxF3OSaVtlJh0iIXhKAVtHR0Vd17NixfXp6ett+/fqlXXfdda3atm2bGB8fH+VwOBySJNn9fr/F6/XC4/EEp4WsVitsNhtsNhusVquqKIrP6/U2VFdXuwsLC2v37NlTvnv37ouHDh0qLywsJATUhUDHUoYA6SpDaINRIzRySgwWRawtAOwIGFrySYiKimrfvXv3Ttdff/3VgwYN6nD11Ve3Tk5Ojo2KinKqqurw+/0ykdvn88FiscButwdlVlXVU19f31BaWuo6ffp01fbt2y/+9NNP5YcOHSqrq6ur1GSuQcjAliF0SHY9Ja/Om9alS5dOv/3tb/tGRUW1rq6uTvF4PEkA4vx+vxOAVeVZZEmSZFn2NTY2urdv337o5MmT+QDOIuBFqdTS4428AQA9e/bsduutt/axWCwpNTU1KX6/P9nn88UhQO5N371qtVq9tbW1rm3btuUXFRWRNMmbsRQEOrloAAnt2rXrMmLEiJvuvPPOfh06dGgfExOT4Pf7nfX19UGvi9VqhcPhgN1uh6Io9RcvXqwpKCio/Oc//1n8ww8/FBUXF5NNZdUASiIjI+tHjRrVoW3btvEejyfK6/UmKIoSAyBSURTuLAvRlcfjqT9y5Mi5/Pz8XQ0NDcc1uS+2bds2ZcSIEX1TU1OvcrlcSfX19amqqsarqhqtqqrNTBcWi8Wvqqpn7969J/bv379XUZQzCCzlqADg1rzaEqcjBIybONj7NDklkBGo1zHaJ6lfv369Jk2adOuIESNuUhSl3erVq/HNN9/gp59++kVLcW655RbU1NRg3759YUl669at8fnnn6N9+/bf3H777U8cOXLkkCYnbx6bXc5Aw4YASYpBwOYkOhyO9C5dunTq1KlTeu/evdtfc801KYmJibGRkZERsixbVFVVPR6P3+VyeS5cuODOz8+vPHDgQOWxY8cqzp49S4iaC6HzQMmZoO7o6Gi7JEnxPp+vFYBWqqomqqoaTWRXVdXl8XhKESB9hQgQQDIoVgBExsXFtVIUJc3r9bZXFKWVLMvxauD98ZKiKF6v1+vSwtch4Km0p6amJnbp0uWqjIyMNtdff33rtm3bJsXExEQ5HA671Wq1AoDP51O9Xq+/oqKivri42HXgwIHKgoKCqqNHj1aWlpbS+SK2sQyBOkfW4wc9p6TusuSN2Prs7Gzk5OQAIZsZiUD7JeUQDyApMTExtX379q3T0tJSO3bsmJSRkZGYkpISGxsbG+l0Ou0Wi8Uqy7JMBnV+v19pbGz0V1dXN5SVldVr8tcUFRXVnj59ura6upro0k3pyKXpmLxcgPQBDQito9VNqVP5CfeqU90Mhu6GftqfRzh1OmPJKY+YsnEyywWIjNbP/2ffu6cvVk63aeucFVWF3WLZOerG6yZ1aZtylEN2WdkVVg+8PAr8OhAEtYVhRlIpr5QMvTcyBoERdiyAGFmW4xISEuJjY2PjU1NT46666qrYlJSUGKfTGel0Ou12u90qSZIsSZLk9/uhKArcbre3pqbGU11d3Xju3DnXhQsXXJWVle6Kigo3AsaIGKs6hAwVeSMNGUn7xo4d61u1apWfNSxAsKFaEer0CGmK02RPjIqKSklISEho3bp1ytVXX52YnJwcFxMT43Q4HBFWq9Wira+UPB6Pv6GhQamurvaUlZW5NZlrKysr61wulxshA0uMa4UmM3nNI33EiwKjcSWyRwJIBXAVgNYInI8XreXBDF6EOuAKBLynZGrMQ/om8MmQpMVP0mwDIEHTldkcN5mSrUXoPNdihLw2fk1eou9YAKmJiYnt09LS0rt165aelpaWGhsbG2Oz2eyqqkqKokiNjY2+qqqqxtOnT7uOHz9eWVhYWON2u8krMmsQOvSdeNM9mr6SNPkTEKijdpjbCaIrIjc5ConUOSuAFABp2icZgfoebis2WR9K5CMe8xoAjRpBZcHtLE08qOxzgOalRiC/0QDiIiIi2vbs2bPHuHHjBt1+++19HQ5Hq+PHj0tHjhxBfX09ioqKcPLkSZw/fx4VFRVwuVxB73VCQgJatWqF9u3bo0OHDoiKikJqaiqGDBmCixcvYvLkydi1a1cYFQQ2TH366aferVu3Lhw3btzLmj7YqXyJ+ebpxYqQl5iQpAQACVarNSkmJibe6XRG22y2SIvFYlMURVYURWpoaPDV1dV5XC6XB6HNP8Se1CD0YoxqhF67KiFQP5O0NGIRqFMWhKa+SX2hlxN5NPktmnyJCNSbJK1MbAitHW7UniGbxVSEBs6xERERcTExMXF2u91ps9kirFarXVVVWVEUyev1Kg0NDX6Xy0WOHDDLFyFyddo9r5aWnyVXlJ515aB5UtkyoO0m+URpnxiHwxHtcDicDofDYbPZbLIs2ywWixUBcg5VVVWfz6c2NDQo9fX1Xrfb3aDloVHTYYP2IbaTvEiA2H6iN3JMGe01bDJPvOvMkhqAT2h1/SGVpoHAcogw72UBhkEZCfP5D3lLCorLplklCyBpa59lWR3S5ep7Bne9Zg3rNeUQZG68AlcGgqBeBjCjNCA0xQ8EOkPiSSWj6ygEDJdD+47UPg7qYwNgk2XZgoDBI2tloIbWLfoRMqa0MSdGingJXAgZLGKsiHeAN7olI2kgUGds0BNVQrajqPyQ3xGa3FZNbonaYe+n0vYiYGTJdKZbk5eVuUELS17zaNh5qRFUm6bfWAQ8FuQd1GTKkFf3VUpvbgQ6Ktpb69N0xJYvnWaklmYiAuSddLCGswc1kHVrjVo61Qh0kmTgQLx+VoQGNuR1hfEIEIEYAE5Zlh1aOhYAsqIoRL9ehOpCHULEgvYOKVr8cdqHHOhtA/+0D1ZXdMfeCD1xIHJGIVTvzdafkY0mhEiXU7og3nKD/mlQddcsCA8yAnl1IDRwjLfb7WnXXnttx169enUcOXJk99atWydaLBZ7TEyMMzIyMtJisdhlWbYDoWlSVVUVRVE8DQ0NjS6Xq97j8fjLy8vr9+zZU/rggw+mnzlzpu2ECRPCHqIvyzKmTp2K1157rXT+/PnP5eTkLIfxYH6yTIFHIMh9evaDJkjkjULE7pCyptsGvR66ASGiw7ZHcr6UTYuH2ALS1sgmNdK+yfMN1DVa/1HUx47QXgl6pzwhtaTdOakPIYPETrFtj7Q5QurYfLmpfPk0+6oD4+UjutYFQYiQEZtPbBJt92lbH0HdJ3JbtGdpMkfWu5ITKehBBCGo5OOl7hFbS8o1CLZN0cST9VayutCrRfdaUgP55E3NszNS7BQ7JZvpbAF5/sejZx8sqqy+S4YsWawWRYYiqZLkvbZV0rvd26b+D6evMPMOA2Id6hWHIKgtCMZY0SNN9vVvMvRGixh2+mOH3mgRgkcIKj3iA0I77skOTdow0USV/CfrNgnR45E9roGhZCceVSIr3UEQYk3CENl5MhOC2kh9iKxuSl6v9lGzsrKQnZ1NdM1Ot0FLi+iV7gSIwTcDMd4kbWL0g0sfeEaNSpPogqRpbyJN1SRNkmd697lVi4/omXhgCMmg6wkdNztYYQcohCDQ5RgBfedoJjtdz4jspE7R8hL9E8JiFiepw17oO1ofAh4sOu1w09u6N0mpofWBChB6lzd5llo7aNHy7gRFVAEkxsbGpkRERMTKshyTkpKSkJaWFh8XF+d0Op0Ou91uk2VZ8nq9cLvd3traWk9paam7qKiozufzeTweT2N1dXXNmDFjrl26dOmYBQsWxL3yyithd3HHx8dj8eLFGDRo0I6xY8c+tn379l2afORFFLQOaD1I0HZmIzQ4lqm8kQ8ZQJIBMNtGSd0h9Ye0BZok0pttaHtA6iJNVEhbJ22clCkZTRCyaaXiIHWQ2ChiK0gdkxCquyQvpB4TkkeTboWJg5A72rtIbKNfszPsYFRHtliSRU9Da/9latqf2E2SRzIwsENPTklZ0H0F0aOf+pB8kOVZXuY3IaUk31yPO9seTGBKQGm9kL9h4mK9s3RYYsNZ76YuTs4SBFJHSL8jHTh7Vq2uBnwxipp69dXurtopL2FkMZBxQVCvLARBbUGEG2VqfaUKhI6iYqb9iSG1Md/E0FvAH1GTeOkOgDZetLEiH9pYBY0qb01VmBEvuUTkJoSQGFvymybW9O5qoiMiCyEl5EMTUjIdpTDElLcMAZR8dGdAPk2d/Ut0Qgw7kUvVyo09WiUISTtqisk36VyaSpPWA/mo0IgGNWVI6gDp3OgBTThvEdEpIRa055yQYLqsLFRc4Yw0PSii4wNC3juaKIQjp7QuWCLhN+lEDURNCm1uCBIbXh2mE5X0mxjpwQ2ZISBex2iECDcpAwsAqyzLFkVR6LJmZwe8six7X3nllZHTp0+/98EHH4xcu3ZtGFUA3bt3x0cffaRUVFQsnzx5clZRUVGxJiMhqawNCNoglTq+h1pmRNsa8iH1lSVCNBmiB77BtkHZMlIWMvNhQexO0AYxA0taRl5dUak4yH/yDG0vrSbx0ANCNl/kP72mnWtjgsIYiSno59j1lFQ9I/qh7SddLqQeSlR4Os90G6E9o7TdIuHYvBgIocqsiTYjZnT/QOWLyGQoK3ZKnzPFH0zPzBvN64Po+C6FUHLyYRhoCFx5iGOmWhasgSKgPadBw0AIDwC/JEk0oaQNvIX65pFTOg3a+NLGiyak7DRhKAL9uXVh86l5EmlyIlOy02SElp03uqY7QSK3l/pNCAadT2K0eOuTSPx0nn0ApN69e0v19fVNDsoiIyPVPXv20AQaWVlZ9JSTJHEOnUZIt34t35eSZrCMtDzLWrrEEPsovTcipFtCAtlOnSbbbCdGZFa1PCo5OTlEV/iFcgMILgvxN1cXkZGRKgBQcZI8sLMR9DmGum/GcygBAQ9pdna27ngZumOjrkGSJNJmCLEky02qYJwSDw5GNHJKkzJ6oOgB4FcUpfHVV18tGTBgQMqcOXNu279/P06dOmWqj/z8fCxYsEB+8803f/fwww//lJWVtRyBQQZ9tittX0h9DeqE0pOiZZTIROoK3U4JzMgQeZkEKQd6EEDyHKxTZJe7NqgMxmtC3AAEZ0f8kiQhKytLIgNSSdssZDKQlmC0n4Tk8YwZkZG2M4qWHi2jzr6w3lFAd/Y1O1jiDRRIfv2qqipaWZD1u3RZkN+g4qPzQX7Tdp18S7TBpJwJvP5JhWZjWIcEz0vMybNBJjYOJk0u2dR+67yzzH9wrhE5DIMBOj90eCKnGeklz9N5gcAVg/CgtiCohsyumaE9qFCZjTbMbwC640toY2dGToMiMB+MHTtW7dq1q6oZXUMDl/THaxjiJfmROEdu8LxQVGdB7tEy80g1+VYAqGPHjsWqVavUrKwsogfDzko6PU0O7m5TnqeM3GLSNxhDnqeEeZ6dWmL1EG5tYDBNnvGnZWNH9XS8lFeVp2NaXh3Zh57w68gslW9uZ0LXG5rgMfkE+HXbUM9JvPQ9uoOhrvN0TqfF/qbd/HR+dUkz/2lCC2aTCz3DYad+0x4wXSeI0OCLeOgIofTdfPPNvVavXv3G2rVrOz/11FMI91IJh8OB1157DWPHjs1//PHHn/7yyy+3gJkBYfNPTU2HreuEuBN7c+jQIalr165kgAcgcIQSTdyo9Fivma4cmbC8NYVsPCobniWwvPamhdXFl5WVFRwo5OTkYOzYsRIAdO3aVcrJyVEo+8Lqj9aVrs6z95rQgyH/Zvkk12mbow0wAATKhI6sa9euwXA5OTnBPoVjR3TtBsb6TstC2pVumpvXX5jY1HBT/OFsAvtsuHtmMIufZx/ocNyTBYKBhDdV4P8aVFX/vmHtIxODSV+jfzPP0/ckNt6VK1dasrKygmG037JJ2rx4ZOqju2cmo3ad/JeZ/4bnTeKRiay0/Fp8wTQ4eqT1I6v8vPD0KpnF14SuaP3oyobNNyeMzITl6d7wnzbAYdJtslyYOmGQgSc/nSavvnHKXddZsOF4eQ3XPnj3ePWL97yJXslvMqgz1HsmPrY90HKTeOilFWSDCzlVIQGBHefJCJyAkKr9JrvZ4xBaHkA2jSU988wzT5eVlVWOHz+efm0k99OhQwd127Zt6t69e//erVu3LjB6zCUENk7yyo9rb0zKrKnyMbQvXhysbtnyY+Nk6ojMxmv2PH2d/TarO7z/PF3R8TUjPTObwtZLenMrV8/NyVOYdmAoE16cBLSdCKcXMx2Y6TucHsLlkw1nkgdDnaOfZ8Py0jRLm70W7lkBgf9VYDo5ljyFM04y52PoDJi0TI0TI48ZeQhr6HjpmDVcnqFg0zd7jpMHQ2dmJicdhveb1YuZPtnrzegEDOXI6oKXPzN5zYwyL19h4jE12ByDztUFKw+TT+4giNEfd6DAKUs2fNg6z8sH+xyv3oHyKjcll0keTeuiNuBk143bYb7Zhf7YESC47devX//p0aNH/RkZGWEJKgB12LBh6qlTpxrfe++9l6Kjo5MROmGB5JNX33VkNFxZmpQHt/4y5RHOzvDqHtcOgQFPNt5zvOfNwrD64KTBS6fJ6+H02ZQ8ZnXSpB3w9G/IF0//bFhaV83Qm5nc3PLnlTlHT83qk5h4DGkybT9s3eCVj8l9U0ItIPC/EmEaK69T5hmPZjVe6pquE+KFZcNz5OV22kx8hobMxBPOCIQdAfPyzspnli8TfTTl0TDTr6nhMzGSuv9h8mdWH8w6bDb9cHUqbIdlkleDkWfLkC0T3rVmpB2O7HHJj0k64doI267YeIPkzUxOXtv4GTrndma0zkCRZO02kcsBIKpXr16DT548mffJJ5+osbGxTZLU7Oxstbi4+Mhtt902DKEjzIJr1sOUhSH/zayv4dpms+oH047M6l44EmiIi9fmze6ZpK3TiUk9CGcvmhrMm+mNW3fM8s/LZziZOLrS9RFN5Yknr1n8vDIKV3ZNpMlrv2DlYOofT7dm9Yirn6byCIEriqZ2Fwv8PPDWq/AqOemweIve6f+kkUig1ihRDYe811glDYpaa6TzqgChtUV04yNTi2zcTHy6+xwDrWvsZAMR+dD3aNlJ+pIkKexaWC0edpF8SIGhuA1xav/DloWWpso8q7JysM8SfdPp8PRKQZdPWn5aTlU1TkURHTDrf+m1hLrNJbRsgH7jCaMX3TplxljLjKysful1XlwDzluvDKqOMmFVpi6ByYcuDs51XRti1yKS39oaS93z7Ho6qmMzrLUk8TJr0nT1g8qfWedG4iYbsNSffvop/6WXXlowZsyY0hkzZnAe0ePjjz9GRUVFxpAhQwYjsFyAeGiJLuiPxPlN8k7KQ6avMXkPliW9BpSpR+DUD7qdqYwugu2MWV9ttq6Ubj9sXMGy4dgkkpYuLJ0+LRMtB/U8bctM16izOmSWa4Q7NQJEftLOzda+s7aDzp9ZXTOzg2zapM2z6XLapc6e02vH6fJhdMA+p3ueDkvnn+1vAN0siC5fdF/Fsz2s3PRzvN9m4QV+fQiC2vKgCSIBl7Qw4VnQjZA2nDrjqf3QNVboyUqQtFJGmApuajjp+FhCG7xHGVdVM9RmniRD/tmOhZaBio/VCQuDMQnzn9aHKSnkpUd1UEGvHEvqaYPNyk0bWk4eiGwsgt4F7gN8L0OwfrDlYYicIvnUhy4TLnGg5KXrrqEO8pI0Cct6G4PycdLhxcntaCgo2k5w3oDD0HGCU4ZElzR5YcLyiHE4BA+uX758+YYVK1Z8/Nhjj/kGDRoU9qELFy7A7XbD6XS2stvtsQicJsAb9OkGMoxMrC3hXaPLhR3IGcDUI7ZNsu3D4EmjwzB2ypQkcUhuuF3XLLGirxvSMGlbZrYlqDs6X2y84do/Tb44gwbQeWRIIEnHYGOZuh20p7w2QqUpMTo2EEZGRzSRZNfiS7QuecSPRxJp20+XNf0cVZd4gydePdI9Qz9H64/pk0xtp8CvA0FQLw8MHQKMnSzboXEbA20gmI6GbpQ60sQaWDXkiQsaUjNDzhI0anQbJLmMPKxxUptjJHidAAnCMfK0F4ElhoaRL2vAecaGQ6J4I2iVEw+06wqTDu315ZEsXucdJGUsiabSUTnPsPnQ5YFTtiyp4nnQWJJFBTV0hnS8vLodLC+GBJt18HT5BMuPrtdgyoJ9hpKd5wnUkUhJ7wWXmTAkPpb0NIeEGq5Tu7HZeiAh5El1vfDCC5+dPn168yuvvIKkpCRO1AE88sgjSE1Nrfvxxx8veDwectC+BVTbZAYYBvLPEhfodUt7DFl52efZthi8TpVh0L7x2jtDGnT2gjzL2BnTqVfavtHX2PrHiUNnY6l2rVBhJV78tA2Q9N5m2q7TH4MXkkN+dXWdzT+dNiW/oY1S7cdANJm2pGsvPPtN0jYhfLy6ATZOVnY6bvo5htAD0M8kUv/N+k2D3FR6iqSvX0F7wOs7BAT+z4EijYZ1MU19qDgMo2+TcLp1VZzrBqPAXqfl5KWlcjx4jFyGdZgm4dg8ceNl0+Tkjc6HYS0Sm56ZHE3pl5aT+R1uh71BbzwZmfpgtnaTuz41nM5MyptbdzhyGMqFzQ/zbVZnTOu7mcwm6RjKg6dvThmxdVaiT9FoZnnxdKlr15x8cPUPphOn5UKAXEYCSBg9evQ9FRUVxXPnzqUJsQpAjYuLU5977jm1uLjYN2/evI1Op3MygP4ArkJgLWq4U0K45cCpy4aNf7yy5+ibt6aVpzszGXi2ztDG2DC0IsPUi7DftAxNtC1T+8Kpb6ZtiCcr+5t93kwPrF5N7pnqMVx+zXRAp8nqzqye8fIQTpZwv8O0O0NfYFZfef+ZNEw9zQK/LoQHtYWhqkEvGnckyUAy+R2MixOG9X7S625UjmGgjYXOI0o3ZI6XkCtT8AY1DUNk4BkmE08pCcNLk7sWTsubYeqL/Cby8NJmjCLbITSVR4n5bfBmqPo1XDpvqCYzt/xZjwn1m16LZtAnmz6tI9ZrzNQVXqfOWyLBXftL1zNOfBITTqePprwSrCeNzitgnFrn3KOfN+iFTooqd9ZLCiouVs9h6wmdDi2rtvaVR0xp2bwAvLm5uTsWL168ZMaMGY3jxo0LBsjIyMD777+PmTNnNixZsmTXK6+8shuJ3+EAAAmVSURBVMvtdpPD+uk8094f1jOtVwgnn9CXq0TXfeoemOt0voPnaJL/VFjD+kpaf7QNMkuHlAMJa2Zn6PBs+bLhKZmDeeC1N1aPTXnYJP2UNM+OGx6h8wyOzTDzZIJfXmw7BB2Gjo/85+mPScuQB4mZMTLJry4PbBrh8skLw7RHw+yJWT1i8qjbg8DklddnCVwBiDdJtSAIGaEMKcA3TPQUEKjf5Bn6WtDQkns8A8oYRKj6g8mDnZFZY1f5B5mzGxAkQkSZcJLKvNWJNnaM8dfJzTFCEpVPevpZ0uSnXxrAGqNgOrScFJlWef9Z8kPrj9Y7JTdrAOkyYgkNO+0WNJB0/miSRXQp6de90mSCfk53aD1b52jSoIYO89YdyE3Jq3J0ocJY7uQ/nYaOwDRBpGlCabZekd0YxtbhoHwcsmJ41WlOTo7C5I3omiYx3I0wDHnTlTUrIxOHoZ2rqkq/YAEaMyNvdqp59913V/Xq1eva999/f9LIkSPh9XoxePBg+Hy+ij/96U/7vvjii31er/ci9O+Mp9+4RvLD2hcauvsm5a+rU8wAjVdXeOkH6xtTL3V6ZeoLPegN1m+6jtAkh5adjoMuB6as6PZlaNusHQMHHHlJ3ml7ZcgvqMEUR+fcqX9OOuzUe1D/rD5o+ek6zNpcWses7abCGeo6Y5fouh/MBp1XyoYE5eURfTo8Uw50PoP/yWNsudHlSdc/uj4zdUlm6rqu3Qv8+hCjhBYErwM0C8q5p+uwacPKGlgT8kXiCAtOx6q7bRYH26B1gpt4NOj77HWTjoUl8yqMumRJPcDXJTdPjL7INd5bkViDyotb53lh5NUFM7nHkiya6HE7HU6+Wd0E74d5lhfeQEJN9MaTP6gbXv0yqXNseRrIM6AnLDy52LxR9ZROwzRfJjDo3qSOGJ4h+dBkl5jr2mXdTABZyywjcGSUs0OHDtdNmTJl7IABA/qqqhq9a9eumtWrVxft2rWrEMBFAOcBFAIoBlAOwAXtVAAmfpooGsgBJSNbvjz70JyOWtdOWLsFfh2k4w5rf3jXw9gy3XO8+kfp3mBn6efYtDltCuDnrVnkJpxNNiknQ9hwpJpnmxnya8i7iS1uFnn7OQQvnO5ZhCsrJj+8N9Fx0+blXx+EeyKJwK8EQVBbELyOwSwo+GSINCzdaJmK36zjZ8lFsw0Zz1gBpp2tQZ6mCCvvm0mH9VyFJWKswTAx7AajZGI02c6bfj6YBBsnp+Ml4Qydnkk+TOU0ZCRMOXJkCMocjvRzyAiXNLNJsvE3l3wwdYAeHBjaCYcks2ENBMCkQ+W1naaILbvkKWz8gHF5hEnZ8+q5Tg7NqyohcD6q02aztWnVqlVHSZJanT9/3ubz+SwIeE0rAZRon3IAtQh5UomeeTo0lHFTAzAmH7w4mjsQY+8F0+IRwZ9ja6jw4dJm5eWG5RE5Jg1TUmPSHkyXHtDhzAikTnhjWZDruoEcx/40mwA3lV/o+xlDG2gi/xIdtqk0m1N/YTIYoIkqR0aDRz5c+QiCemUhCGoLwswIgCEunPBmBt0wdc9JUzedrT1jSg55xp+Wx4xQ0vfptNFEJ80hJzxDwnbqgLnhAxjjx0sfjHHhpWFSJgajxrkXvM/rSGgZTPIB9hlOB23oPJuK16xT4sTPkkRuWZiQbHD+09cNhD+cnE3pgn2ODqsaB4Qqk286rKmXiUcuzEhDGJ2YDSbDkTXdfykgsBUBkhqNwGtSExF4TaoVASJajQBJrUbAc9oIwBdKVi8SpZ/mgNf2TGdnwumTXKfaPYmj2TKFs19MGJ6MOpvbjHZtmLlixWHDhMkjCY8mnglri9l7vDZjJivdBsO0v6CN5NV/Ol0zG8lL1yQtnby860w+dSTXJP+8Nh+2r2vCXpvqTuDKQBDUFoSJkTJ4fiRzL5vpKJ81KmE6wLCGkYRhSYSJvKEbYYgDR8amPH+GDoGJD7w4zIxmGL2A0Sf5b6ZnnVeJMba6/2H0wcYdvE1njZM++9ugBxPjHu55Q13gycWWCZUXnQy869Dr3TCACCbCGZyojBc3TP0xI8ThphMliqDqiFuYvLBxhk2bkxfynyVGXG8aryw1mW3QPKkI7NCPQGA9rQ9AHQC39vEgsP4UWhoSlc+w3slmwMz+NBvhiBEdpxmJoeUwIXHschBD2+eQUZ7NM4QNl1dO3QWaGITw5OCVSRME2OAJZJ9pKi4zeaj7dNmEWyrC1QWPoJqkQ3QEhNF9E2Vi0LGZbE31MUzdDOZZEh7UKwpBUFsQbIcLPkkK19kZyEYT5MTsOTrNcOkYGmA4w0KH4chhRgC5cvI6TzZ+nkwmHQcvbV440462GR1Ic4gnT5ZgGF5Zsuk1o4y5+eLI9XPQnHjNOmBefsPFEU5G3uChKZiGpQgqsrKykJ2dbVY/miIazUrPJD7edbM2QpNqKwJE1ab9lhCYxvdqHx9C5DSUAH+zIy9tOi/B9M0e5sTVnPBmgzCAGRjBqI/m2FDe7yYHFLQcLOFq5vPhZODJyqZl1p4Aft0MF4ZrZ03SMtNxODnMBvi6MCb9QXP0SOehOWXLlhmv3M3a+M/OpyCoAgICAgICAgICAgICAgICAgICAgICAgICAgICAgICAgICAgICAgICAgICAgICAgICAgICAgICAgICAgICAgICAgICAgICAgICAgICAgICAgICAgICAgICAgICAgICAgICAgICAgICAgICAgICAgICAgICAgICAgICAgICAgICAgICAgICAgICAgICAgICAgICAgICAgICAgICAgICAgICAgICAgICAgICAgICAgICAgICAgICAgICAgICAgICAgICAgICAgICAgICAgICAgICAgICAgICAgICAgICAgICAgICAgICAgICAgICAgICAgICAgICAgICAgICAgICAgICAgICAgICAgICAgICAgICAgICAgICAgICAgICAgICAgICAgICAgICAgICAgICAgICAgICAgICAgICAgICAgICAgICAgICAgICAgICAgICAgICAgICAgICAgICAgICAgICAgICAgICAgICAgICAgICAgICAgICAgICAgICAgICAgICAgICAgICAgICAgICAgICAgICAgICAgICAgICAgICAgICAgICAgICAgICAgICAgICAgICAgICAgICAgICAgICAgICAgICAgICAgICAgICAgICAgICAgICAgICAgICAgICAgICAgICAgICAgICAgICAgICAgICAgICAgICAgICAgICAgICAi2C/w+t24JIrGDpegAAAABJRU5ErkJggg==;" vertex="1" parent="1">
          <mxGeometry x="140" y="105.94999999999999" width="85.33" height="28.11" as="geometry" />
        </mxCell>
        <mxCell id="75RM92X9t6_SjGFl8cf--94" value="&lt;font style=&quot;font-size: 10px;&quot;&gt;GCR&lt;/font&gt;" style="editableCssRules=.*;html=1;shape=image;verticalLabelPosition=bottom;labelBackgroundColor=#ffffff;verticalAlign=top;aspect=fixed;imageAspect=0;image=data:image/svg+xml,PHN2ZyB4bWxucz0iaHR0cDovL3d3dy53My5vcmcvMjAwMC9zdmciIHhtbG5zOnY9Imh0dHBzOi8vdmVjdGEuaW8vbmFubyIgd2lkdGg9IjM3Ny4xNTkzMDIxNjAyNjMwNSIgaGVpZ2h0PSIzMzYuMTYyNDk5MDAzMzEwOCIgdmlld0JveD0iLTAuMDU4MDAwMDA1NzgxNjUwNTQgMC4xMTI5OTk5OTgwMzMwNDY3MiA5OS43OTAwMDA5MTU1MjczNCA4OC45NDMwMDA3OTM0NTcwMyI+JiN4YTs8c3R5bGUgdHlwZT0idGV4dC9jc3MiPiYjeGE7CS5zdDB7ZmlsbDojNjY5ZGY2O30mI3hhOwkuc3Qxe2ZpbGw6I2FlY2JmYTt9JiN4YTsJLnN0MntmaWxsOiM0Mjg1ZjQ7fSYjeGE7PC9zdHlsZT4mI3hhOwk8cGF0aCBjbGFzcz0ic3QwIiBkPSJNNTMuMjQzIDYyLjA5VjQ3LjA5NGwxMy4yMDEgOC40MTZ2MTUuMDM4em0tMzMuMDIxIDBWNDcuMDk0bDEzLjIwMSA4LjQxNnYxNS4wMzh6bTE2LjUxMS0zMi4yODVWMTQuODFsMTMuMjAxIDguNDE2djE1LjAzOHptNjIuOTk5IDMzLjk2VjI1LjQwM2wtOS41NjItMS44ODR2NDIuMTMxem0tOTkuNzg4IDBWMjUuNDAzbDkuNTYyLTEuODg0djQyLjEzMXoiLz4mI3hhOwk8cGF0aCBjbGFzcz0ic3QxIiBkPSJNNTMuMTg1IDQ3LjA5NGwxMy4yNTgtOC4yODcgMTMuMDE2IDguMjM0LTEzLjAxNiA4LjQ2OXptLTMzLjAyMSAwbDEzLjI1OC04LjI4NyAxMy4wMTYgOC4yMzQtMTMuMDE2IDguNDY5ek0zNi42NzUgMTQuODFsMTMuMjU4LTguMjg3IDEzLjAxNiA4LjIzNC0xMy4wMTYgOC40Njl6bTYzLjA1NiA0OC45NTZ2MTIuMjE3TDc3LjAxIDg5LjA1NVY3Ny43NTJ6bTAtMzguMzYzVjEzLjE4Nkw3Ny4wMS4xMTN2MTEuMzAzek0tLjA1OCA2My43NjZ2MTIuMjE3bDIyLjcyMSAxMy4wNzNWNzcuNzUyem0wLTM4LjM2M1YxMy4xODZMMjIuNjYzLjExM3YxMS4zMDN6Ii8+JiN4YTsJPHBhdGggY2xhc3M9InN0MiIgZD0iTTY2LjQ0NCA3MC41NDdWNTUuNTFsMTMuMDE2LTguNDY5djE1LjR6bS0zMy4wMjEgMFY1NS41MWwxMy4wMTYtOC40Njl2MTUuNHptMTYuNTExLTMyLjI4NVYyMy4yMjVsMTMuMDE2LTguNDY5djE1LjR6bTQ5Ljc5OCAyNS41MDNsLTkuNTYyIDUuODh2LTMuOTk2em0wLTM4LjM2M2wtOS41NjItNS44OHYzLjk5NnpNLS4wNTggNjMuNzY2bDkuNTYyIDUuODh2LTMuOTk2em0wLTM4LjM2M2w5LjU2Mi01Ljg4djMuOTk2eiIvPiYjeGE7PC9zdmc+;" vertex="1" parent="1">
          <mxGeometry x="397.5" y="202" width="40" height="36" as="geometry" />
        </mxCell>
        <mxCell id="75RM92X9t6_SjGFl8cf--103" value="" style="shape=image;verticalLabelPosition=bottom;labelBackgroundColor=default;verticalAlign=top;aspect=fixed;imageAspect=0;image=data:image/png,iVBORw0KGgoAAAANSUhEUgAAA8AAAADCCAYAAACG9qsNAAAACXBIWXMAAA7EAAAOxAGVKw4bAAAgAElEQVR4nOy9f4xlx3Xn9zmNTqPTGAwGs7ODSb93yQFDMLTACALDaAllyGgJrswVtJRMi/pJT1MUJVG/pVW4tMIQBCEIjMAIu7JXVgSvLI9seSPba0uy5KUVmWE0HYWmFUVQGK6W0XKn+bobBEEwBDEhZgeDPvmjbt06p269nl/dM+/11Fca9n33VtWtn6fO99SpukLFRcPS8soBVD+NyCNHDl3+4sXOT0VFRUVFRUVFRUVFxU7GzMXOwKWKpeWV/cBDIHcBL13s/FRUVFRUVFRUVFRUVOx0VAJ8EbC0fGwOeAh4D+ipi52fioqKioqKioqKioqKSwGVAF9gHF4+tgfkS8AHgV2KXOwsVVRUVFRUVFRUVFRUXBKYvdgZuJSwtLyyD7gXuIPW+CACoBcxVxUVFRUVFRUVFRUVFZcGKgG+QFhaPjaP8iCid6Cyi474SvuvoqKioqKioqKioqKiYjtRCfAFwNLyyl5UH0a4S5FZEUURBEHr6m9FRUVFRUVFRUVFRcUFQSXA24yl5ZUDoPcjclhVZ0FQkXbxVxGVugBcUVFRUVFRUVFRUVFxAVAJ8Dbi8NFjC8BnQO5U1XkxRDes+1byW1FRUVFRUVFRUVFRcaFQCfA2YWn52G6QTwCfUHROEFBFJTg/I3H/r9YzsCoqKioqKioqKioqKi4AKgHeBiwdbd2e4W5gThCSp7MEvhv/I3UVuKKioqKioqKioqKi4kKgfgd4i7G0vLIb4QGQO1HmAbRb4Q2rwH0iXFFRUVFRUVFRUVFRUbHdqCvAW4il5ZVdwBdA70RlvnNvtp7O3WpvcIXuXKIrKioqKioqKioqKioqthWVAG8RlpZX9gD3o3qXisyFPb6kz/0CIuGzR6raEeFKfisqKioqKioqKioqKi4MKgHeArTk9z5F7xSRuY70tsc+x+/+Qkt4HeeNS8QVFRUVFRUVFRUVFRUV24lKgM8TS8srC8DDCodRWeiWfEVQVUSEuPcXaR2fNRDiwI9b/+iKioqKioqKioqKioqKbUU9BOs8cHh55QDKI4reLbAQ3Z7VuDwTnJ7bRd7W4VkS6VW/MbiioqKioqKioqKioqJim1AJ8Dni8PKxvYJ+FuEwGlbS435eaV2fI7l1+3xV3XqvVO5bUVFRUVFRUVFRUVFxQVAJ8Dng8NFjsyB3o9wN7IokNhLbRHDbVV7SSc/d94Ar8a2oqKioqKioqKioqLigqHuAzxJLyyv7QT+u6G+qMBv387rjnuM3fiUdfBVJcLdKHAkxIFr3AFdUVFRUVFRUVFRUVGw3KgE+Cywtr+xD9QGQOwWdVQFEWrobl3QlbAW2Xs/2e8AZ0p7gioqKioqKioqKioqKiu1EJcBniMNHV2ZQfQjkToSFuK4bIP6vZcDt6m63L7j7IFIIX1eAKyoqKioqKioqKioqLgzqHuAzwNLyym4RvqAiHwEWiCu6HZWNJzpr90s1nv4siAQX6BAjfBbJUee6AlxRUVFRUVFRUVFRUbHtqAT4NFhaXtkNfBC4Mx1eJd7FuWOzaX+vSLvfVwMZlnxFuJ6CVVFRUVFRUVFRUVFRcUFRXaA3wdLRYzPAA8BdCnvD3eDebNd+wwpvPAdLUQnPVbV1fTahxRx+dYHKUVFRUVFRUVFRUVFRUVEJ8FgcPnpsr4o8IPAp6Hbrtv/aM51bghufRMLb7QgWs+orWVz7sroFuKKioqKioqKioqKiYttRXaALWFpe2Qd8VsJ3flv49Vp7zpV0+3sD7F5gsEQ4hLKrx6rh28AVFRUVFRUVFRUVFRUV24tKgDMcXl6ZBe4UkQ8i7IL+Aq2qeAbcrux2e4AlUuJw9FUXX7QjxyGWIqLVFbqioqKioqKioqKiouICoLpAGywdXdmt6J3AwyBd3bT0NqC3r7fo1NyFU03EGMQf+Bw/D1wZcEVFRUVFRUVFRUVFxbajEuAWS8vH9iv6SZSPITKLI67+gCv/GSQ1wRKjjeRXYnjj+BySlpR+3QNcUVFRUVFRUVFRUVGx7agEGDh8dGUe5T4R7kbYrYbURldmIRDW+KGj4AIdYVyhu/ua9v661eF2Fbgl2JI/rqioqKioqKioqKioqNgWXPJ7gA8vr+wS0YeBjwG7w13pVmUlkt94YhW41d/+B4EN6dVEhi1dtm7RdfG3oqKioqKioqKioqLiwuCSJsCHl4/tFvQjwF3AnHsouAOrEENapU9bAyf2S7npdGe/Q1hy1+qKioqKioqKioqKioqKbcclS4APL6/Mi8rdqvIZupXf9lu+cWXX+SfHb/hmrs/qP4EEdCc/B56sXbo5tN0PXFFRUVFRUVFRUVFRUbH9uCT3AB8+urIb1QdV5B6Bhbh3V5FudTZQYOlOeI40N2zfVcOL02ZhNft+7Rpvd+hVBtHqBl1RUVFRUVFRUVFRUXGhcMkR4KXllf3AfSAfAebj/Ww3L9IR2vhMEwk2pz539FiEdESWOsIsrTu1I8HtPmDLpSsqKioqKioqKioqKiq2D5eUC/TS8sqCoveo6t205Dee8hw27Gr41BEEVirh/OdEdKV1grb3tNvsG9PSNoEYCuiIdISSrxRXVFRUVFRUVFRUVFRUbCcumRXgpeWVOVTvEpF7EXZFMtp+ybdd1ZWO3gKEhV2/NhxXeZNjtBh63Ibo3KM1hbefFY6rwTHp6gNdUVFRUVFxQdA0gxlVZkWYBWZAZ0BmVJkBZqyXl4dsgG60W5s2gFMibAAbqnpqdXV94wIWo6KioqLiHHFJLEAuLR/bp3AnyEOgC4m65kh3rctyuI5hpBA6/o47h+ml4dNx957/xg0H/5PzKmBFRUVFRUWFQ9MszoHsA90HsleVBRHmVdkLLIrwd1R1r4jsIhyGuaDKHK2HmJm+N1Q5QSC8J0CPq8qrIrwCvAz6/4K8CLyiqsdF5CTwKujLIC8BL49Ga69e6PJXVFTsXDTNYK+q7gnbLNPimxYW78J9y0nsCtxmVFBPqfL86ur6yS0vwEXGjifAS8srexS9H+RuVPeEvbr2IKvTuyKnk5rjXt/kAD02Tpdm4Sru/w0nZx1H5O9849DlO65z7RQ0zWCoyhtA50VkU+OItt+CtoIIojCKYYDONb7tTZ2HQN8loH+IWhJc6VluvLHxjQdDEoobwElVTgSFjuOqvAy8JMJLo9Fa7Y8ZmmZwCPRKVdmAfCKBvE3ySSj1Dd/e/f5Q6ldkbZq2VqR3d0+78KV+leSZFCdJU4aTwCngJKF/vCKix4EXVeXl1dW1U2dee5cmmmZxN8hNwG4/XnPkbZYbTvtjHEBEnhiN1p7Z9oJMEZpmsBe4Frga+BXgoCoHRNgH7AKdB5kDnc2VRgCvRJauFTsPmPG7ISJRpp4E2rGiL4rI88C/BZ4BngV9djRaP77ddTFpaJrFa1S5tiznyOSilXG5rE1h7NhIX9toffvGL0C8ADw+Gq2d2NoSTj6aZnATMASv2/b1mLKs6p1nk57Q/x5Kf24xpOsp4OejUZ1HzgVNM9gNfEqVv+/n8fwaxrdL6Xm438rGGdCTIPeORms/2+IinBOGw8EtoP+ViBhvmzj++bfAz4G3tMbJ745Ga6s2ftMMrgFuAzZ2tAv00vLKHPCgIB8EFqxGKO3+3njYlTJGMenclRUVS3mtQpKEr5h3pE8h4dyho6QR5BTwpMLNwF9uSyVUbAWuF9EvqMqe8meryl4DVsgkEhqVpkSESoTZEpaobMVr+y57wFpSxKT3/j7xAmAjuu8RVjZOASdV9eWmWXwO5FlV/m8RfQrkl6CnQE5ewuT4k6pyc7S2wjiLaoKqlRO5tTV9Bs0qebHtLDH2acY4ngwlRCLeI0s+lKQwvv/FfsVGe9/0D2lXwvSFto/8G9BnQH4BrLbPTq6urlelBgBZBH1ElX3J4GAt9NFyL6Y9tKDYg2mXbryr8pmmGfxyNFq7JF1vh8PBDDAPuldEblLlBuD1wAFgof0347u+dH/t/Xz6H/csjSM7dgTCmSrzIt3hmvtVuaINvwGcIKwKn1CVF5pm8ATo/wbyJPC8KidXV3e8bH03yD3B1dz2/0RQ4xhI8o3utw+bDBGxLeP4SCjNh6CqJ0H+IfDTC1HoSUHTDA6CPqAqrwt3Ur1ag0Nsh5LXYj5PRfLc13HiHBPiRPlm0vsd4GmCkbXi7PF60A+LyAFvoLNyzfZ5iu2UoGbs9eThfU0zeO8kzDMi3A7yLgBVnW372qk2zz8gbGn5JMguYK5pBv88GlmaZnFOlUdEeCPs4D3Ah48e2w18CviIwlw7ZHGTX/gTSOo4t4B4X6zjtF/9jb8s+U39b+zqCig/RLhX4EtLR1d+cuSGy1/Ywiqo2DLoSZB50D1BYOSTQRTs+bUN06ZkLK6l1QfIV3/SZ7SsdTt1taQoWwXBkyDpTWLlFcWoRAjAdaYAG8BzwWKrfzscDn4kwiro6mi0fslY0FX1pIjssRN8qufUbkZkmLhJOfOrsmXyayezPK2knEB/EkvxEqHyxDvlQ/riKaVgyhjJmsvvVX5C1Q0RfgnypIj8n8Ph4k9BnhXh+UvYYALBdRaQPXmb99vWnEXR1ns/TN4OO3cO3wxNM1gAvQJ4HehbQd4I7AtPc8NO39Bjka/05gp8bA9LrhJJ6Bs9fbgu/gzoAshCa7gcAteq8hERfRXkJyL6RNMMjgK/2LmyVf4/Ed0NMpvIrDfqgDXugTUCWQNQeu7nWis7Y5zcQNzGf7BpBr9+qaxADoeDWeA2VV4voguhTlPd2Tq1OkWOvN9beZU83frzYW5w4hKVXVuB4XBxAfgwyIG8ncpeXeN0CCu//Pxj202V20CvA57cnhKdFb4DvKjKHhE5TPC8+R5wDPg3wXAvc8Au4EOExcVnAFTljSLc0vbXV3dkB1xaXlkA7gQ+GslvK/ZK/aJb2XVWd01hjcphdvl6AhMD+lViC3NYVrCKvSrC94HngesUfQvwe+df+ortQHnlNyK3uPkVPKtMpUnBKrltzB5h8gpC3nk9cbIk2CtreRz/PK4kiwvviZjMqOpBkIMi8hbQ50GeAfnpcDj4axGeGI3WXtyshnYGrIJA1uYRpclHikpA3wiRh+23o1XKw3O7uuHbPyfYeT9L+UgrxHmZ0vt92fO8hz7CVSJcpcodIOsiPAU80TSDvwJ+cikSYausp999suT/plWrvgK6mdFi56NpBnOq3Az8qipvENHXqMoC2DEp2biS3jhKz8DL6xA/ppcrg5vXfb9tvGHTG8BMOy+IcKOq3CjC3ar6lIj8rGkGf0Nw010/g6qZKuRtMc4wEZ71x4+NN25utnNc3gfaNG4EDgGPn0MRpg4iXAb8mogsePfyvheT76MU5ZBHTCMZg/recONcpyvOFiLyWlV9s223pD+U69jqLfnKfm7sy/sBMCvCx4fDxQ+srl5cw9xotPZd4LtNM7gKeHu7+vv10WjtUYDhcPFOVZlty3m1iNwG/PdNM9gF+knL23YcAT58dGUW+IQq90pwi+oNRidQwz7chHbAdwdaZeFb6tuS6RTXk+T2jOieAhPJEYjwM1X9rojsVtgtwjuXlo89duTQwWNbWR8VWwFxk6kVDGVZ4xUoe99OBjbtiCiYbL9NrsvjlGKvCPTJlndD8mSpNC5iH015tO8QkQMEF8M3iPAu4OmmGXwH9AfAs6PRzjsswcMT3tzlaBxJtG1fWn3NyU+41zeo+P7lSXCMZ634Nq4nyCXlMaVf6uPejS3lO8+Xqi6CLAI3gt4J8pOmGfwF8JegL45Gl9JpubZN0t10Hcmw3aJgDSmbEeKkpO5UNM3iDOEgqzcAvyGibwDZJyKz4IlO3net0l1aGQlx/XhKhslkEM8NGSYFl1aC35YSyYF/h/fMacfNXhG5UVXfICJ3qPLscDh4VIT/HfgRcGLaVyx9nfTnUDvfRVkZ76c5EHI5WBo73iCS7wlmN/Chphn8ZDRauxT2Y9+qqq9PfTHWk62TsrHWtkMZ+ZyRr77nLu2eYFecOZpmcRb0PhEJn3Jtvb3Kc8M4411pji97vbRxZ0BuEuFNwHe3q2xniTlVbT/la+Vwd0L/iyIsqOpHh8PBv1DlFpDrRThO8Gqc3VHfAT58dGWfCF9A9fMCe7VrvMQOOmHZxpH43PGU1hW0DdANUqU14ca40oYVl0a+BhxJtmmiE8DnvnHDwefSZ5fkTcC7lpZXdlSb7AwkMmIt+GCVpfhXu/Cq2v3L98JYgdO9pZv0c7dnf6+Xu0yhCHlM+YC0xzCf1KzSHcuWXLjt5Oitwm36s8ABVW5S5Usgf6vKV4fDwc1NM5g7t7qeZGhX1+CV2DSRp7b3dYVrH1vfHna/p3V7T5NUlxvX55KCmCs1Ma4nv6F/5AqiJ8tk/dOvpHjlJe+XcazoPMhlBNe7rwN/qyr3NM3gijCR72zYdk5j27ePdadP+/Gi8cIStL68GE/Mph9NM5gZDgdDkI8B/yvInwO3Edz+ZsH2fUj7GPOvNiTZG+Kk/hvDp3slhVHIZWv8O77qU5uNi+cNID2SPRvIMNeJ8N+p6veB/0NVPzccDg4FF/DpRMnjKAuBbTffluGv3ccY6zWNNS8jrVEw/I3hdUaEGwkrwTsaTTPYD3weZA7oyfBSf07P0twW+q1284Uffyl+f27yHkjWeFtx5hgOF2dU5TCEPayQCCvY+drzne6u+jGVzqGw4a3xSG3cRdD3DYeLB7asQOcBO6f277MB+kNV/liEfSI8JMJbRdityqdV9UkIhzbsCCwtr+wR9NOgdyMyEzyYjZB1ZAK8Egud8kH6HUIlYhsPy6Jd5e3DU9/OwomgRoir6o+BH3TPUoyPAnvOsugV2wxPcr1CkxNIOyDjRJ+vusUJ3k82aRLxsMJoM4updMLNxkvpWyGZ9oamfImbmPzEmCatZMnNlXgAdoHcKcLXgE81zWBxTGanFF6p9cqXuDDWYJFP8t46npTv8GxzBcH+tGG8QcWSV9vm6b4nWYn42v7QK734Plsm4zmJyPuIXkY4FOprqrynaQY7Zg4qwXp0RHjyk+71r8uKyLh4OwnD4eKcqr4J9Muq+ogqV8dnluT0FWu/r9Ebqfw77KpsHIuld4TfJQXRkmt649i/pzRO/VjM4+R7MlX1KhH5TRE9ArztDKpxYmFlhG2XNI+CNTzYcH78+Lk0PVPz2xuPM1m9CPyj9kTdHYug9LPgia/VVeiuSzrEuDnOzoVexqkLG3WlmFbfgFpxJhCRRdDbVQNPsHN8FpKMvHa6m9c7Q7jSOCu8G+AQyMHzKcNWIY7zMXNpNK5/WZUXgDtV9c2q+gzwIxF2qerOIMDtqukdiHwMZDdod/pyRyoyS7mYQYyqG4xu1SW6O9PGl0CIxQmLtNJn4dPpOtYJ4OEjhy7fCDEdhgr3nFstVGwX8sk1J655OAs7meSkclyceD9XEkrEJCfWPo+JFOd7fFLPSxOUL0eZeJfd1qwxSVHVy4AHQb/WNIM37BSSEy3ffs9seU+m7yOW5HqLuW2zELaUlldMcitvG8q9t786lZSdGM4rPSkvNt8+X9qLn4wumt0fPx5EZEFE3ygiXwS+MCkW5e2BrQR1MqC7W2jPceOrT5R3nhLZNIM5EfknIvK7IrwFZC7vh5bQluqq9Nv2SyvT09iUYpg8zZyA+f7eb49yu/lrWz5LDnL53o63K1T5ld6LpgCpbH7l1j7P67DfHh5l2SnZWPP6me0/qvouVb3y3Es12RgOB9eI8Bbf16RXp7nctgQjeb+p+RvrM+oUVo+QLm6q5+S+vll7VmyK60AO9fWwMKZyA4clvknvS54v9ksQ3pPCt6PBPtDf2O5Cnjl6+TMylHkReRrkCWAh6B3yBRHmgAWQ6SfAS8sru4F7FH5bVZMVr2WcSttJpG36noYZWjy4SbdqoqSOQvyvKp27shn41lI5jixkblnfE5H0PS1VpyIJunR4eeW1514jFVsNq6DGwRWtmb7dQxgTs72fPtlghb8lwhHezdp/JqecDxtXjfDzE13MR1xpyAVoaX9O/L0ZOWtDZwRdABZU5RZV/WtV/c3hcHHfuNjTglQ3QT7k7WeV8xAuKdbxt0W+umv7lTfIhXRLJDPmI0e/ffvv8GH7J5L3Xf5zJajff9I7fH5S+PhAIJza+9+IyDeHw8XX90sx/bD1FueJEiGKz83kTZIf3njRN4TsDAyHg7n2G6X/s6o+pMoQZCYnu7YObV3lJNb2t5JMjfejXC7JvvC7X/99uW3Hej4m87E8Tr56QlEmzt2q23/YrC4nFbH9rPEw7+/jvF76BmRfz/05tTQv5Z+eAxHZIyIP7cQtGU0zmAd9P+hrbN30+xxuTCX4TySF/qeYfogdG34VOM1BSfexurXf4lOxOcIhTrxVhF3+if3agzcu2DoPbRvDhPD5HO7n81yX7dr9nuFw8artKONZYgZAlVnaLTEBOtvq27OET+DdD/o08IfAD1SZUWVWZMr3AB9ePrYP+BTKQ4m4AtGtWOJ5zem//T0H4i/jhNkKzEh+Q+9pXZ+7zmEmRQDXuci0Y0FVXwK+D7zcvTIGTStyBwXet3R0JevkFRcLqctYJWjcaXtWcFiXt35YS2S80gZJ2MT3pTj20BavMKdJpkTOckXPx/VKxbh5qRQnF7g+vzIP8oAIDw+HgyvKqU4LfPuD7RtpgvEEMZHWXNnw9difoPI2z/fNRXdP2w1jO+dtbPOaLL6+z+XXFrli6fPVJwUlguD7Xlo5VuUmEflK0wzezA5D3/U83s/bJlVY3k752Irx0xy0M5RIET4I+hVVbozE1zwD+n3UyuZxhro8XPZOciLlx115TJTas71yYzKR4lLYPJ2ycTIvx7RzhnK9ebmUhw/ID5+UXr+AzeaisuxrcRPhHJadhteC3Kbqx1Muy8H2LTtPRddlT1z76fjffv9wbhCy5KukQ1WMwbW0Wx9s/Xp54887SEYGP2dbz0BveLOwBg7p0lINpLIl5BcTJ1T5sYg8qcor8aaIvAjyY9CngA3QZ0HeCdw3Gq09L8KrIvxUleWptXi1bs+fBe5WYXc6eznAUtP+h4nMgHYDUDsiGydG++mkZElModtuFVJLQcOzzvLShXoS5dtHbrjcnOJoUwBgTuEW0CNAWimuuGjwVrJ4z08E9ln5wId++BSvRHbHf37DKkH5qbw5Ic3zVi6L/W0nN//ZprxOSrDpJwVD51W5Q4T9TTN4//R+MimfSGx508j3K1RWwUjKV67Apz4T3pEruyU9Ia/rce1eIqNnc10uV04sThc/3rffpnYZuxb0S00zmG0/c7BDEOaAvK7GhfOyw/eFLuRp5Mm0YTgczIpwD+hDIHtLfS95rownOhZ5uFwJ7FI24yYnvuG+kr4nm9JIbeJl93iCPZ6gWx2h9Hzc2J5WWLfLMknt30s4/Tw67n5JXhrMq/Khphk8MRqtvXTWhZpAtFuPbpLw+SPA9+1x80dpzirrCrYOrYyTLJ6VgfbrFttQ6J2Nz9KeEWT1BhgnI043HkrGDPMpWPpfHjCLjG9S5SYu6onQeozwLeSW9Hb3fwjyM5BXQU+0X5x4yjx/TpX7RJibyhXgpeWVXcDngU+p6u5IIXF7rJLlyR4OZA1ccQN43CPsTxaEsOKbIqV9D+a5eSbte7s47XvDpb6i6BeO3HB5t/obEfNoblwtIrcuLa9MrYFiJyEpMbFvlQRNKZ61rCVB1cXqCGL5RMx8csmf+X2bfv+Guj6b0gnKRyqHzydZeFzcWE6roHgS49Px+ZV54FbQ7zTNYNgv7eSj7xaUk33/aQ9bd74NknzK07LuSule/332HeOMETH9pKiX7vvwpX7mvzus5pk9BdSn7+Vwe9coT/aQFHM4ypXAV5tm8PbhcCftG5dsXEKam+xc5ffIJYXEjrtUbzlRmEY0zWAP6OeBLwB7Sy6RvtzgtwmUtwDke+D9GQj2vq3ncaTLKvK+/3r30Ly/9/u4z39OQvy4tPLZlrE/nqcNdi5UV87wl2wc9OckG9caDq3sSWlaMtadAG3SUlR1RoQ3qurbd8qZFYT9mvfGH/052fd9e9+HT/JpnPHBfznCyrVY92WX6YozQ9MM3g56fZoz0rNc1nm9sv95pBTXGzfyg/dsGPuuFgdEeG97uvhFwWi0fnJ1df250WjtudFo7VVz//hotHZsNFp7ofS5xTbe+mi0dmzqBnpLfu8CPtgKLYB27Tbu5Q2zSugDfasv0oYXkM5a1QpczH5eAVFt+0AayNbaEvcOu1Xi2OnaDiUh3uPfOHTw8WKhpI3YCSMB+DDhW6sVFxnpxNzcqhmf9+P4MJLdT9dnZgUtf3rGu6/0v98XLa5+dcJbZ6OgTOXoX9u4vu/Huknh8zQLZXk98EjTLF42JsCEw1tcvWLqy2xlRGq/vkLQJ7Flg0h5v5T9pEquKIqJJ71JLScWm7RZTylP4cW0t/b6nO2jvr5SXL8viQOq+rDITpF948comDkkc39NYcSl4Vdn4t+pVig/DXxMNRxKUjrwLVes7Vzs70OuzOfEseRm298PZw0O/fy0sbo0fZ5t++Rtma79WJZeeDs32G0G5fSmC3k58hODwdZpTtpypd3fT3OQNRT5urb9IJPPu0Xk19k5etcHQfbGH+O9DOzZA9YgEdvAyqe+vtM3hNMZ/vy48QaeijPDcDjYB7ybeMCv0xutrEqIcmwzo72di3I36PEyNI1LVd4EXH+u5ZoETBUBPnx0ZRb0TpT7CR+MB1r+qcaJWLpzmxEiGY53aB2b4/7gGMe/S01aGn+7nhOcruOzlvcGYRHJd8JJhX9aLlXcbRz+09raAA4o+tEzrJqKbYS1TINVhuJ933n6hKazMhcnD5t2vC4JoPK9koDzJz/b/Nq89S3wvoufjqBbhdHWjY3bV+qZBW4F+dAE7CE5K1gDhLGzjQ1r/8Y4pXDjFIszgW1/62bp2zK+uN9OuQPoT5kAACAASURBVODbLB+efPj3WANI+6SgSJXJWn5LRK5U1fvHFnqKkJ88a3E6RdC2hTUqlGTLNKJpBu8BPiUiC7lsK9WVvd83Bsb7nkz266yk4OUGGht3c6U9z8OZyoN0KNDm4e3vZESbdhLRP6F+fHnigkT/cEHrMdEn1d6Y0L15bP11JPhGwl7LqUbTDK4C3hl/57pHXpclY1rZu6dfn2fWF8ueGhVnhOuBG1WZ6a+i51+iKBk5vDEpl4VR5sX9xOGeNRD1M9S+cw/w0aYZTK2n6tQQ4KXllT2IPgjyRYT9mI4Q9Lj+6Irzl6BhJbe7n6wd6Tpv5SAptZWYgu1yiiWu6TCadHRWouacAn5L4MlyyUxu2pWalrYjyHuWllfeeLq6qdhuODdNM2mUJf+4CaF0CNWZTB7W2pe7yCbzS7xOwqtcDj/pReWi9D6/mpje17c2lpWNPJ65twD8E1W9bUxGJxIFMu+enY7s2vvW6DDOCBJhleaSEpH2KJaeWQXdfyfYPt9MOekbSLT4rGyF7kJmcS2x8BHbsXXHcDj4VNMM5sbnbPLhXf/6Y6o8xui1Uxx3pzNKTQOaZjAzHA5uBR4G3V3uE7TXZQOCNd6UiOq4vlgaQ5uRpZycebk7Xh74d/S/VWnTKMcpyYV89Wf6EOfNvjGjHD53/7btHFcZ82chzXKCefvF9xvMq+q90yx3hsPBAvBx4Orc4OLnCS+D/d/Yt0vu57bC/KFL+edzSsTaxq3YHMPh4IAI94Luy7eqWbmZtwnkdT7+PJfcmB2ubfoe2di6WZVbz6ZMk4SpIMCHl4/tQ7lfkE8RDokKFFS15amRBIQn8X8QbiuCih2g1ooSqWpGApDucX/w5laY2GGkPQhaOpdsRX+h8CdHDl3+Kpui3SvmUx6q6vuXllf2bB63YnuR+kxuOYVccbV7cW0aUlBoUnz/rz85W4u3t/KlE/3yPHZvNkKtTFjGfY6gLFTLpEVdGfrPJL83K8Jnh8PFxcKLpwLj6jnAKxclhXyzlbs+me4rd+X+5CdG64KcW4RD3KSo5HsQY5wysfbvHqe8+z5m+3eU1+P6DLtF+ABwTf/t04NIZON1TtZychPCpc/r5emU9phOnwu0HhDhQ6p62Wb7CgNyuTGOLOXK3qbv79IKf/veOaU9+v65NzrmYfz7x8v+PM+xfOVxlXSYzQxWk4zS/JmMsv26zE+5t3Xp5Zj/Pe461a1kv1061wO3nFXBJgvXAbcCs7ZPQb9f5td+S1O5L447eCkaN2ya5T39liRXbAYR3gTcGOoy96pKbCHO834/sJq//bMK/BapFCbpckIu39K7O8yI8OHwua3pw8QT4KXllTlBDiPcjequls6GfwJIHKHxwKnQMcQMaDckxXYEjf9HCoNRlW41NvWdcYM3rtpqFw/0pCCPim5+mnOkyzH9jr6rzojIm9Dpd8nZKegTE+j6nlqC6MlPX/Gxrlva/Y6Tcz5hxWe5W7O9Z4VViaCXJ/vSxNWFKJQ/Ko+5FbH/jeN+/rywBblSRD5cePEEY9whYV6htgrW+BNgk8EiT6c/ieXK3jgSHeRfn2zatPK8xHzYPPcPS7PX+bv7ipAlcureZd24ouEmj9v+vhp493A4vasx+ZiE/tjJjVp2pT48TwpP+UTO6YIqt6lyE51nTf7pjnHjysuXXLkfZ4TpPyudsC+IsAF6AjghIi+LyCvACYIXV1F2lsnVOJLe34KS/kmxfD6PIY2dQhw2I1bxeW6MS9dpbJTlk+1X/XeO+93em1PVDzTN4tQtPDTNYE6EdwPmjA2/9WUz40ne36zHRFhxT7pz0lXUxfHp2Tb180yJXFUkNM3iAvDJ+DuMB09i7d/kbZTPL3TP2zuZnpoIdLzO9TiTWimrVwM3nksZLzYm2nd7aXllQVXvQvi8IPMq0rk1h5XdyH9bQSeWxip0FozkVAy2e8iYuUTdMxs3EObU4TSw3Y52a6vMtTFeVuUPvnHD5SfHl1LTHzvBtuUB9iN8cmn52JNHDh08fro6q9g+2Em3pIiOm1ik67SWDIkTXIlwnIlyk0hROi0zEZ/4viTUQtjcchuVbJ//drwUybt27ygRs86Fv0iC0ySpGn/LLPCOphn81Wi0tnwGBb+oyA0c4xRs6zqW6iHc825l/jpNQDFN2xYx7RSvvdO79n3Mk1FryPOKSOwDatoI89y/354umeIkeevTEey+dG9MLO//a8PMiHCPCL8NPNcPNfmw7p7eeODDgH/eXrW/+99s9OlOjyLZNIt7VOXzIsznpDfB960Upn+dyp9vU+mtAp8COQ68IsKLwC9B/y9VWRWRF0BfUpVXROQ4sKHKCWBGROdUZR5YAN0lIntVdRHYB/ynIrJIIBu7CZ97mxeRBWDGyLkxyqR0z+3KTTr0SrPxluKM3+YyHfDeC/bMinKZfVu7lNr0fNw0dkrv7bdHf76SQ6p6W9MMfn80WuudJDvBuIpwSCzgiWdfvuRyHqze0IY2Y7F/xkPSPVL8NCdZHcnOMXYeqxgPuRm4MrvXq/fS/BnDhud5AKuzpfjpPBGrS3r9IvUBpzMsAu9umsGTo9Fa7ys3k4yJJcBLR4/tBu4SkQdB58EMq/ZCABVtt//mylcksJGkJnKsIu50Z4EujlUlu/BR0XBuylaAJ3S7d8OvH37jhst/frqyRvJuC6dCl0dVuVVErgd+eBZVWLGl8IqnJQCbQ7q/lthkE8dzwKvWCgfMgLYTr8y08TbCfTaySWqmndg3WiVwphVUGykuGwSXqDkRZoG5VgldaNN0pCmWtT+RpXKVLe/0wqYyecLTjqsrgbc2zeCn9ij7ScR4ApkmeGtEgFzBKCsSbbovg/wS9GSuEJcUf0uOPInM5FE2uZW7bNc2cyIyC+wKfUMXQOclfMJqxvf5/BMLiXTHcvu8pPz3D/LI8+v63C7QDwAPlHI+6fCKZLyHa9vSN25juBwlo8WUrQR/WoTdUFLc+ka1nOR2d7u66vcnr+Dry8DTIvIT4G+AnwHHtkrWNM1gRlV3A5eJyEHQy4BfEeEKYAiyH3SPqsz1PWGsLBgvY3OSMe3kF+I8WtKhOqW62K/z/cOluPmcFdJL85sde36FM4ZVRGSPiLwT+AGwei5lvNAI+5b1/tDXjN6qJeNjQIkM5yuGdv7Ojbn9dsrbzH73vf/OijKaZrBHVd8NsisZw1L/toswfSNGGaUx1TcQecKby+RMtsbLGZA3q/InTTN4dJoMRhNJgJeWVxaA+1DuJpw0RveZo7a1VZIaGPf3duu8RtEIgeLKcZuKnUza/wTyq901bYoQn6UYyc0adze+vL2/rvDF05fWHEIk3Z0ub91eZPgMlQBfFCTrchIC+ec0rAJrrZ0xTF/5tfH1PhF5liBIzJvzNPyE05948onf5zmkz6wqcyI6C8wTPjvzn4nIa0CvBdnXf2coU38/Ftk7vYKXJlz7vEcUZ4B3AF8DfpGnPknwipKvb/95mvGHUo2DiD6hKg+AHPd1l6fjJ73cvTr1Q7/CYklzP79dH58NBFgXQOZFZF6VBVUuA/17rRFuSFiZ7dLzynlfYbfvKZHefCXGK6kA8pamGXx5NFp7vlx7k43NCWr5kCWvaJRWrMafCj2paJrBlYS9iU7Zjn12vEGkpIyn1dOYng0PvAT8Echfi/A08NxotHZiq8vUKnsvt/9+Hsq5OAfsV5UDIuxTlf0i+p+rckiE14IsWAI4TlaUyEm8Py1tnsOTrM3myNx7pWQgKMfty49+3Xn5lRtYur52I8hbgP/xvAp94fA6VTmUxkU0jsa+5r29SnWUG2SsITYnYO3dYkbKq7w+XyVDRUWHm0S4WVVnYl2XDEZJV1D6ekfUtWI8fz8htUdKo6/T+fcl3aI9AHg/8EmQxwjbRqYCE0eAl46uzKvq50TkIwjzbdMh2jke++Yz7kJWuvU7Rlq99fcsucbF7aVlVzFUULGE2VmqTyH6VUGePpMyh4VeTURe03X8jXDt0tGVW47ccPmj51nFFWeJODGUhExOdvPJJ7eUWvKUhIgcG43WxpwSvr1omsEM6Bwwr8o+Ed4mwq+rcjUE41MiJd7y6JWI8ZPaOKXDTLKXgdzKhBNgq0AE5OW0q3KbTe7WmBCv5ZQIz41Gay9sfb7PD8PhYFZEFlTZA3qdCO9TlTeIsEc1kuGobNmY3nrct0DHOOMNRi0uA70J+KMtLtq2o18fuREoV/KT0uLHWf5Nx763wSQjyBluAb3StnlZKcv7TbmOyv1KT6nK0yK8D/jF6uqF9yoZjdZPElYNV6Er+1zrGj0E3gj6qyJyLa3rNK2nDvSNA564+LqZNvhyBfTHe5KP/Tb3cXKF369ylggXmQzC3csU/HngwaYZfGPSvZOaZjCvyrtFOFAyQvb1lvDX9jE7Lu1+0LSdxRqffDo5LFnut5/9O6WWnG1E0wz2q/J+EdmXt5Pd9xvbB8bro+nZ+PnVGlhjvxnHn1KakqUPIDeB3gx87/xr4cJgog7BWlpe2a3CPYJ8MEwK6bNCGpVFUVBzQMuYT7jkq2Reb03PnGgU8cOxS8ze1HaFNvztBIMzyerPFfn2kUOXn5ElJK7yxindrm7H96uyX4X3Ly2v7B2bUMU2wVpPNbufrKsB+UnNpq9p6CvJJakTaBfNEDUarW2MRusnRqO1l1dX1385Gq39D6r6D0T4AOhjqnrcWnutBdnXRV5ebz2OhD/90+5+2+vfOxwOJkoe9dGf7fNyxL5gV1hjXcVye2W28wCZUZ0seRyxurp2ajRae2V1de251dX1PwO5HXRJVX8gohtx1cWuaCWFKhp78r1lvl7C72SpTnviAXQPyN+bxu8NprKBJ7ZRpuRKeS4vwCqPPp02xhRwIVV2q+p/CbKr/Z2tYtoTSNtZ3xgIUpjw16Rr+pWeAnkM9PbRaG1itlQYGfvSaLT289Fo7beAf6Sqvwp8FuTPVPWXgDsrJCql3uXZH4Q2nbBywpKxOCa8st+G6qfSIwXegGLnrdzo5OX2ZnnUA6r6idaIMcHQ64BbVXXWGgFsFSa52q97K19yWW116XzcWn2mvePea9vAkjeTq/Mo886Eqh4S0VtsvY7jNSE8lOsxNzj4NNLvdD+9L+dP/q81xJn3z6pyb9MMpubwuIkZ1EvLK/PAnQKfRdjlGk1pD7uSlnRKvE2329ZZNLR7bokJvav2WpLTcfzdqrHhHfGj0Ca19EKvhYhwApG/FDij1d9QuHSJKROSctUS4jcqeujM0q3YSlgrpj1sJTyDNIFoQTilcNZqN6nKzOrq+vHRaO1PReR9IL8jYkmwtSCmEVFSaHOrelRswCo9nWC9UiQ/8GFykcqbW2DtQRE2fN/VNXcRn8CuUMRotHZidXX9eyAfVZXfzwlK7BtJCbLmvNyKbK3Y/pkZJzOqul+VXdtWqG2CXUGJvyERt9MpgLn1PtWxNzRNOkTYLyJXmTvueRwH3sCWyxTwBpNEEtux9Azw2dXV9We2oQhbitFofWN1dT2S4Q9JWLG+D/hRLgdiGSM53IlIhh2xc4KbQ6zR1c4lVu54MpAUK5tmMlD3T/Tvy2RBRG4HDm5xkbcM4RM08msiekVupPd6cSxPvJ8bCsrzUu6q7+exeGpwTqw9ebYyq2I8mmZxFrhPlZm8Lb2cTwYcX63WyJwMDu29k6r6GPDLcL+UA3+zJH/Te+wiR2fkfi1Mz3eBJ4IALy2vLKDcDXwO2N89iN89bRUFS2ijOzPxXtyT2T5DrcNyHJlp5nTtmk+2Gj6zRCdwC9bCmF5mLVPkGPCVI4cuP3VmpZeUNUl5VdoOr1jGsU+QDy0tH6urwBcU1jqaW+TTcx82WrNbU0pmee6v8EweRqO150T4nKp8VoTjsRxJ0QBL3hKp9QpsrtSG+L14s2HP1aQjKWB+grFkPzzzBpK0CpqnN8l9YDOsrq49K8Jngd9S1ZNg+4BfoUxEJY2NNiSxbvxkj7lWQPZJex7ENKHc5mBlhlUwc2UzeRTEtGx9hXSmRLHcp8rBqIyJ89zSXh+x/+w4skqh7V+qnAJ+Fzb/5OAkIqwMry8DvwPcDrxVVf9QledaubuRGxynUV5E5HsYc2LlyZT/RFaukLe/XwV9NsRN6Vpl3Y6ZSNj6Rlqbl7iyqRBO4n3TBK8CH1TlgyX9JN0r9ZfSWRWxjykivAq6nhutbdrp2n95wBsfUlts1paXOkL/kneJyDW5EaIjCPGXOawqr8d8AcYYktZF5EFV/kyVU93Xc7qwXib3+0bIj5fRydjU5nkP8M6mGQzPqRIuMC76gF5aXtkPPKjCI6q62wl2oW2B1vW5537aXkWfYeitnoY7Ubq2ncaRZ0CMoMys9dE9OZJRG9R2zjbOKZSHjhy6fP1Myx8IftR2UrISXW7F7EcOeDPIbWeafsX5wwqG3AJaCN2Gi/0t/vNk0Kc1uQrsaLR2XITfAT4N8qJVUiEpMOOsxN5a7JXZGL7FrIj8/QlWMswE74QAQfinyT0qIbmlPD2z9dA/BXaaMBqtvaCqD4nIH9F+LxXK1v5I6Gxd+DHSj2NWLQ4CB7alENuMkvLZ7xt92WLryirzduV4GlZ/WwwlrAJ3+c9X7KzRxCrNeVfKDWptjFdFZNo+WeMwGq2dHI3WXhiN1r67urr+G8B/Afr+VmFtPwM2nXIih51D+kYzeyp6vFYnJ+12CRFOisgDQHdInvcgyX/7Ax2jjPH9KfZRQZXdwHuBK7ayDrYCYfVXH5bOazIZl2J9RqLSJ7DpU3XWYG30lH+mypfjN6pTvPDXyzAtXsfxncKOH9cVXAF8VMPBkyReYeszGcC8Z1UJnggDf9p+bvILIjzrZbDVWWNcP7f4BZtc73Nt+kbg0CTrchEXNYNLyysLCncD9wjMR/bXVmn4Z1ZXAlID5WpohGp0XqZLKdwfR6GjAhKkssb0u3Q6KYJaRZcoxdt/qj8W4awOqRKxpD1mMCqI2r0n1QkAH11aXtnXS6xiW2CtXGmiyA/cyMOCt9B5V5Xp0VvDHjZV/hT4M+BUTmqt5bc0qeUGhHSfztJOkEWXqerEezdYRSr8xvztrOeFeGXp092Zoj5hsbq6/hLwRdCX/X6wAL83OGGcApT6UTp8BdjTKqJThb5Lr1UcrDJDFy43IsV0Svvvp0GJbJrFGYJn14xf7faGsP4hK/5AI1vuXNaIyAvT9g3K02F1de3F0Wj9j0XkQyL6AeBfAOttXf1HFzt/54NkSPUdeLyMSDpapxelvrSbQH6/nL/Hkjt7L5fV/rwKm8fuHdcDt0yaUq+qNwOHksxIW3DyMxdSHF/30cAQrjuPlZdU9ZsiMhvrKnlvjDe8WSOx3fqU2s+Srimd8LYB7fkWtwCvtUaL1NdTm0KaH6zHWYSVmUnn0FdAvwKwurr2EvDVGMq3h52rvX5r85WMVNLLg6ouqOq7VXVhyypom3DRBvPh5ZVZ4C6Be6FVbKIlAms5ksA/2//ZIWNlo3aEOQ3ClF5czteCXSMpI0rsCdKl36oc0Ykm3ImnP0cSHNLcUPgm8MrZ1UQk2jGnKX8i8dNM0RLZve8q4K6loysTJYx3LvrKpt+DZ0Kq/ZuEgyXLueI3DVhdXXsZ+DrwXC4kwQrkFMdbFj1iHbQnILf3dLeITPgqnyXz/U/R9ImKhWSTiEm1oIBNGZ4W4fGSQusn7XIhc6NKiJuUJmC3CPsmTQE9PXwnsPudk2HXE79c6c9hFcpcSZlMCFEZ8sYiE6JoOPN9wSvSvfG1qyXaOw6ti/QPgM+o8msi03caekRpDozIXTdL11EnzOabGdBdqnwP9Dkvo3PDozVKJSNLaT++NUSJMKuq96oyfy7l3g4Mh4t7ROTdqrLXz0N+jgr3vWEykdrujktbVf9YRF4E/m4isrmBarxx04aJz/22jfB3ijxYthv7VPlViKu/EUnega1vNzfi269PYkX4Q1X3PevvAce6twjYhcbcANulXGjvMfvmbxHh2tOU+aLjokwYS8sruwTuAR5R1T3dXlfMKO4qXx3tjbfj6my39O5WjluaKymFNHkKeZeJz8TczbOTQrQWmdYlW1KgJ4HlI4cuP0sXrJYgWdfZuDqgbfqddS7e1gVUb0f0NWf3rorzRdn66fd7lg69Sc9CeGt9nhaMRmtPAE9YYZtb2GP5vZXdhvXGBFsnIrIAk7sCbFfx8nv2YDRrKbdhUlzN0il7E0wTgpeAHIUSme0fNuMVMntCuK2T9ByYA/YxAdt2zgbJct974vpHruCk+D5OhHc53LLsbhtEZKabO7vxHp6VylxeCbQ3e+7Se1Xl+u3I+6SgPYn9ydFo7b3AFy92fs4HBQNGhjMRhkEhavW3eRF+oSpfE+FkPu/Y69IcZN9p53JrYBKRy0T0Y2eQsW1H0yzOiMjNwC0iQSbmRoWcpIjRI9MCU5qLzMr6SyL8a+A4sOENdOX5frwMUvO3H2hKzi/YdqjyOhFuBt8fx1VP3mdNSiZMR55fAb6zurpuTpnX9WAwsnOx/060fU8K0zEwF85fh/lalQeHw8WJXgW+4MrE0tFju4F7QB8AncdYlkRaZ1/xZJMotJS00istnbUEA0nf0u2sS2q+IVxGWvklrgN3KUaLY3cnWl60peZBoh4XkT8RkbM+fTLSd9uxOmukKUvMG631U+EahesP11XgCwq7shuR768pC/V8IognXm5bVrcL/zpeGOt4psTGsVuyKnoBG++3v2dVZW77sn7+yPfd2NW6fBXYKlp+Nbxvvd0BK8CIpD14/VUba+iIZY/GgP7KuF0pMvW9iykjwJAInVe8bR8aT3pt30kHrfn4kw9FVV+1B991hmbty0srV1wqvfK775LPgn6yaRYn3INkazAarZ2lp9lk4HRGD0vOcqNyOb2uk2yMRmsnRPiuKs/4eWfcHJRv18iNVVqSy+9tmsHVZ1re7YKGfaL/UJW97e+e0b1vZLBjLqaT5qJ2ztoAeVyVJ7pYxlAXZXgyYibvxBBGs/RTGuPa/lJH0wxmRei8C1L12DqNc0eJgNptNZ5LtOEeB3nKvnM0Wj8uwl+APjfOQBvfG9MtLWiIORQpjdOu/70OeMs5VMkFwwVVJpaC2/ODCvcD+wM/jSMk/EdcAyYTXXAHTvdkjOtXpIohWhtGWsLqVl+gx0lIipnYQOo7W6Lm8aAqeRrl98785GebX3+6tV1B0ni704AkfG9YAZF5UT4kMp0Hw0wrckU9oaTE9q3QliyXBc9kQ1WfLK1KeQOAukm4BH+/Cz8rwsQS4FCufGXSGkLyevCKV79P7CxFQJXnVdkAzGRprct+FaDkdpie2Qk2ykb9j7cx+9uCKCvKMqMLReoXVpGIY8uPsT4x3OpcbzUEEXk5Hy9ANpbi39K17RM23a7eZgjK1iNNM7hsq0tQsTWwRNeSJPt7nAHEpOIMZJnHwFMicgRzIF8Ipy5+eE//YCgfJn3HPEGuBpaaZvGiukKLcKUIbx8nE1I4P4bswVeleCK8IKJfXl1dfyFb0XME28o1n05/q0K8n95hXzrxwutC4B3AG2xd9hdYfEN5F+j+/uAQBkCeB45gDohLafAj4FGQU+m9mDSke3fJuFJqZ59P2SMi75tkeXzBCPDh5WO7gH8M8gmBPUm4QNpHa1ZqE/vr/gVZFKmncT/uQbKrwID96osLlv0w12pWlSX8x5/OyUnQB47ccPk5HsChKY/dn9C7RBW74BTfj7S0WeQ6wuCp2FbESdBPJGXrap/09v/2P4s0PZB1EV4Fa6mPxCYp8Tn5zw/9CfejhbE7NGNGVSd2hS+3cod/YsqRk5G8bb0SZq250+4CDSCt66G3Sp9+T+uY1MwEayf76a2kzfbLlRQJu0d43GE2Ns6koj2ZeVVEjo/vA8msDGklwa6cl70kxD5bAO4A/X7TLN7SNIMD07dnfGcjqC/2s3HJWFaeH8vzqF2Nsh4Uo9HaKeC3aD+LlN5b0u/6pDgZKa08TnFVdQ54D1w8d/twYJI8BLp7XP2k6yQ/Q71tbpgG/nI0Wn+sjd3dtCuQ1pBr3WfzOB79+T/l79JF+7mgj4PdW97b/tNd973K/EptvmoL/Bj4bul0/NXVtRMg/xR4wb7DX5dPez5DzAA3gb65PeRr4nBBJofDyyu7BLkL+AyibUW07iVx1be7bhtP4rdwISlByfxrjA8xtfTXNpIYJcKE6+JFi1iI7Ae0RKJt36G59Hgc5MfnXjupBCihDtrDugIJbguqVnho108V/fDS0WN1FXgbEUlaUsjyCdUqo9K7jiuifSvp9EGEU6qczO66v2nMdnFcvcRv2FnrYrqWCVdY8zzbvMcJw01AgFXaPKwRYVr7hMEcMCOZcM77Q7p35mgn3v9wdiT64sMqDzmBt3WQG0/6hjR36m2bnlXYJx36CkbRKhkKk/zIjR7p2q5KqZsTY3xBVa4hHEj5VeBjw+HgmqYZTKxnyaUG22dLc2LJSyre83Nv+RNyo9HaSZAvgG6k95XQJ8XhHeNJYvvuy4B/NBwuXiyl/lD4ZzRTM39YL6V8ld2iL3N4GeRL8bdvG2usDffiM2u8yOHJufTu7YA575zRGuferMprwBst+jKxPz/4Vdqkh0Caa1T5YmsUKmI0WvsF6Pfie+PWrXTt2yj1p/FGpAxzIO/X8H3gicMFUTYFDqvqA2Ruz8F9OAaKFW+IgxF2nR96+OEsR93pzGggjGIbx1ue3HjTpEQItAdbWaGqRkbGd5izqJXjwNdAXz3XukkKUqiLeOpzN7mLKYVVJDtDgFyGyF3n+v6K0yO5e4C3zvkwYIW6tmFT34ttncLmluapwSykMuf1MW5S60/KvYJvqHLW2wguFIKsKDeWXe20ypqNmxT0RI6Te+v0awKqui9faSkpXWDHSPekd20t3O2c8CowVd95jf0hIM0vVrGI17bPWINKVGhjnfVlzTT0HXkJtDuF2XP8/AAAIABJREFUNN8eAL5vnO6Qr9LKVoqvqMpe0FuBzwPfAr42HA7uGA4Hw7oqfPEQx3KUpf2VJT/2U7x8bi3dTxDRH4I8YdP01zpWlucr0qV8qerbReSCu0EPh4MFYMkTCu8iW1pVzeej0A49g9ofAe4cG0u8/HWct5TS3JUfNGbfY40N02G82zYsArfTfgWnpF/YAzXTPm3/3MPqFvK4CE+eLhOqfAWiV19sTzvG4vwb9VXLqSxB9x47Jo1rRbjldPm4GNjWiWBpeWXv4eWVf0z4Pts+oFu57XV708iQE18XsOWKSXCmDySJS1u7lWPrMm3OlO4sKIlCW8JCXJ1uA5spG4VTiP4Ryg+OHDp4zkpZNxn4LGXEuy1jUc/ReeC9S8srO/oEzMlB6pe54gZJiKWVi/QvrYR64TFl3GefCAveDbivkFgFwpY3PZfut8EGrdV+UuHbL8BPSOL++nD2pM0U3lvJpxcichD6SmlUvvqr3N64aePGeEa5OynhkK2J7h85+ofDlRX2vO3972jN9wfniZsjJhuq+rwqP6VtP7uanSvWUZny8cNfazywK4Z5WLOStwv0NcAdIvyBCP9OVf+2aQZfaZrBB5tm8OamGVzbNIMrmmawt64Uby/86m2+PSLJgdTfS3Otb+/8EDmA0Wj9OdrFidwoF9M4ndGxJKtCHgSQy4B7h8MLZ0wJn/nSW1X1LSJpq1Cp/NAnr7mBLRkoFeAp0K+NRmsnbPyof6brpJ97Q669bw1Sactg0o3i+LftfelBVd8O3OxXWMM4iPVb2v/bhuz+emIa5wpeBD632eqvwS9U+WcinErp5HkqczM716d/KW9tuBnggaYZ7DqDvFxQbJsLx+HllT2KfhqVT6gYq0I7CsVKNLsSHPdfONJnjueORLQljV0ybVoi6cxkT1nHDzQvdtPnkFKakA9UgecV+eY3znnvr4e0K7/EAUCc6dt8ZfXTdnPaw8BeI8J7l44ee+rIDQePb0V+KhLiyp6afpuEQMn6bEly6llWaIVw00h69GqQmTR59g0A7ZUpX7mu0kTYudqcEpETTChKbQ3+XjIIWOXCKgXlz9/k6UwjVPkHlpjksC5VniDnrlZ91yvgZVV9YXV1faoIMHiCv1n9xOfpr60H6fUzTx4mG6ur6682zeLfgL4Esm+88a/f9rmM9MS/t/Lr0ojjzqQ1JyLXQvhGpaqeFJEXVDkmosdAnm2awb8HVoHnVVlfXV17aSvqoKIkQz2xLBs1JJtLcyPI2O/J/khVfi6i1/u0x+cnl0/5e218VT0sIn8O/OyMCn/ekH3A+0TCYlLMS+6yXSpnaTyZ8XFCVb8lws/d2woyKBkkxhsQ/PtLZC6deTGOvO90NM1gv6reF355A3DfmJDH9vNJJL2GeG6AfhvkJ2eSl9XV9RNNs/jnqnKrCNfYMZnv+bbzUH88JgKexmxH6g+A3AZ840zydKGwLQR4aXllBuUORD6CsDtX/PtacHYvEsDCBO/EYtc7guuzSqr85BWdwgSCmSiuXamLe31dX9OsE3qD1S+FdFT8+SHbAxjf05FhkyUryInlA5D3IPwueCFWsZWwncBZ25KBh9RG5YM30sTgLaXTAnmDM0gVSL4VhpsRPFtv7UR+UuTctxNcCHiFOm/70p40P4n5ukphS4rWNKFpBteDXpfGBpTLlo+fNmSmNCWlNroCy4sibImx8ULCKui590D/UK9cngTY/V7pt1c+pgQ/AlkleJHg5UUKFGVHlCObjYvcELAZmWnvkvqdIiJzqgxFGIIcAj2lynEReQV4RYSXm2bxGZB/r6rHgKdF5DlVfWkajTEXG+ONY+natpddPSyFT0S4n7CqPivCvwK5FpjLx1GfiKXxmEhIKV9RLsmiKu9umsWnRqP1C7F153oR3pjfjH3c5DQ+Cb86eZG7t3ZyeF1E/jhfLcyJsim3CZOPTy/XN9OF+nPlpQR9G7A/XOf9cfP5Ml99t2m0958HvnN2n0qTn4M+DlwNYnihHSNpfuqeuvHp29IvEskuVX59OFx8dHV1/QUmBFtOgA8vrywAdyJ8CaKbhpciYVFIUrPmrNMOILS7JXlg8YM7pO326GIDx7XTtJ/Yn+istO9oV6olEmg6CRBXtE4K+sCRGw5mhwGdO6JcbcUvYopgaiqrq5bQq4CwF+TBpeWV248curxOzFuIROa0p1SNI4JWiS2Tm74wmXQMh4v7gLfGQ6z6/bGvvNgwZi8nEOvREgJ9RbV/XP8kwZfNPXGyyJ9+7I0lliifiZI/6WiawSLo5wgrFD3Djp2wc/coj87yR1JEu4erqjLRfaOEkgIY68MejuVXVlwKMVabnje4WGPUpGM0Wl9vmsEfAK8Ld3Ilj2x8pPrzdWVJijUk+rpK4zAfd+OhyqyI7NF2j2U7Tg8BGyKy0bbbCRFZb5rFZ1R5RoT/R1WeEuEl4DjwiirHV1fPyP3wkkR/FTLeT21o3eStLLVxowwtYXV1faNpBv8c9H0QDhrKSWGKm1x2Ux41G7cpbIs5EX0H8H3gR2dW8nND6z76ObCfCfTGHC93fb+3RsVcL1HVx1ZX193eX7ByqmRgyOV5Tsj6CwXhnZ1B0y/6XEJomsEeVX2nSNiCWu5nuX41rqKsTtp53T0lIo+dTZ5Go7WTw+HinwPvAvbZdEvIDUR23OZ9om3vGRG9SVXe0jSD3y+dSn0xsKUEuP3U0V2qPAg6Yy1H0km6SOgiShN8uN8NqW55wMSKaUkk0d7hOaVuXaLDs+ROHZ92tLNdJI6tSkfUE4EG4Acgp91cfmZQO/239dM9Sp1JpXOD7sK2yqKmVe2bgYOA+wRAxfnDEt58ws33MJZWdsquVNMj/cP+I25T5QovbK0gzN2e036faGSK6Ia0sybzAu5I/slCTuQtvMHD3oPUN/ongedK17ShaRb3APepyiHw5U2/w71yd7djp098YlxVfbFdlZsyeAXS2W8dacP0h6T85PImV4jS6tV0QFV/H+TjwEEvGwLGGc/yFaREnLzxIF8RtuHjtTXM2HfGe31yBKrMRIW1Xc24SkSuMgTuuCrPi7AO/FKEfzccDp4FPSYiq6AvjEbrW2Yw3wlIdZcIUV92eNnQN65t/o7RaO3EcLj4iIh8PdyxJ9yO63shXB6m9E5VOQh6e9MMnrT7Z7caqvpm4Ao/X6b+W86jHzPhvi2vAPoK4VM4pbd24frG7Ly+cmNGGnvxb6zXpEvlebxUoLeCvC5fROmebvLpwNz9PNe1QDaAb41Ga2ftSSfCj0F+BtycGz38WEiC0faDvndBzulklwjvVdXvMSF63pZt4D98dGVO4FOier8Ie6PCK6mnt3+t9IhkOB+UhLjumfp4kp4LccLULly0sDvdwDLLtNzadaJwoJZ9jZqrEEeV5xX98pFDl2/RZNauRIsEOm4UYo15UwIxb0m8PfW65czRUreg8KGl5ZWJ/ObW9KK/KmOto30hnvpg6pN9wmQt3JMOVV4D8iER9uSWwc5g1SmiXrB7wWhPxnY4JcJT4dt0kw2rgCULefzdN4AkRb9f7vhsGvpAjqYZXN0qT3cRDuMDPJFL5bIFtAehxEnSn5hu+xNwUkSOEVbXpgpJWbGKQVT4w51IApJCm5T9JEOsvMjd0KZHiVxdXX8J9HMivOoJj5lrNSreaR63z5I6EerGelDYcWiNC2Xl28MZ6ynJOP83I0S7RLgSuFFV7wIeAn4b5Ajot4CvNc3ibw6Hg/cMh4PXTup3MS8MtKu/ZES1q4Gxn6dxk07Lx/0N4U47hz6qymOWxJXmbdtnysbp/OTkLk93qHLV6Up9rgirv/JWYCHJRd+PvZHMGwi8YS3JlDC25PdE+GX5zUG/9p5N/fopkbiUJ/9OS96S0ePSQdMMLlOV94qw197PZaGV9eFveGJX720fMPPs06B/fC55G43WTwAPq+qpZPRI7/f6nM+7HVNWN8qhqodEePO55G87sCVC+PDysQWB+0D+W0Rn/YCx1gPwlj7nsNz9ThplG061I4CKEPfxugqOabeXHUGRuD+YljinCEkx9dYqFe3CdhaXEOAUwh+CPL4V9RbL3L7UrEWbYompF1tnGpivdOUSUGYVfQfwvwCPbl0eL3VY5TX8dX3YTTipz3vBZCf8/oropKJpFmdU5UoR/iWtG5lX/roRh1UeIQl1q+T4MjvyeArkr7a/ROeORFSskhHlnHSTUVLmLNGxRC//XdrTM5loFfcDwJuB+4CDqnFlzIZM48IZGEWMwpuX19dpSFMgWIu/PyluU2eD1K6p/1s352Ttt8pP7Eu5K31E7DtlIjfpEJH/CfgVET4FzFo5ENs/ESTv2uwNJ6nOPHny2y78GO1vT/D1bfOZu3/a8eyNGE5XCOFnQfeJsE9VrhLhelXdAN0QkVPAc02z+DjIXwNPEfr4K2d4auuUwxsY4vyQDGB2rujPualvjBsfHqur6883zeKXVbkGdL9dTfbIDXJ+v2vfwyf+lj3AI02z+NaWRGwZhsPBjKq+TURuAXEnPyeDWcq3NSx0perVVRfvp8DXw3eT++gbukveb/0w6TqPm1f49Gzf2ELcKsLNYNut5IngOYk1dFiDgzeE6AmQ+1dX187DUKxPAn+oyp3jvCPyJhvn2Wi5Voorc6Cfa5rBd0eji3+44HmvAC8dPbYb5G7gY6o6G92GI7qO3zVqXCFqLQvEw6fczNM+C8+1I6CRAIKzJolNoV2tbfMhxL9JsDlFM+YvTsAtwewGu2/cY8C3jhy6fMuEXCfy805FyrMLGEl+VybTI0OdHkS5fenoykR+eHpakSY7K4D8akFOdOL9CKvUpXQnV4ltmsV5kDeBfhO4JhKdODITse3DlrO/Ny+vKwHkJVXO6NTCi4noPgdp4snbMypu2QqRUZxsiv6E6EnFcDjY3zSLbwD9GPBNVf1tVa7Q4BrqJmTbtqmOUhnLe559eKvoEr5NOfF9YxzKZfLyIcmB0v7XLiVjQEn3pg2te94RVX6ck9mSQtx37/TEt7/lJDyLJ0L7uu/XqXlTZ5zwstqY6I0BK7VrKa34u3vfjIjMBgWQBeBqVbkH+JYq3we+BNzTNIPr2m+97nj0yVQ+l/aWAwqkOYQ7veiUx0TkccKn9rJVq5R+TDtvS+t14WVa1weuBd50ulycPXQfyO0QVgyToej0+0P9/JOTGT2hyr9S1afHvTmtdlvdJ64c9/WbEKbfZik9ycKVxu3ORdMMdqvqp+mdjeTnfq9TafY3hsnrXwAeO18dajRaPy4i/1LEn8WS6zLxXq7f2rzl5D2OU1XZB3yw3VZ3UXFeK8BLyytzwGFB7wfZKwjt/1uUJrV8IKb7/emjH6898CkLR9YaQjrtOR5ulZ4bO18II4k8p9VVL1xFBEW/J7rFR96ryY/kZTErZJJyHhaotQ3vD/ISVRR5m4QTobfolOoKMfWf7iVFLCk6dkW4fwiLT8OvIkwS2mP67xHhfSJyWf7cKymhXJbw+v14lgh7bxBDAB47P8vlhUD/kCs/Cfj9Ykl57itWNl5rCX5VJuQTUE0zmAH2gB7UsOf7auC/BhmqclCEed/X81MrLfznLkp1kJ73jQBt+LGrFJMOT3D7qzBppcmGT/Ikkrzw2441n8a0YTRae6ppBp9U1T8HDlo5ksuTRGatd824MtvxWUrThsPI6VxBt7+9zM+9OPpyoKQcZob3LpzOiHAFcAXIbap6TER+NhwO/kKER0ejtak7+fz0iP3bz4V23kz1a+eMPjHwRo7xGI3WXm6axa+r8iYR9pTmYmvsyOV8fxyntNv+uFdVfrVpBo9usay6TtoVw/Cu3KvSjhE/54yrkzbcMRF6Jz97eG8HE5fcKBTy1imq+LrFhM/vnabhdhT0PSJyRd+glu9Jz3UGer/zFWBVXgH5DmzJIaJPgv4I5B0m7+RtVdLt/Pyf9NvMWDgP/BrIt4FfbEF+zxnnTICXllcWUL0TkS9ouzcBEiFDgnOzaUoXPwm6GConc+F5R2BjRDvJ2MQkvSVZ91oLMe0BUiZfIC6x2HTewp4mO0VfBj5/5IaDW+qi1HXkKLSIh1rR5tWFNgvsbf125DwVRNC9qvLA0vLKW48cuvwScKnafow/BCIf5H2y4ycj26IdibpobdSSnVnC6ZK7VPUgYb/RuyR85mHOkp2Yb7sak9eNrQ+vCPZP2myvT4rwB9tXyq2BLX9Z6c2JTLqXG9NSmiE94DpVHhkOF09Idzpk6f3Wbdwr99aN0Fps85WAzHq8oco8bfuLsFuV/aAHRGRORGdB5trnri1LLotWifWT9nhFJ+TRH/pkiPFTqnxvbOQJh2+H0hyYk65wLzcehec5eQ4K8emU/0nFaLT2s6YZ/DrwFQnf5p0trcxaXaG948Zan7xuRmTVPS/1zZJsD2H7hNimN44Ee7KUvyPFBRZEeA1wNfA2VV0fDhe/JiJ/Cjw/Gk26gfBMEcs8fl4Mz+18mnvUlGXwad77QxGeUeX1/TT6efLj1cuyOCeaOX6mJaqvB5bPNEeboWkW51V5SJUF++4uR0622/vixkyBgAB8dTRaG7P3NyDftugJbrqXG77jc4+cPE2p0DpHNM3gMuADmxmN8/t52FJck8aTIvLtrdgm1BqLjqjqjSJywL+nPObK7W7HjH+mqteKyM1NM3jmYm5tOicCvLS8slfRu0W4n+DOA7QF1eSi3G7c7dycw93oYmysst1/u0TawO2uX2sVUbp73d18Vukmr4S4Op1QINdEMundrIENVB/+xg0HXzyX+joTjBcHmZUylrplwtYSLkY4tcL4LcC3tyXDlxBKqwOpXfJB3hdc/fTyiUkXmmZx0Stb+QRrraw2HykvOcnKBNWsaiC6IiwAuzR86uMAsF+VvyvCa0XkOlV2xUg5+bV5SmSvLxy9suLzWsjbD5mC71fnZeors/229XGld8+kcRC4u6SwpDr1VvSSxd8S7jy/EfEdiUA5JTx7R2m/nO37405Jlbx8Xdxxyo9dDW2vXwIeBqbw9OcAu5IUfnuDWYRv47yfWAUpj3f61a9Jxmi09tOmGbwf+Liq3gHi3H/tuLHKfl7mksFt3P7pGC4ZysfVYXkbQ0/dGFP/Vk7kpLyU95hnYEaEBVW5EvTzwPtAH22awfeBJ3fGqnDuLWOeFOu1f1bC2ZFfGI3WTjXN4heBIyDzNg0ve2y6uYaY8pj/FuEqVZaGw8HPtsKbSf9/9t4/1rKryu/8rDeVUk2pZHlKlgfVfYeqsTyEIIIYBjFMz6OFaAd1CCGEdGhoul387nQzhHGIY1kWshzLYRzHoek00E1Dt5+7G2hwE8LQDk0stwM1jgchhDweBjEOcvm8++J4LMsqWaVSTemt+WPvffZae+/76te7r+6tOl/Vq3vvOfvss3+uvb5r7R8q7wJe1WpvSfZvN+7MIi0iPK7KF872/lze2aha6wP+mjUeecOPJ+VXEsJSMj6gqq+oiWtCS7/Mst8bS6UMd1pEPtP30x3cWVm+A/oQ8Kvew+91nXy9PvrT6qRl/kRkjyp/V0S/DmzuXLrPD+dNgI8eO74PuFGQW4CrwBIvKgNASTGlqMRBma4eT4RVBrI33BEXyhS2jcsWPq4Ohk6aOnLxvOHaRNL5M+a0qdQgOEx+go7UErziBHXOXaFlhmf3Ah85euz4Y+trh5fu/MzFghf2LQU/3LfTWWgOErmdJUVYEZG7VfUFCAqyF3aW3NRkqCQn6bvfXCkIHBH2gO6Ng/9+Ea4CriaQ4uF9pXAurcse2ZCV7idiZcvIDtp+uoy8APwZ6EJsi78dth+3CxlklN/Ws3YTk1zmNfnxcbTaRGsDDR9PS2nPYf2zs0i+vd9WXHP66/A+7hYx92lRRGQLeBDk2xsby7f5VYKd1mbz2JIb9vosZbHVjloK+jKh76dPrK5ObhGR46p8TESvBUtMs7woPSFlf2m3Vy8z8zNlXZRLG9rl78fg2caM8rlwb1ac7fQT9ml5WdxI6+2q+p2um9zb99NLOnVwJzGrrIqrjmTZcCUZPQseEpHvAG+LT28j09pjeGmAKWTqu4AvcpHLz7puckSVD4iEmTd1usonSs9gHTaW0xngXuAcj8nZfjyqdG+Z9ZwnUVcW5AjwiyLe6FLKd9sOrUz343fpXBFAf6A7PEuq76dnVlcP3QO8Q0SGGb4uVzPSnr8nHdAbloy8/XmQNwP37WTazwfnRYAj+X0/yp3AATvuDmfqqkbyGH2VyfI90Mlh2DHe3SESBtI7XEuSJ7wDYVgHnNfqShXF8Jkel/Q7pYyw2zMNAZwpNKp6RkUfQKQ6KHwnkNpJIuIhnVliqYjjws4bnhTdpFjGOCRvef16VX3b0WPHv7C+dnhplchLjaRklgLdWjy98KoJRyZ/QwirhL02ExpMvFmgWMJD9L7Vyt7ZrMCtNJscuXe3Fbl2ntq7GLYsxj5Ngqo+KsI3+35zadqnVbxzGbUH9rIs3Xp9oyyUg0b5vP9dl2VJRkuie3YFykhm8b9t+BYBMLFu227afaIOF+P8sSr3bGxc+p0iLxZtj0ktN1oypLxmkcv//BjAImJjY/pC103+JfBdkFuCchQM7L5/1J/QJpYhjO+jZRv038slDK2+la/Piqf1jpye9rOz5aztk7xURN4LvGl1dXKbCN9a1mnRtXGjvD9b7qU6teHOYx38C6q6LsLPgVyzncxK6SvPIDYhWuT7APCJ1dVDf3dj48LOfY477b8N9LUtmdyWISE9MHucj0l/QlV/sLFxLuNte6+B1phfrosvw7f63qw+ezkhbPSkrwN5dc1OrAGhNO6VZVQaGlK56RlVPrmxMZfd438KfEtV31k6Lur+YJ1zZzPKDnnZA9zadZOvXsi5xTuBc96FK+z2rB9U5W6EAwyENjbyzNAiB85n5w4Nn9h5iIRUTKhYZl6eGMXBkmWx8WogisSd/WD4bEFEGMhzektawzMEyicAi8hPQb58/w7u/FykaMh3bBYMjqEhv41n4qegJAYs5pFQAxwA+QXQg2UMI84PqulvaBnNgSiE1eEZE8M2hFLd85Dja1mk7Tp1+93eS8/adLQGRZunUuEY+riJx7+vzoctq9Q/y/ea8C+IyKf6fnNuSwt2Fmn30JqkpPtQl3sKV8VWKXFgle6WTjdL2bPtoYw//1b3fNmefVivqPv4asVvO9Lr22K9TrqBLdA7NjamCz8t/mw4mwcXbP8sw9V10Hpue2VjedD301MbG9NjwN8D+agI3yWe/Wzbdylnw30p2hnmXil36rJuy+z6uRrpOdvvsjydlaYgF+sIz5ZugtPiOhH9feDO1dXJdaurk0u+m+r5wOepNgi0xgpLntLvPBadO5Hq+80tEXlYle+ostUikl72tqfb23SVhBz4ORH5xXNKUAOqHFLl71mPYSIfs8lvrS/YMorj+SnQPxXhnJw5aYOxPO7XBMwbaMSUgyds8aoJW8vGyxNyAORmYG/SqUoDdqifXJ5tA4GYduDa4OMiMnMn74vEaeDfiMjJktza0zBCurP+afmJ1SPLPhxxRMO56ZcE5yQ4jx47vg+R96JymwgH7JRkMQpbgiQPFcbKV3QeS+FiNyM6eMlUNDBDa2lIoTHvSMQxuXwHbyqY+waxgaWnhx1K7aTnEHILeEDCOX1zRSCvId2C2WYeM7hqvK6xhNQbD2wGdSgLbgB5zbzTfznDrqu0ylJLkU9tNQkxS2x8uNTGjSHHTPFLA5dEY08KG97nBWh6bytuS0R9Guu02zA2brfOXMpBzg+GWcin+OwA6YWgiHxTlYdZGvipXr4d2HWeDJ+esLY85bOIoI97uKq2zpWSDNv0pXfntlST4FpBSW0mfS/bqU2TDZPbqU1ziiu/pqX0a3n96yDfbJXKMqOl0Kd6CfetcmNJVFl+to4uP8RddP8YeB9wC+gx0NNeCavLLVzz5Zav477bMg7XUgBLaNXUj/V6tMaAegZP670hbigG7IHY12PJ8KtItxxQ1X8AfE7CLu1LgVaeyuutMc+GzzLNGz3OFWENtfyJCC/4d6Q6zTqh77PakFXNfnoV8J7V1cmFOh5eIcJr7QVvENCirHx7Tjumh/uWUMmTIF/v+81z8hbmvuSnnod3tOqnRW5tf6oHuvPw3C8p9K3AKyHVRZv02/qdpQ8kI4PBaZB/rapzWUMbZwk8CvpoTXbr9HlvdQ47hNDmcWV7QX656w4d2cm0nyvOSoCPHju+V+E2hTsRXuIsnSacFw42jMS/RC4bDT4p1MYPOrxHvMBsPZrvm8ADw9ZwBJKFqBGcA/0eHhpIuPIz4N55Tx9W879tMXlQjOURrSyJ6w9GiLI1CjHPAnAQ9K6jx57aO888XM6wiqa3fGVl1BKCHDYPjlbA2XUcpTJkp8hmq28e6FMf8wOxmv4nQ3zldK0UzioR1ope7o5q+0gIl9/nB672IJZ3Ry3JEojwOHD3Mq3vbA36uU5D+VqFLH3PyoNUz6Y6zUpKuOenl9lyzM9a44dXTnw82TKb0lAq4/ZeSmP4nga0cuDObZQhnG2nvk3XBps6H2G5CfAV4OZlPfaohVlTN+1fDGnC+TKzYQwJmn/iLxH6frrV99OfqfJ5kL8P8jdE5HZVfgLyoqpuWa9JhjUg2v7R6rMt8pTkZCl3xT1v+3SWpe28WKLu+/msMQD3PYSp25CE48huAL7cdZPXxR39FxrZeGB3z26NaV5WhnCt+rLGofNKx0PAN63RKaetna6SvOdnc7pjW1hR5RdB33K+Z5123WQvcCewvzRkl/rFbPLpx5aY1i0R7gW23fnZo+w/ltiIC9N82hG2Nvm9nL3AXTd5qap83F4rDVyz7oXf7TE0h9UfqOpXNjY253l84tOq8idAXIo0q77sbuC1rpBkpgitOn8d8Cux7e8qtu2cR48dvwr4sMA/krThlQgYRTgLAhnKJl4N3zRR4LQil9d6AAAgAElEQVS7skRumUJpiE/8xk4iVr1PnU+wQkBJvTyEyzxleBO0CHjhvk+hhqfDgHQK4fb1tcNz34G0YUwZFFdvUZNcbponn8dHfIxJcQ3l9hqQX51jFq4I1IpTJptJANReU0f64mdW3Kwi5eubIe5EWi3pSN/Tu20rsoTbEp2kyNnpTDmePNjZNGTLtjSfzXHmZ0svqX1HvPe0Kjf3/XReU3fmgmwowNWp9aZa62hpKbXT2Hyc6X6K3ys+tt2U9dp6T2lw8fFj2ltuZ1Y5tx7mGKOLI4XN8ef0ttKSlcP8bIo/G2PYEpH7QD/W99OnuKyQleOybZTtxZAbR9qyEuzlwOWOjY3pmb6fPtP30+/2/fSfivA/Ah8A7hPR76vynCpbUCqQWZ4lQjur79T9Ocuv8Oe9v5YEhXA5fHpnq/+VabQzM6ys9WEtkc/vM0RtRVVfpcqnVXVpPMGlbuPHIT/GZW+8kOvSlsH594W+n55W1TuBZ+001LYSb6d81mlNY6Mf/7lKRH4DuPY8i+ZXRXh1ymduI1lnKMf9LFeizjeM0Xas5kd9P73vQo+cyfVVGiXqMSLecZ+1PGOoz8sRq6uTvar6IeAVbcMNDHq8MaTkMdIaV6wuNZTraVW+vLGxeR4GjfNHbC9fAX5Q6idWbtrvdrxL90q5Zw0qEjZ6e5/q7s9kmUmAjx47vh94L/AJlP3+buyMGqltZKtiBIJQCgvi5kzhp50mXXboGNo6cSFSVGstlRR/EoZDIdvRJ1xP75YYYQ6eyaRGMh2n4BxT+O45lOHFwxrXHIkve040JCSCrLFUNK55dopzFJzh5wrwgaPHjq/uQm4uQ5QKUbiaOn2pEIV7mSB6S149gJSK2yziktPQHvCtkleQi+F+awDzBF2Le+X70iAbwuby8OuS2+lXVPVF0DtFeKTOwWKj9mSW9euNaO0BP8iXliJulbscvjXNOb1jUIKHd+bvfnrhIJfFt8ccVmbWn63bnMas+HhltG6Y5dT44vWAnBLR+4Bb+35z4XcDP39I8TlL6dNmm8j1Z/tdVi6uJPT99IW+n34V5CMgvybCR0B/S5VHQF+wxh1IZZjbZfu6n06bZWh6qye4gOv3WUbmGTYxVCEHyuUtZT9syXDbd/z3IXWhT71ORD7RdZOrL7RsdxfZiGaNbwl2LHI6ZFHmtSw5d4jIpojcX6Ypvd86IVrvKcd9W2fx+mtBrj/X9ISjEDlKdR52nsEza9z331M7G547BdxzrumwKNt5SeZme3CzIcHqEbPCXW4Q4WXAW4B9pVy37bqsOy+fWjJiqIunReRL80m9x8bG9BTov0pyKcnNsr/WafbjndVDyzYFcr0I755rRhpoEuCjx47vAd4Legdw7UCrSoYvZrMp8fe19ekUrFrJ8p85Jk0KIXFwsoqm+5WfFrJSloe5IZbw5DAIxlADY5QXVPlTYT5z6z1iOobWk75HA4BE3/RgBEhrnMntK5WrBIOENSIE9g+ovhr0HUePHV/4aVKLB09C0mBtyWj4q4V52dGrmQfmvnujUQhmEV5/LQmZcq1IyyspLj3lFMLWd68E5MHN3rcCzgg2Q6zktIjcDvzxMk9xbQ3kvszzb6tUl+F16NjlgOFCuuu1h8iWe/7tFcWWUt9uk5ZUZ4NJOZApdhdX/45aqc/3bVsfFMUXRPgXIDf3/XRJNkM7d2xnzPL1kRTW9D2VezI2xLFsqMdUR7On3l7O2NiYnur76U9V9QGQT4jwHuAXRPiQCPep8hTwoiqnRDiTyzYjHUWWDZVl3/Iy336mJSe+b+c1flb2lfI1y0e7tKBViZZ4i3mXXdIwhFsBfQdw4/Yld+nhCe1sIttaVhKu18bWCyHCfT89BfxbYMPGYes6G5C9lunD+Nk0WU7KXuDmc5maHsLI24HXZJKR5XZJGkrUuoAzaD4EckHOnLYhwuvvpUxz2rbYe4Yf6CwesPxYXZ3sAd4sEs5w9mM9ZP0p/hJfhnm2XXimYfTaAvlM3+/qCQkPq+r3S0O57zPi+kU29JfjWikfh7bxwa6bXLOLeaqPQQrTnvVGkHtB9paKeELIjwwkWDECJBEwFewOxa4jqZLO91FSHGrCGWI6vDQ/PyhVhuhqvDh4NIq8mUnYhcQ0g1A4h+gxEXlgN44O0nQ+EzkPgYyr0z3d9PHUaMilVK2nqJXN/cCvAQ8BSzX19NJDhk7qpwJlJTQLNWcBJisuNozt9EkI1IIhwbVv8vtFbL1b0mKbd05DfsamJwvlkpCV+bLp8mTLlpUPl8uEZ0S4C+QLfT/XNStzhd/oypLDGqVSZqcwQvLQy1DOZiAwYXy7yl5hP2XetyWbBiNXDEm3HttMgv0mFvYdWQnL70u7hFri6wfH9sZvMb5TIvokyF3AA30/l2McLjmykcCWb8uwIC6sJb1eqa7ly5WMuFHLyfi3CfwQ+ELXTfap8nLQV6ry34vIy0FfospVIuwDOaAqV+Wyr/tDbvdQyzU7CyLBblTl+zPg+l9NZHN8bUOpeYvmfpraSuyLe0W4bXV18vDGxnTuG3deKOwUXdt+7biUZzD5qbf2SCKoSev5p4UfgT4M/IqI7KlVqHShlMM5TFbqfdjYlt4I/CLw4FmScp2qvkdEDpRyP8U5u+97YlXMSHpWhD/q++kFOXNqklO2zdbGjl7fsIbUchy5HOWXCC8F/Tiwx7aXss1a+V7qUOWMFHdX9Uci8sCcs+HQ95snV1cnnwRdDzLUp7nUYdI4Z2WolWttecbVqrwT+Oxu5ctZpm48dny/Ku9X5XYIB3APbdcw+0RLEwEN/2clPNd0vO8Eg5Uc6aqPw/iVvaXTaneFshhueaUR8trfYQCL38Wkc6ic8Mhp0K+trx1+4dyK8OIQytAMkqHQMsslllpMpAx5ANE8dXsQxG4kSFOyhv2tX6PKr41e4PNDLlI/WNvryaJpp7kmhSq1rywALcmx9zzhyMjt2ioDIQ7/21umfZq98Envzl6L1Id8fn0fSwpijVqhMc/+WJWbQO6LVvelhjVenB22rso1Zpk8ellmjXol6WF4LsRjn6vX5/iNgnxbSPVdKyMpbXZzHytHa7JdE+/ctsv8a/DO/XOQ9/X99CuXK/kFTPmViqOVJX4zpNwmTGiRZhx+XdiIhHik0o82Njb/GPg46LtB3iMiHwD5DVX9qAj/HPgS8AjIk8BJ00YbMrhEIqFWnluvhg3n+1/yfiVvjw3nyU8tb5N8sM/lcUAPivCxrptcdZ5Ftivw5L7eD6GUV22C6z2uF0p+ATY2ps+LyO8Dz1pZl+MsI7fksiSeuPTG3weA3+i6yaHt0qHKuwibAZn69Uti8pgdvnuZUY+78foPgG+ftSBmoPTWzyoPq3fYZ0tdwsdx+ZHfAP11kEOlIaulv8Xw/tdgPAA7Jkc9/0UR+UNVfWZeqZ8FEX0U+M6Mu1hdsf387LhjO9kjwru77tA5Lxu4WAwe4KPHjq+gvBf0E4gczIkKPXkgjuK9CYOFQqNalKyY5v/E6YbOkgio2N/ZPysUlid73yoTzrIUCz8NSjHMMBm4Ufo5/lh9wUr/pIh89fyL8sKhSNi1WQgedSs0rJ4dR9WBykeibJVQq6A6hTf8vyLwm8CngV3vQMuKlifUEr42QRYnwDwhqL0DOW4bT/Yc+bgZ3ltbE3HXS0XOKmvW4u7z5t9TGpVSunJ78wqNIYhnRPSYqtwkIk8sP9Epy8HcGUhiqbTZAbBdnyk+r3T5duU9Rb6ufJsslRCKMLh2WypsNg3eIOLrvzWYeUtvfmc20HFGRL4jwidAftL305N1LJcXyunlbcMApPrwHiZf715xTG3NXh/RQvQSvxD/htlPXXdoX5gZpftBDoAeBLkO+G9BrweOiHCdKgcJU4xRlRVgJcvNUlZ7lP2glKdlv8syAmxf87I+kyQ7vTB+3wP6JuA1sHj7LJSEtsxbfT/PNEnjlR2XPDm7MKjyGIEkvj+/O8+yCddy3YXfLfmf05zahiorIvpG4E2Eo70qdN3kKlW9iaiPe73Azx7JRLOcBVCnGfQMyJ/2/eZFbuRqy/ncyE2pl9gxZFYclwNWVw8dBHlr+FW3kZZO2NIFSpix44eqfGtj49yOstpJ9P3ms103+dcivBG4JqULUl5KnZR4b/hGeKYM47zJr1WVt3fd5F9e6IZt54M9AEe/d/wAcKMKnxaVPQObjYlXq1xjhS8M05hlmFycB2UlzijO05xjdiFNNRrIsCfBQ0jrSUPwG1hh0oRLIyqGlBOIoyRyXSj1OhDmUyC3rq8dfnGHyvccoFa+hC/DVKh4Q8206GSMcFwp1ZfEPGbzQyo+zeV3Fch7gf91V7J3GcBYc51yryqFoIfZA3ImR346cUlEggHDW8CliMMOhPU0WDvoeCJcehL9ph8leWuR9BDW9N8ZY5mI/AT4fZD7NjZ2da3KHGGJhxaDeiqn3C5s+XkPbDl9KH9PVuPtyVI9eM4i4LViZtOcSXpbAZ3VltvGl5Rf661U1TMgz4B+P1iueShsqnFlwE/lFHOtLFRLaNOzpVyYpTRdvgrlPBGXYpxiOOIDgEdtmK47tA/kiAhHgOtE9K+BvExVrhHRgxqmA14FYfps6fVpydSyz+Y+n+9lohW+l4YU21ZynMO4cR3wC6urhx6b8xEpF4ztjXC1wTU844nzTrX7jY3pmdXVyR0i+nbQg/4dQ4qdvCyUtoiUp8oQeUBVf6PrJo/0/XSjkYSbJTqd2u8r9EH7Rm23tfj7R30/vZ8LRl1H4Z05TaXc91PY80NtPaFVhsuLrpvsAT6syhE7/tt+Wi4lS6iXMPlw8fM08N2NjUt6SsJDqvqkiFyT0uVVRDXtv9Y3W3kv2tY+ET0K8iC7sFRzz9FjTx1Q5f0CtwnsIQkWseqaaeBDomOlJiVpiFKch9I+62EKwipb6XkrADPDpS5AqbqQlY2ViFI197NgDenWh0G+XxbSfOGnjqb/M/HIbD8Rf7sRlliWr5qXDgvDFGlBcLPkRP/e0WPHv7S+dvjpXcni0iM3VD8V0ZOh0irvO7YVZlkB8oN/veZzO2U5xGWfl+K5fL1ebzU73pSWED4rIPlZhuultw84ocoxEb2n7zcfOWvRLhVsGZZKjh/sS68s2Pr2RNSvE7SKrC/3WV6j/E5/P0+lpmhXIQ1e8fYKVj2w5TLw7cm3ARP3GRF+IiIPAf8OONb307kfKbdo8MrPcHW4X66Xysjtp00S/LUR80EkyT+JfwB03eQA6EuAl4rIIVX+qggvJxDkI8DB0rAE6vq+bwtq2kGeFl0bxloy2fZ5MXHr9cG7zUIR4Dw+iRvvPGz/iFcc2c/32sTq/CHCMyB/oKr/2HhQi/dbL6wUz9djfv4uiPB6VW4A7rPPdd3kWtAb8rp/XJlkue69/WCNa+EdBbk6rXphOz971HXkjTi2TWY9p9R1Uly+3Hao8hYGep2q/C0Ip+ZYXSz1Was3en3rbLqZoKrPiMif7EpWZqDvp8923WRdVV9vxy3bT9rfoazv1iyG2AdeCbyN3SDAIP8I0Y8qXCNkxTkmOyaUYdTNXLTIDIn6GhIbspZYcAgnhnvGAjQXwHmAU7AUe4ofcgOKT8THB/JdNrLClOKhEKzAXxbY9WM4rFgYxEkjnSJ2tTAxL1nqJu/vUH6FNDbq7StQ3nn02PF/uRsbfS07slVz1qBXKyEZJfH0A2Prd/ru34GJp9U2rMAtBWomQ3YArwds/y4vyDyxtwpemu4MHAN+X0QfAbkMp9iXArwmIXU9bH8vxZvClXXYsr4nRbp8R0thro0tVja202XTVOYtKVrWQGmUnTPAT4EnCLurfh/06b7f3MUZNYuFcp+KfL0eR3178opBNmqUJHgWiRgxL/T99EXgyfhH1032EjZwuTp48vT1IvwN4FXAIWCllLctI1RtkCrVlVL+tGduxLbxMg3HVy7U7Bs/LpXKc/707b3uC2W4i0XfT0933eTPRHgrhPNIy5mCJbkr022R+qZJ8wpw8+rqoa9Yr7wqbxWReP6pJ4veCOKJY73fhm07iqp8R+TijvHMekQmaiWJO1vZexKY273V3y8HRO/vDSL6Wq/H1e0jtwlL+vK46tu14zGPqPLs2daT7wIeBHkOuKbkWQBu1q4xAJR5Ksc6q9+qclPXTX4nytq5YQ/QgewN3sJy4XWhKkntbbWN2E9eTp9iLqRp0Jb0ppumoxVXh8IsBIR7gxRpHSCNb4nUDzFvofoNEb5yaQihT2MrH3bddTZUeEtxq5SG54eyFQT2I/oRkMcIpGXEWVFOQ/PX/KDYIqL1gFEqLe3rvk/6NYJt5Hv1GjF/P72nnY9WmorfJ4CfgXxHRL/Y95s/nZ2qywnb1WVp5W2Xo60jG67cTdmTpnoNst99MSuNNkwdnx2cUhz1+1L6vOehVMLdM2dAHwS5c2PjyvP2zkLbmJk/63or68HW++x+POLSIB7p9izZeP4Y8FsAXTd5uSrvEOFvivBq4ABkcmGNWQH1ONNqG6WHuIa8WoRV4hE/i4RzmR67XX63G5cuBn0/fazrJr+nyl0i7LeyMrxrtlwv663Uo0Me9GUi3L66OrltY2O61XWTVwIfBb261i2o2kZpNPXvct+fFuFf9f30oo3QrQ0Y/b22/tBOW8kOyu/LC1W9TkTuAPala+Usru0IoDes1PdCfLxTNRxz5vXM8rNJngsD6/aG01b8Jg9bhPXlzefqej6XOi4NhHqtqtzbdZOPzHPvmD3ALQIvIPJh4KqQc0MuJZAniUcaqcbsxMp1iR6izQWvEL2zuTDU/O+tQGL+Ly0L6WpaK5yJniXM+UilHJclj+mJNIU4EvETwGfW145ckk16yvymnGksbMGs9xnCxmdtIUjKDqnQkVRHw82hkR4B3n302PHvr68dXtozWXcDpTeuJANFx8V25qzAtAXRrPeFuCji8lNGcpgyrf7a2RSm7T1Iuf/FfJ8BeVyVJ0T0PwAPi8iTfb95BcwkKMvC13H4ndpE7UG199N1MzX5GeD7IpyuBwwvA2ehRV7BTYN+mSqviqHNM7V30t7L+RTTlpvv3Kcq7xXR/7S6euizi7r+cHdRTU0ckNtF27AwjL+FQgS4tjXuAr246PvpT4B/1nWT+4F3AB9S1Vf6ccDKhJbHv1SY02erXQ1jwwrwMgIZXyi0xpvtxsRZ93bK+1vgARF9jyqvneX99EQiPSbD/Zy+rHdGWb9HlTURDq2uTjZB3wLy6lr5T/HZz7LP+0Sb9G2BPMIOODZaZKkktNnjHD7tdT9+tJZzXR7kF0BE3gdc0zJCp31d7FgALWN5q4yJYUGEfZ48t8rWsiEa3yu9o2rT6b1ZD7DPDxsB7i3jTrKq7BM5neU4N1OPSHLwTaq8jmJfhp3EnvW1w8/f+L3jd4OuAP8LIiu5NFJhp1oIiR6O9zWVnP222ddICjKwshS6Jr0QKwPiu7MAcB0wJyQ/P7ByyNOfUxptagYxBaniAVH5JsKPzq3Idhiqw/RsP43bNNIYLk+BNmWGLeNwJVFfYthqkIj1oSq/KsK9wM92NlOXF6wwKAe/+rsfCD1Bak9Z9YNpPQsj3/PkyhLxLKzs1Kn8vvKdJWblK8ZxCvRxEfmBKv9BVX8IsgmcuDKIb8CsAaIkMLOMELPjU0T4AchNQGPKT608eGPMrHrNA2TEK0E/JSKvKkO2pm2XcZdK3wzSfI0qt4jwM+AbrVRdSdhOQc/1N1sBafVLe32c/rwc6PvpRtdNPqvKYyLcDvpmVfZsRwLsuFG3jbYHx3pqgNWdzMNOo5Qj3lBYfq+NRC35c7GI9fQQ6Gu9N6vd1/wlKcaEcK0I/0rgjSL6AMjHZqe7nAIdrzbq3esXelJEPrMTO+yXBCjVQ4usey+hmmvhfgw95M1/X26srh46AvzSdmFa3u9chiUZrQ1brbBW17SG97Lt5fpK8aq57us2XU/vajtyQtx+eY9/b20A8MQ373vi20QxHfqICH+n6yY/nNfxmXsA7n/D4eeOfu/4LaCgfBiRA0PikpJtC2oolZZXSeKRPhKjS8+Q6suUqO8Kw9rhdE9xlZsj8xQwX8kMMiYPybEG6wSFUIPnEL1rfe3IpVHkxZRX8toOhZKorCn/MmwdoWvMrlxKaixcBdx147Gnjt6/dmT0As9E23uTyrkekMrNT/Jg0J6iwklgyyrE7u3FQF8SknP/7gTRFuiWhs2KzojIacLGGSdFeE6Vn4nwfwNPgD4O8nxIo2ztxvb0i4nQh7wXzk9fbCm0df15BcC0n5N9P53bHgRdN3lERO4GPgVcW0pfb7gplZQ8wPkBOzzrNvITuRb4va6bnAAeuXLbi0Vdnp4A1Pfb7cTv0WE9LyMWG3Eq3/dXVw+9W0S+LMJbyjBnk+31tVY/He5PdiLd88JskjtLgS/Rlrc7gM+JyG8Cw1nK9e7GMwmuua6DvDfe0qtF5N2q8tdEODSr77d0jhB/q66dHP9q3093ZCPX2sOb9PFElPxGm95TnE9JyOQpr3nPz8+l/nYNcf3/TaBHfDmkEFLkcda58HY6ebwyEMzs7LBL69xGudh6kGJs9uTaEtpyWVX9Hj/O5zbt26jfxK9sG5j4yzrP7d3mNbaVPSJyA/CHmE0IdxLDOcDrbzh85uj3jt9FmN8dpkPHPHv6lIhlylkUDEMWzKFJ5kzg7M20rBjzfFau3OYDat5jOpv1+lJ0Pk/9yrUZ4dlhM66woHvXN75yGFpRTJT4HDjhKEOuKtGfawL/DEX8Jm6FNwryJi7isPTLHdYiVwuv7QlPvubXW6bBIYb9LHAcWNluPEgCzw8ipbVtlnJk065bqpwGOS2iJwlexxdVeV5EnwN5fmNjOhpECnjLbBbcdiffMnw5wOeBpKzH7et+JxCJ6Je6brKqyq3A1V7hLtOV2ttAbGNM+bzJ7MFwijeg14Lco6rvAx6fY7YWHrXSF65beZLvFePfAL8x2nDV1NuiIyqLrwM2+356xc462tjYPNF1k9tUeT1wMCmMLdLjZwDYMF5pDXFU7ebA3DNzQchyxSvjYvIRYMmjH3/LsW9HsUkYk/9xUMJbMtCPq7mOcHkqNwSKz71FRN/STr+XseGdPt8pnNdFFJDnRPjMxWffpMa1Nb9pm5djVq8Jz3iCpdW1ZSe/AKr6auAGYI8npXb89PVWyva2PC+nR9frfAtWVvEceypD+Wyrbvyzth37ccgT21SvNu8U77Njnrj7tpyyDuF0iVcBb+m6yU/nYUjfY3+sv+Hw80e/d/weFVkR+IfpfuaZ4nhn8rCiyQsbblZKX7qXSJvJ8zD917zIPh6mW4fStmR2OF84FW5WJK1S6QijJdAS7j8twp9qWAN8SeA6h+skRiEicOLMX+0+16UVNIcfjBep0gYpne4JolyL8O4bjz312P1rR16YY1aXFm2LVT1FqTUQWgWlFALmua9tbOyM1XbEPFEOWtlo55GUl3qAb001Tm3DDoRzxu+IsA/kVsymHb6dRuniBu+E1gyHfDcbd/RVIvLJ1dXJ+zY25ufZXmR4o1WtXGT4TX4sCbDKRuuMxV1sNxeLFVW9RUQOdN3kD0G/fgXvEP6kCI8Bb6l3YC+JXm478S5+GYwN6xXPxYRTcJ0s8ca3JEOtYh3y3JZLO4O+n57pusmfgN4A8tpyXLfpyLLbb07pCU/4rDcxLD2i9XNt8kt1L4b/FnNYzjabOFmjjNdZ8706nnZ+lw9h52ddA17mjTa+zlt6gIU3MpSG89qjbKcem1hMfN6YVsqPmtjWcZbt+Fy99ZWzkbrNWNKc0peR9I4h/B5VvVlE7geeO2sCzhMr5YX1Nxx+VuBW4LdV9WRKoE1j0G9MYUhYF4zY1b2J8AYhlq5rLnMiJ01qJC0iZ73Fw+ZQlvT5DweRTBAlpSZzwDMiPAh85/5LNf2Z1FgZEqXUZZ36R15prcnWQJnzHN4cGiWmbDWUX5abukLwAr9m53J1uUEL6xZ4EoATUkG46HA916q9lu+JeEPUiMVEJoYMA7lXSm3obH3NbaCMqxxg5pVyj76fnlTV31LlC8Dp1DbTQOXJb51225brablqZdoe0F8U4TNdN7l6ztlaUKR2Yq6Yum/VuW8LuTzz9MPS2j+XhM8DWyLsB94I/B7w71ZXD72z6yaH4jEiVxLOAE+Fr6kP+bEiTyOtx5DcJmoZsgyetVnk3BrfsuysPaU2z3NK4Y9V5csinPTljumDKa3WkzZoug3DlLjrPk+5/kuCX8qJWhcB0KeBP+376Y45MewU3JT+7AG299rTeku5l3XVRTXMnB9U9aWq/DrInvIM51yHecp4fIZKZ9fcZlIc3rDlwye9o932ffw18bSEM7+3rqvwbOnRzvWer+eNr8olObad1rPFfH7LPKY0gIi8RFVv6bpJxVcvFs0Iw67AeqcgnwVOiKQkGyWfslL9tfA7X/MTdjORC75ZdU+k71K8T5PFLLly8ROBA1f2FLysirAOWJFwZMFn1tcOX5KdnzNCXobzkm2jMZQf9ym+/O1/mg0E3qQQSzxOKZIYPsbyUuA9R48dH7xBIzxmTVmxgs4KMj9lKtdEmjqa7pkdO0csOLa3glrrvx2gxLSBWfHWg968sbGxeUKEO4Fv5YELl9Zsma7TFjxN6VcdPoUBWSEcan9r100Ozis/iwopZHpCKrtWnee2kJQZGeRM+F62pWVSKIe07wN5Pci6qv4J8JtdN7n+EiZsl6ErqhywBqdc16XMkOrPK5pZhliItDbUu/Qo5V0te3K+vZcqhbPkLLtQdhJ9v7klwgOq+kRIYyY2ZRpz2qzsa5EhTyh9mNSvpQpTouE52wJ5CC7u3N/6PcO3+OnX/KZ77TrwZGuWd3uZISLvEpGXxV/FvXYdloQ4ha1RlmfdLrzO0Bpj/DRzGzaP1a3PrOt4j7AU7bVl/FEzPlk9gKHt1LqENbYooyYAACAASURBVL77Zw3RfjvwyiqTF4mZivf62pEXEL0H+Lyip53VyZKroTPka8NmU/Gq84BozLAhabVyaMmdkLih9eCmd/p0tZqNnyRsBpavr68dfmKbstk1aGqMScAb80AWJJ7wWm+4DOQ5dryiXHSI1RgM3DpjAH5JlZftaMYuG3iCYAfgcE2LQaF4ehBa9r4Wg8KIxYdVPGYrXbatJIGfnmkrfvNK7/bo++mzqtwBbCTCbtNr/0pLfmtw9wN9HvAIRyZ8EPRXu25yRRnZtvd0ZWXeKgatz5a3uLaoLz5q4q/7ROSNwCdV+WLXTf5J101ePg9r/2JB9oK63dizjPCywf72hhD/jI8HQP7TPHNw4bDE3RIlT5paz7SU5yCP5kGCp0+LyB+2puyWY0BNasR8zwQi6wA+37b+Zn0P4dU8M7zzBPD7O7Hzs0fKd2losfXmSX05Lram2ZYez2VE101eAvq+c9UD4pViPCjbtG0zZ5Pp2miPZRzlvbIua27RyoNqO0y9NtjPdrLe4nLGQCuelhPA9JeXgv7y6uqhvTMTewHYdpBZXzvyLOjtgvyxCCcHiimAmum4JOKbvuVPHXpMuhoLKHkQUgaNUB8saWqqU63AtyQ7dqxkjbBz8WPEUlf0U4SdUBcConlttGjO+3CxNDJoKjbN4Ye7RCkVIzdf0wyrID+DF9jIratEuOPosaf2zzWzS4nW9NTSMmbDiuv0SfB5ZWZuG3iMmBOS8M7W01kDh1WMSiXW7pJ46RUAEZ5Q1Y8CT9m0hs1n8vecp/y9HszygN4Y6A+CfJKzHBdxuaFlqG2HsaR4lkLsy33Z5Edr6qZRDveL6M8DdwD/O/CHXTd5e9dNru+6yVWrq5cdIb5BRF41ayp7SWitwST3zTTODCGLZ/XH80r8haLcBC4pzNYj1Tb0BHlrn01jbbwyryTfBzyRZZ0v47MZoUo5aKeOzs53KSuy7G0ZwoCvADu+h4glLdbQUPbjIO/9eldvIIi6uVgSvNOp3T1EEvZRVXlpku3WGFWSTO/1lGF8TLOovAddSVOPk+PQ9m9vkE7lnQ3rOe7SuGJ3hW5viJXTq0M67ZIbG7dtE1aXsfWejeq5wab8Oh5nyi3Ha98DIrIX5J0i8rqLrD6Hsw4q62tHToLeRJgO/UIgvsM04oGIacxw/GLUQ/GqokDakGoQIihaTF1OlTt4QYXo6dSh8tC0mjVEluL1EFTEpu8kcC/w9HmX1rwgQ2sgrd1V0cF7nQpqmLAsmss0dQQrUESyIUBM74tceZC5qeMpsfz1japXloJ6YcgdtbSOWgNQPU0o/jID3eJuVDKihBX44bcU97Lgz9cy6g0iyp0T55Pu7dD30y0R+aYqNxOWhZhBKefZtutyw488KGYldcaan/2gn+q6yevnnrEFgVco6r7evpYU4rId5d/LKDZS+yg9D76N6T7goKreqKp/BvwF6L3AL3Xd5JWXw1rhrpu8FriHqH+1+kpWYlvtA6yxqfSyxUeeU5WFmOFmMWspUb6m1e/aWAKZSMwhkQbx/NHbVDlhp6XbtcnbedL8dOUk8zHXWkj9hPgpxT33/FPA3fPYIdeSfOvZ83tfWKOpmPAhrWU55WdTvpZQkMFrgV8SYS9kQ1QmayFQ2sHcGzpyGWRjSCayqaxSvOETd88S2YEnqbp6KN+Z2p6PW4u4MGnDPZfSYe/lOMSlISM7g8p1yAnZiJdPlSgNwua564EPdd3OeYHPyaq6vnbkBEFgfwHhlNgCG7y1lpyZirWLw6OSGJv/cN97Mc23SNY0dZhIrCURWjAVjY+XrJQOcQaC+UOBb1/6tb8JdkOqsgyM6qh5+nKQi4YgW6GYXbw5hlR+g4e4eLPEelS5WkR++eix44d2MIOXBeygZXfazAOivW+tacz8S4JnGZXZKxOemFgBXStHs5S9UgGy7efSNIRAgvkmwUNrBjSGT/tXEvVSySvbc+4HAshB0Hu6bvLqOWdrIWCVkXJamy2vYXis7ocw5e9llRtZKbP9yK95zgq3rADXgXxQhM8RzoO8d3V18rauO3TNpUj/xaDrDq103eTnVfXThH03AF/vvo7jt2qmSDZCNdaDpueeIEyNXUBk+VmTwVo++vKxBkNpXp8Dfihhx+4ZfdK349YUX08mM6n0eoN9pQx9JWfTymJBRLZU9YuEY5vmhtayHZvOeMeEZ8Z3S5BLDXc50HWT/SLyd1W5zrfLTAATsW81ydIL7oeEui9bJuB1S3/ftq/02TbUQ+ZHZdlrkTbbT0vDVJkzrcawclZAyn9Or53x246/kYd3gOzYWuBznla0vnb4WUXvUOWzqnrK3bQVmTIUua+kxhADVZUby0dK5S9WYKZ9qXSj1cG+DlNBapQ3MfGognBKkT9nDlvFXzjCimpn5R+UxYGpZuFKbE7JWmIMCcCwuRW2QzhFO11IMZmSD97iN6nqDUePHb/cppxdFLIFc7iC77TlmWvpuXIKSjbaLKMCeyWjHAhaRC+GrAaqVn1bxTYPnJcGfT89DXxBVX9b1e8M3fq0qMl7VgAz8RueXVGV14PedSVsepSVeNseWmvBamHgdwG28ZXlvzyCJG8mlMtj+zVoKZweBF6rym+KsK7K91ZXD62vrk7e1XWHru+6ydWrq5MdXR+2U+i6ycrq6uRqkH8IfE2E16uykvQS26fsRkktkpT7lDUs2fEpeYH1JyLs8JrQnUUmDPmazVs5bpbPWpx9zeTFpJNN4C9UOVXqAa2xvJ76WU9T3/59OvN7LhMF9Ici8s0ou+eEPA74Im/nYzZBtvpSbuNLiOuB94Lu8eQ+ezlrw06Z71nkP9+vy8ZPf7f37YygLDds2Jpw2xlrJhdDmlI8rdlH9v2zjDa2TGqDkNcPSt04lUH6XXiCD6jq+8rSuVCcF8m5f+3Iiwi3A78LYYfBYXdmEs9KOYjJxR5apM57m8MlX2QkyfFKQc+KhhPCZvJYWCuGKcSxUkRQZFPC5leX7NijWRiEJhrO+xVTanb3wDKvgwc+GhqGayleS3hTGYa/NME86+GCiuwTkY8B1843x8uDmrhkC5ZXPDxJsusyrGAKcdZCacRiw1sz7QCiWOUTMumrhb1tI1K0l93IxWz0/fRFkLuBr4twJivfPmGlNyCRXKu0xzvpCfe8CHtA3gJ69+rq5b4zdFIgxfT1PH3NGtSscu3bhG9LXtnfbmfyxULZXuopc3lcq58bym+Pql4tIi8XkRuBL4N8T5U/EuEfra4eelvXTV7TdZODl3q6dNdN9nXdoVcANwJfVtW7gWsJO6MXSmTuM7acwqctK+9E8IRxIBkvisj/AYu3C7QnBL4dlyTSfqZnS8U/KdDztAFtbEy3gAdAf2jT4r/b/urqgtR/rdws23irLVhZar9HHe40yLf7fvr4jmSygZxHO8V2Fnmrf9eGLbv2dDmXcQAfBa6pZW5ZLnkq8ax8WtkP2TiIY0jtMkxo6Q6zhgM/1mSymwxxnhS396EoZ5y024M/Fqk1S8XnpZXgUmewfUnevLq6M8bz8x4g7l87/OKN33vqHlVdEZEPCrKfYcDOkluTxWKgWQnJpytGPBTH/agOXk7sdVLTyJXnhU0sUDFvlfyEKl9cf8Phn55vnucNReOGVHb/Z7FdiYGpRgEbWHJpSMibaaX7+ab1mqdGl1lZkOHxrcJrgLcCX5hfrpcHUpSj7bAlQUie+1KxDfFoMZDNFo4jFhFSDVrl9XKdWhoM7HpOv2ZmsaazbmxMN7tucjfIdcDrbButDJBVP8jfZyl0megByNtF2Oi6yV19P312frm69KiVd4Z6r9cJ+nZkSXBhDackRIuMRA7qPEqjbIansAaE0isaw70E9K0gbwF5AXRDlSdFZKPrJv8Z2ACeJKyXfGYe6yUBVlcne0U4pMorRPSVwF9VlVeI8ArgqlY/L6fx1kpz1pJq4uTJkXn+h8Aj88rnxSC35fJ6ec2vfc3eJGnEMX8DUN9Pn+66yeeA1wMr2dhn5Xka0+0aTJ/G0igO+bt1epSGrdoopC+IyNfmktnqnaUBz45jOUxJgrxc8+t/d6POdhpdN1kF3mbzXvfJnDfbn8NvayS2BvXMYfJRWLm9123Bl12r75Q6qTWSlXU3y4Dq81nm2RvlUpjczhk+a5JrN9hql2NOsy+zGOdLVfUDXTe5I67Rv2BckIX0/jcc2Tz6veOfAM4o/M+i7DX+REiDukZvJhXBMh4QQ3ITqbMjgBLW/mqkha6UcCxCrdBJBRafQ+QJwo5+C4dhm7DEWVvywRJcIBYIVesYpKl5MDXSZBxwz8QGawssXPn1o8eeun997cgcp9csC+rOm8opdVK//qOY0m4sYqXgq+MfsajIg4gfVKzQT4K99NJ4gmgMUMOgt1CevMeB96nqvweuATtoW+JWHuWVN8iwhiA/ALu4VkA+DPznrpv8i/lO5bs0KNdR5VkCvs1khScbcuty9nKlVEoXH3GcHrwWdTsq24p91s+wMCpCLpsVEQ6qchB4FegZVc6AnBLhFOgpVXl6dfXQz0CeFuE/RrL8nIg8r8pJESxp3IrvW4n1uAK6ArIXuFqVl4hwLfBSVf66iF6nyiHgAMh+YB+Eqc4hnanO0w6weQxIhKnOXwozeyOZgOHeiyB/xCJt8mng22/LWMZwH8qyynH49ba71gG+CvpRwOxEaxX4esfbst6sHLX1X3r/srHE9hW3adF9hHXec4YnsXVZl7LJ99Gc/0x8W2W16Oi6Qyuq+hEROZjJqs93InR+FliWaQk1KUxtXc4AZ8IzKXSbtNaEsS0fUx2UOmwIUxLlcvle6712qrfVe22dC4SjD4eZLp70u3AuLqtDeH0Zkl4hwj7gnar658AxLgIXPEVo/Q2HTxw9dvy2mI8PKlw1ZEd14GaBwJoNm4ZOUYvxIA/yNOlMCoU8pTn5RgvCFp/NZgKGT0FOAvcq+syF5nfuGAaBSFIZRKOlvdZ+ntmyzbux2KQwadJ52kQsl5P61kkm1ar6chF5P2G6+xUOS1i9ZQp8Z7ZkICto1gpoBcryDAAjskLq167Vg5u9Zq39acD0aK33ubSInqMfd92h96nK54BVb9H1xM5++jIpwzSf2QfcRPDS3T+3TF0i2EF9lsczG9FsGVmledYMg1qJWWRkhd+SBqrfrfaV7gfU9yzRyASDPcCeqDARldQjID+fnxMi6T0JegLkReA0cCqS5xUR9hOUuX3hT68C9kvYpIsiLn9FPPElGr7sOFGGt3ktFcV238ukUlW/L8L9i+j9hZb8s/fqayV5SNdS+HB/d8hU309Pd93kduBrwIFWH7aGmdasHxs+fjNvqA1aMzx1TwOfnn8dZ6IX3t8OY2XTLKLm14Ha9tsy5iwkXiMibwPdk5wcfkysnRqlB7is16Kunwf+GLTHOQbzMiRbD/V4UI8t9Vji5WPWZVOcUslkk2L3rK9z29bTdf0bIG8C9pTjV+359nGV7/EzZwYj0nUgv9x1kx9cjBf4otbIrK8dPnX02PG7gS1R/QfAgVRuYjwAqc0LtvSCVXMgXMQidpUWN3kwBFpUwu80mAqR2JXri3PFqPIY8Mj9bziykIOCm/AsDCRVhh/ZwujI8NCIs+ag8XPwtEOyLAxGh0pAxVQQDQ0xHQdQ/fs3HnvqwfvXjiykNXk3UZKXvHV7GaYU8FkotAnQiGVBrs+2cl5XrTWYFHdK25MbPBcGD4twN3AH6MEW8Sg9OIZ8mHAt0uO+XwPc1XWTJ/t++ui8M7WbqBWDWolotR07+OdBf7llhyeD4Zq32/r+sh2ZTLD9xytm+b4P6/dqMJ7jAyJyoI63fo+5WhnBWvVqFc5W2me9q+5HbRKSp9zqcyB3LP5MiloBntUfWjJkVl/ZDajqD4HvgLyjfL83SNgE7WjitoDfB57byUjbSP2xNrL5usqkb3gyKJ4NopbJ4m7W28VgdfXQPpC/rcr1fkpzyPfZpySn8OBJX9IhFeAxkFv7fnOhN647V3Td5CFV/lKEq+vxy/d571Um3ms5FnDPg/4KyOeACz7v/KJ3+l1fO/wscBciD2hy3yfiJgRSBnEactqkCUhULg7wYQNiHcKHeEw4jbGIIYZmQIp02vlKY6GdEOFrIos5JQiGHGbiGi6GS07o53XTodGYaWLGc5zLxhSRxA3BMDuSJqVbhsoKn6px6bT8HMibj35v3BG6VqjaXr4a9S6W9eYQI5YDXjJZw4b/rBUCSEYTu/NriGtRm0McjO8D/TzIVqvdtgYpqwzGK4BX7H2/UIBV4N7V1UOv7rrJZSNv7JQvqzhZo0gmf8NTVfl5guTb33JBXX7T95Ig1kf/YMLXz6fvZdnU7XPWjqN5bWYZVxlPfr/11Mwmcfl7odlsQ9Znv7cVRlHljKp8GvSxsz9xqSHF52ySb8dbc3X49GeMzh8i8hzwNdBn6zbWlvvleDFcVXvft4nyuxljfqTKnHd+LtHe0Mp/T3pqJral13sIXZCdRYeIXAf6KxLP/c3XfV5aa10Tyk3EEiGMev0ZVbm376eXBfmNeFxEv5XzWff10kNdbgzbloeufA8CH78YfWFHFI31tcMvAL8hwh8QCGeExHW5KYPCsOGVqhnzg3Zg+4uWHtDE1eyLkzV5+B3J8yAtAPgucN8i7vxcwQ6mxf+DIoUpGzM9In+HcuOxfD29Jt5Xb43KrHnQ1vYBNyNc9seVnA0thcoiKzjlYFEr/9a6P2J5UJ69aZE9PeU6mvKzHAzEtIfF0wj6fvpi32/eCjwQ1yi5tuvbei1zWqRiMOapz7cqrxeRz+HW2C03anKb2k9pALDTvGqFwMuR5VIgW0hTvq0H1ctDcW3IPGnup/Kp1921vIQprH2Hv69ONqd6ymG8XJ/Vx+13r8z56Yw5/Z7Mz0q7v2bTJadE9HdE+J2+31xo76/Ny2zDYUY5VnpDidd7dgPhzHT5Bsi3RNgq09Vus+2O6uW+7/Nt6IugX9zYmN/Ozx5ZNywNPWW/yO1Zq77spz+X15YCH1flettfvUxuGeBsWLvztQ07hHtA5OLWsi4awvR8uUuEp8uysLIvXK/HtdYzMbQzJKvyVtAbLjSdO2ZpX187fAq4Dfg88OJg0YJAtOL02oGYiTiSlwlY4RmOschgBY+NrmDDQh6wNHlKhVPAXTFtC4paEHg7krq8kb5LzGk16KatyGSIywkeGOrDbiShBWke4oSXAR+4mBxeDmgpm7njDqFcR55t0c+7RC6zEnvlwQ9uCaW3KF1zT84guF6JXmil4FbQY2DJftnWZ7V7f8EqRDauiNcD93bdZN/OZ+FSYJbiWBOx7PXU4vrZDXDLA5/XWR4v32a8ISCXRS4fO1V8eMr8sCS1bJ+ld8a3ST/uns0rbMmcHxv8WOHfV7YRn9azGUxFeBjk7r6fvtAOsTiwcq5lHIQ6n6GsZsvGWd6ieSGuOVwHPV2+Oxv5zt72Ut1aQ5g1ntbxyo9F5CvzyFMLJfnws5e8ocm25/A7kOHw3RosUvlsdwTO4qDrDr0KeJeVMXYaNPj81evzxYVreEKfAX5v8ZctXBCeAr1PJMwMLsswwctI22bKncPBtpcYxzUg77vQ4xR3dKrZ+tqR54BPqoYpc+CtW2ENsJi85HsUnjMx/4d4zEYHio/HPRHJRRi4HiLsaLrA8AIgeHfjdRn85d7ymRpJaQGor1qTQg5WKB0i0Z+cPDE2PeHjXUePHb/u/PJ1uSIrY+XgBa0BvpzymhXh5Z7KeOXBGjr8bz8IzjZ8bO/hWPA1nk+B3EZcb1Mq9/67n2Y6a41UOQianz8HetvlMBXaym0phW8FryjaM9xnNY1FnDWwHWwfqo1Etn+Um7nUU5fzc7mcz6UL1YQpK+Ym1qq/t/rodmkuDRfb5zeHa/0uDUWRKG2p8ijw8b6fLu4GnwblTsHbyUT/nFTjqI1zO4I8JzwG8jjYurHKu59Sn1DKzNZsMWv4SIi/P9X30+fnkZlZSATErtPM+fKGjKSj2zW+8Y4j0an+F3y8Y3X10IoqH1NlX9lmvWEgfdprZf3bs3ZtW+HbwHC+9OWEaCj6tyA/hVnGflumwGBw1CJc/l6U4QrBaP7KC0njjisY62uHnxeRm4HfJnqC/awjhchdy+Y/dLD4W4t7kjdoyn8GeW2rApwkHAewwN7fgMFWVgmF0iBgf+gQIj3rI83363IKd9Lq7NBTGerJ+oKjL/0QcMvRY8cvE6/M+aI0KYAlwuHTGmv8s36aefqsrYUjFhvbeeHK2QB5qk+pGNXPLUP99/10K25Q9SFgs0VCMuq+UHrt4tUGCRgkzz8E/SddNznAUqOUE9uEdEpiJnW1MpVhPS3LAFsONTnw+Txbm8rPtfvQrP5WEqlMuFpyvnzev9zvUNpKQzuv6V7japFW/07zzGkRvirCr/X99CezU7BYqD1jdinEbBlrvUd1nA1lcM7o++lpVb0VONmWbdA2XJVG79nt2kLCFNkHLzjBF4w8dmUDkF0qYNumYNdke8+oDbPwxl4ARHiziNwgko7zycTDeoGzwcIe25NnN6XnsjFhyP+GqvxJ309PXJoczh99v/mYqn6LOFsiIBuIstHHH39k7yUdyToKssFTAY6I8LfDZmXnh7lY2ON620+CfklETpkuHjcZ1lnDC5D5nUSSNtBateLP3QlxStopGoBHgEcXf+2vpubAUPFOAQgX6unJQi7HpEWnNdBAKoviXZCFT1pHDJL+pYfzRPNA7PYAayiv2pEsLx1iHWxDZjLxSR3U11epYI1e3+VDe9DOUx3z7dRGGLyhtu2UikMKuwzo++mjqno78Gy6di4k3nsz7O651quQJZaqXqUqHwXe2XWTizqt4FLDbnq1XTm1yYH1fJrRz5GqJWk82Dzma9sRHxsmfZbPNkI3SWfrWfteq2TV8Xq53/KAzcLs+63NhVqE15NsVX2RsNTslr6f/mz7ty8W7Nm3Ce024dv6dkaeS7eeVB5X5UHrsbZJcUvMGu3pbPLAPHNGVf8M2NVNknLbs7PY2gTXPBU/tfj032cZhRYFYQmO/IKqrpb3vKGyzITNY/ue0RUfAf3uzqR4ofFFkGcTZ0mwxoJ8bZbxpDY6pOsRvxI2Kzs/zG2KWdwd+nbgdzOrm2GqBQp2G1msRCIMQwEMJDmTtHgIUrwOCM8q/CHK5s7nbKeRcxTnIQ8WAOsRTycDh/W6AcOmPMOFIRRoNjLkjhjeZeMghQ8BnYEBGIQecD3CDUePPeV2wrtyIE4ZKdd4lR7AVmfP3/0O0iOWC+VUp7gLa+HltCRGjMD2gtuS5mVpCyLyJeBTqvpiaZ09xxhmXrdWXsLMkzuBt118qi8dWjM9SqLVUpJrL6W3iOd2tBwNR5UVYO/ZyG5rdkHpbSnjsDMukqy2xMTHn+vDKmG5XOuNfLL8t+kop3m2ibdPZ5n+uhCyl6iZz6dF5GPAJ/p+urAnW8zCrDqBWeSxVHTr2RCXyngowvMirAMbZb5qL+D2RquyvtOzEY+J8O2+n56ZX25qlPXRur+dJ7de45u/e4PxQuJ64O0MHCkUhjdI5nHe63OZrHnDiN38Tk+LcMfGxmJvWrcT2NjY/Cnh6C6Mgdu0j3zNGk6ynl0awyynGe4fAr3lfNM21zVW62tHnllfO3yTivwWSJgOPfglC8vQ0CNK62DZS8Q8ZRRNV1DynfvXDj+w/oZF9/5CykX8Gohu7CwBiepb4m86ndMO0m+c3Ek0OpR8XFhuUjBMKYjXXYMD4tzovaAfBXnFjmR7yWCtoNkile9lQ0Fl5XPXc3wlYR6x6MhKTXm4fU1wZn0P8TCQ5ngF12EXHPG4ht8W4UsiugVle98eVvkpPXCN/nAI+EzXTd6ynGuC214+8Ipxa/pkuU6uTQKXp+1sbExPAXeJ8G3QTYJnq6r32hCQlU8b3hoN8tRK+6S6+GYTYgBryBIX/txIrfdQlOFLwtbKbxkmyYkY9gXgSyB/s++nf7AMG17NQqsecplo45o3cJSE8vyMbzuHsNMtD4J+C7IcrNe3iqnLoMuVM4P8eOIMACdU9Y/6fnPXp7mXfak00mXjkQll2rKfsp51IBvm0nnvt4eqfgTCub8B5Riv+Dxlvc+Wi5fZbl+B+1VZqtkbF4k/AH0WbP8odWip2lcyJmSUGx3asVPe2nWTN51PonZFoRC4U9HfBTkx+HDVTnC2I0n+ath9hi0gSywkFoTqKeCeOWZnR1FQzVAiqT5VcxlJ9HKL73CVxijJmlJeSzTad+gcJJWlmZaYnsmd9iVcoTtC17vRBaQOmCx8syyepSK8BBbQEU2U0xEBb61vWizTs1AbUFK4S7CRywWj76cnVeV2kIfTtVKBzVN/veJjBzE7ANp4Co/IS4BbgKXciK/0/pSGrzb5q8+YLeP0nrHlQN9Pvw3691Xl14EvEDZIOVMqx2DbRuo37SPE2khj2dmNUc7YPCN82Y63I7RVSmYYOss+MKMdnAYeBW5V5UMbG9Mfz37TcqCWn7ZM6zE2oDYubFevu4VIgj8D8rw1ZnnjZvi0fbscC6A2hMR29biIPDDnbDThyzn1vZxWX4+Z8HkDgBR9rN3eFwldNzkiIr9qr9lZlOF3KAtbp9bj3Ta2DfdOAn++sTFdAgfdjuEFkG/aC9aYUE59nuUgKteQW51clatBj3bd5KpzTdSuEOD1tcPPC3K3Kn8MbKXZzdabmb2eAonVR6uqMyK5AomNEMIOxoE/f5W4U+kyIHt3BZV4PFFac4ogmr21kv6vyqFQINNg0bJalxcUY4SwI3D53oF4v/PosaeusHOB7QAlMzpmS5lPZZasvjLcX1DD54htMHvDm9KYVA/2Gdr4nqZLLahGMAMbG9NngFuBH6VrdgArBzVj/R7CZPhr3tIOhJ0eb19dXa5NsXK92jV024dveU1KLIMXZRb6fvPFjY3pt4BbRPQ9wE0gDwFbNJX8RQAAIABJREFUXo6Gz1nl1c522/jU8rKmuPO9tly2XrlUJ9ZI03p/afRopb00eDUMpCdU9Z+DHgW+sLEx3dU1oPNAJkrlGlg7i8pujJXLM33aOlsEI1Dfbz4BfMPmJ6crb3rUnkZcy4PC8/qZ3d75OafD7uisrs1mWZb3KbDTWnPbt/fqPraYm2HpTcAwzthdhzMxq3d0jqHjZ2nAtDuVy8PA9+eX/oXESeDfAM9kY0Euq9R28iyfvOmxbTu4pSbWIKmIsALyJoKucE7YtSll62uHn0P0Y6p8Q4WTTePIwH81X9MijOb7Gj2kA0ETnhKRz6yvHd7VtRIXh5SDRELjxlOJgKb/YnsJ3uC8mRjpw3l+FVRy+Tk9KlgJVHV4ZV5ZHXr30KFdv45KXDh36xM3Hntq/xwKY0GhxWdG7RloT+WwylBhtRqxVLAHsbeMHjlcKaRLy1UmvF7JWyb0/fQHoDep8iNV3fJr48vjL7xxKE8Dt2su6yMz4ve9wK+IcNfq6uTqXcreRaOc4mvX8ab7LU+B3SjMtzlL8C7J8S87hr6fnuj7zR8AnwX+FvA/Af9CVb8P+jToC6oaj1O0ZVWuC/OGglRu9hipMlyttGqjzZoQw7U8E8gq/Zmw4eLNhM3XUzKMZLkAIFugzwE/UuWfAf+dCHf0/eaTu73+c17wBrJcp+VRO6ncPLHy31NdLYjcvFtE454zfv1iqcjn75lcegxE4Lsg39q1HDRQznrLSVVzLxs6s6xrG/oysVlMubW6euiNwFv9vgDZ65jSnq4nomuP/oOyndrrPAd8ue+nS7A/0c6h76dbqjwMfFNEz9iTUbKRqzwxJcsEr3PZ3cYr48MqcLTrzk1H2NU1VfevHTkj6IcEPi9wIjaleNev5xkImdjdniOvG5Sm7KVUkVPA/Sz8ub8lJObHeFyNM3aoXtHIaaNVETJxNmWSuHIqN40GBR0UzECMRSTr4lY5F0O8hfiQ2vsrqvpmQd48rxJZRNTE1nfcdM3uAH02S+dIfpcLWVELv22V1jt/19MpPSH204OXGX2/+YgIN4Fs1INV+G7LzSsPkBWosp9IEV5XgA+K6K1dN7lm/jnbGWQiX+7o7A0fXkTkQcCTK3HjZOlpWEbEI7ZO9/30sb6f3iwifwvk3SJyswh/oMoPRTiRLbrljqDiyif3KyFNVUzh/HeK67ZNtg2U2Zjp22n2jJXxqqm3UvFP7UG2VPXHItwP8lHg72xsTG/r++nP+n7zsiC+FknRtWNpul4iGxx8vbX7zCXFBsh9GH02y39LEG1eB42vIPKCCM+KcLeqXkKvf6njeONvQGuzp7pe6uUc2x8fdinQdZODInIU5IivH7CGipqo2TBQ6oVZdxREAgmcc1YWEnEGy+dUiWeWzxq//BjnvcI+bN57QYxM1ncAP38uadr1TUXW33DkeeAuRb8g6Jkw1qhltkCieOGblNfEkEAdqNmGwv+2vnZ44c/99YiktbJoY3zDcdDHHodkN7LSoa+KppW7UehCNhQYpauySDt3sRSSLElyTXG+BHjP0WPHl0YJvXj4gTd1XG/1LwdpPzj479utXxuxyMj1pk6pbRMRT+7qacHbHZWxPOj76SMi+kl7rSa9kAlGy2NWkub8Z8LuV+XDwHu77vzP/dt9WBlQrhmzStJsJbLcdM0roUvcaGag76fP9f300b6ffgH4OOhRVf01Ef4p8DBw1nMzU9uz5ZZ/27G2fC5dL+V9JsQpDuuxTDu9+zgg1X827lhFmhdU9ZvATSLya8BNfT/9yjLu7nyusG3Wl0k7fFn+4ZqY/tQ2VOw2+n56CvQvQZ62Sn1a/mANNAlln7Z5UJXvgDy6sbF5CdeJ1mvurY7TMt5a/QjKeqmNGAtmAH4l8LZoaK3ka02KLVrjvJcRImwBn+776YvzysCio++nP2KY1ZD1J9sWrNEo/Lb9KfOfcK85g2qfKh89l/RckvMV19cOP3f02PHbCAT8wyrsD8QN12CGmbwSSaCCmUefnZJBwDwI/PjoseMzpuYmK/z28Av4h4u1Sat+8Oxh2sk6pcLp5PVOhDV5EyFR38FeEojx8C573m9aR5xD2xcxkFx8Wo1SoO5WWWbx+SD83iIibwa+dP6ZXjbIHtAtkNPWCgpFMUpZ3r5ZWBJgPQNJ4I5YbIiwFzhdXKOWK1lGqWYh7ZXw7NmM7WZLdfcNkjsJVb4E/DURfb+q7M3TwpLcyd65rPRlmVSSZUsEC0/KfuB2VXkS+Mbu5fCCsAKyIqLFcRd5QE+eIasgl0QtXPPK86Io//NE32+eAJ4AnlhdnTwI7AO9GuQ1qvwPoK8TketA9ovogXBf9oDtZ7N25U36RN1PU3vLz5aE2vf5lspgvm+J6CmQEyI8B/I46L8HeViETdDTl6OntwUR/ktVOS3CVsuAkw0JpaKbCtgqybmfiMgCyE55RFW/LSLvB/YwzAzwhnCwMjDny5DHZ0T400u/07eiyopI0HtKfXKWHuTD+GmsqZ/Fp+aW8vPF6upkL+gdqhwQkdO233tYPbq1zjcTf+8AUUR4SFUe25UMLTBEuFeVd4pwwI9pgQx7PTnBOhl8W/RGzmE8fVXXTdb6fnpsu7RcEgIMsL52+NSN3zt+hwj7UH0vIvts50g7HrthS+J1GKSJJCugyLUCnyB6tRUQHRgyVUMuNNI0ZUpm3CcS8Dyq+ihVimeH9xbxxWd1SJbuE5W7YnZRQ2wNXY3fxdwx5ZJeEX8Z+zbDTs7Gjz78rzqkW11MNrzHEJvIXwGWzNt+YVDlCRG5FzhgN7RqrffNsIpsbbkyyu5/AfLU/FI/YgfxZVX9P7NCU3vx/SCYlGs/LTOGLJXoJ0X0rJ6tRcbGxuaJ1dVD94D8PyJ60Lb1cjpYvl6X46wyHWR0uP9XRPSqrpusxJ1YFxIiPKvKp0Q4WM4UaRoXKcm/n3Kfvw+y5wdXym6iGxvTM8CL8W8D+GbXTfYSzoC8XlVeBvrfiPBSVV0VkYPA1SAHgcb59Zb8gm+vnmjZ796IlccAE/a0CM8Dz6myCbqhKv+XCD8Cnuj76bM7VihLBlX9CxH5/2xfSLIxE2K7c3Dq89lAZGVp/q5P7HpmCvT99EzXTT5NON5rf204yeQp6w/5et7Ih6eBbRX33YGcBv1z4P+1591b+eUNSPZZJT1j8oaZCgzwqIgshOFHhL2qfBf4S1sf8S65zobwrr2Ga3Yn6LK9CsA3rhRZfRY8LcJHQF6WdQA/xttxLk9tFvPb61l12Qs0Zb7HJTfBHD12fBX4JPAuYE9lZxoGo0RCZUaqS0aag1ZxuE+MaS5eN1YGF2siy+5NXqkFQ6oN/fRpi5OaQwW+sL52+L86h6JaOBw99tTK+tqRsUOPGDFi17G6OtkTSdGIEQB03WQP6FWqck3wFHMVYcnOIRH5rwnnSh8EvQZkP7BPVfeKyB7QvSArquwBXanXm3FGhC3Q0yBnVDklwinVRMj1WRF5BviPqropIs8DzwHPxbOzR1wB6LrJvta6f2vkylPsFT/dXldU2drY2LwinAuLgnDGvNL3l3LK+YidxOrqoZWzLSG45AQY4Oix4weAO1E+rKL77dFIjsQCpGlKSNyYOBPW0jMaDDThvkRvJ9TktZ6QkairJ8t5Ta40CXAZ2l7H3CNZLFBE5RkVJvevHR473ogRI0aMGLGD6LpDKyArhBlve8K0zkBy4xi9Er09ewjTp1eiJw5wsxa2VPVM9FptqepW9DxsiXAmkGI9I8KZUZEeMWLEiMXGQhBggKPHjl8FfAL0wyBXzaKVxXQRBgLbnIKRp97FKxV1TTFYwlvTX/ucSZnxLOd5/jO8wcU6JDMb8hmByfpIgEeMGDFixIgRI0aMGDFirliAjQMC1tcOnwDuAfkDVU6lg34Gduu8qXY+flqrYxZixkfzgulhJQmq3iPrngHHTAP1LW7bGA3XDcs90vzz6CuOHmzirXKpqIDd+HrEiBEjRowYMWLEiBEjRswRC0OAAdbXDj8L+gkRHlTlTNp0SqMnNU4ZDmsmjAc4naM7kNNERs3uRMMy6jSlGr8yV9z/8bnIcWV4R/xOWMORl3Zo8Q4Z6LpYb3EKr3ldiDaI8YgRI0aMGDFixIgRI0aM2HksFAEGWF878qLC+0T4EiInIBJSidRTrDc1elyTl5V6w6o2dAgbdh+UYbZyineYPh1JdEVU3Vbu2dOcd49LU5+xG14F4p08xWgm2yNGjBgxYsSIESNGjBgxYq5YOAIMcP/a4RMgN6vyeeBk3q2ZgWfac3CHmciJrBY7OWdPcDp4OU6f1uyt9dthxUOAFLNxlsZjlexbzfvcZlqRFFtum45tSp5glSHcwizEHjFixIgRI0aMGDFixIjLGAtJgCFMhxbhTuDzip6G6DMVNbwyTVUOxNZOO7ZrdYdPsy5YBDQdvCw6cOXh7LY0/zlOvR5cz241cIxLI/kevMWJXcNwlnE8Pikx6yFVmr+PGDFixIgRI0aMGDFixIj5YWEJMMSNsZRbBfld4FRyuua9pyLlFXFTjCF6bNNOzunsXsneWoizmBNPdQcup+nPxdRlmzhNa3sDMRbBeaXDPeNJBufpTWElTe0eMWLEiBEjRowYMWLEiBFzxUITYID1Nxw+BdwDfF3g9LB5FMmZmjyvcZ2wEj3Cnoya7axy5IG12hXBDLE7xiomRFpwrMMy42E9sntMBm8yw8Zb3tOrNIj1iBEjRowYMWLEiBEjRoyYCxaeAAOsrx3eAG4CvgRyJlwdFgMPv4bjhyR5dPMkaLt+N4Qbfg1TqNMGVvkkpHBvINpx06o8JXqIMDyfiG56V9wBa9hcS9N65LiLtZo1wSNGjBgxYsSIESNGjBgxYq5YCgIMYU2wIr8O/DZwIl1PZNMec6R5se0wFdruCC0Dd80kWuI05jSdORHhdAQTaW1w3LwqrwC2U58j2U5rhUWIM6QzV5a4S7RIsZ55xIgRI0aMGDFixIgRI0bME0tDgAHuXzt8Gvgkqp8X5MWwfjcfqGvX1YZP8FObcZ7esI5X3PTkYfpyiieS4uTGlcIrPHymzbWKqdeWaIc9sXQ4XilT6REjRowYMWLEiBEjRowYMW8sFQEGWF87/BwinwQezAf/Jm+q3fc5+2jNBs2OJCcPbN6R2ezmnLy4+cGwu3PazTme4ovqMLM5nPGbUhpjVRNvjGd4djiuacSIESNGjBgxYsSIESNGzBtLR4AB1tcOP6+q7wG+DpwaHLWJY5KmK0fPqwgi+dih7JG1ntgQppwuPawFHmBO+x32uIq7QEeP7rCOmJyo5E0eiPBwhNPOlMmIESNGjBgxYsSIESNGjPj/2zv7GL2u+s5/vqPRyLK8luW1XK+bekauG0UhS9k0TUM6CW9ZSiGlAVIKgWLguQ8vDQGyNJuiKIqirJVlWaCU8rbPeYDxpuSlKVBEIc1mAw3ebJql2ciN0mzk9Y5Ty+u1XNeyRpY1Gs1v/zjn3ufc+9x5ZsZ2TEh+H2n8jO9z77nnnnvunfN7H83PpAAMsPuKqQXgerCvASdoCK6D2Ny6k3GVmXmwpf57lmV6UM6obLSs5Zu7VWdOzin2WGVM8SCbVsoQPUgbXfXNDcCO4ziO4ziO4zjnhJ9ZARhgZnryMHAb8DWoG1NzUXhYxsyssKpvt+QyXYq1QrWY4ryQ0sDVOjlbq95SKSiX1t+Bx3aWkMvcBOw4juM4juM4jnMu+JkWgAFmpqeOAp/A+GPMTlYliQY+yMkluc3qW6aMzkobpURXZbIsMgF1kBmaat9cgi6FZrOYDKtqsyq1NHDLrscEO47jOI7jOI7jOM83P/MCMMDM9OQiYpfQfUinBlbWlLG58o4eWGzLzFgxI7NiqG4p9Cqz8ma1fgfNVsHGte/KzNLx/CmeOGXGskbG56odtwA7juM4juM4juOcE14UAjDEOsGIWw2+b2IRkvOzSkttKn9USq0DqXhQ6iiL7bUy23MpL6uRQZoqx3TVTpXoSpmoWybKqmoMl3HFjQLBjuM4juM4juM4zvPKi0YABpiZnjwoeKfQV4C5vAZviXIrcO338vuM0rKb7Lf5vho4Qg/tr5b9aWR/LrNSexYsx3Ecx3Ecx3Gcc8OLSgAGmJmenAduwfgKcAJKi2ye0TmLAR5E7qZNGnyTlTka7J+TZ5TOawQ34n+zdvNzW0rC5U7QjuM4juM4juM4zz8vOgEYYGZ68jiyT4PdZ6aFWvorDRJRpdpESVRtyRVtVJG7g1DdevmjrOXKybo8Lm+nLuRmdYhbWnIcx3Ecx3Ecx3HOPi9KARhgZnrqCOhjYN8D5iFlcSZPvNwmgDYSVVWbGtmgs/0tZZIuW9MIm27dcbpMguU2YMdxHMdxHMdxnOebF60ADDAzPXlSqAt2v8xOlrV4K5NurUpRmck5HZzJpZLVhGGVWaIbZZCqusB5dmhTPeNzzRxcZcc6+xfvOI7jOI7jOI7j1HhRC8AAM1dMHsV0MygIRUtwlfU5WW+zZNExw7NV+wxieasdUsspfrcspcTgp6w5XMrH8TPL+Kws5thxHMdxHMdxHMc5J7zoBWCAmSsmD5rsk2b2JeBUub0UeLGY57nK4lwZcVP13mbd3+w/A2NvdIG2VBWpEozTduXno3SUTmKw1wJ2HMdxHMdxHMd53nlJCMAAu6enTkq6zcx2C52C4Wjdsr5vXuwo/7DsXzKhuBR+872qer+5YN3YS+UW1SRrx3Ecx3Ecx3Ec53ngJSMAA8xMT56QtAvjO2YsAJUAmomrVTmj0kIrG1h7B+G7jbJGpWW3sihnVuOagJsnzPIEWI7jOI7jOI7jOOeKl5QADDAzPfkc4nqJ71Blhy6/VQrttfSjJPRmtt8qSVYpvFpl7a2+zsv/MthvKAO04ziO4ziO4ziOc854yQnAADPTk8eAncCfACcq8bWUcE2ZcdYG9XotF3Yzv2gb/KIqEbSSYK2qvYHVd/Cdi8GO4ziO4ziO4zjnhpekAAyxRBLwKcy+gThlVbJn1T9RlF/rBYRjpqxUVymzBVfHmppe0oP/1Konmcf/Oo7jOI7jOI7jnAtesgIwwMz05BGk2zC+L9nikDW2Sl5lw3mqslJHUVbOU1zltt08g3SZZTqzKrv86ziO4ziO4ziOc054SQvAADPTk8dNttNM3xPMY5lXcxJa8ypFZXorU2nzLV2hs8RX5b6VWbmktP661Os4juM4juM4jnOueckLwAC7p6fmkN2I8S3EqYF4Giv45kmuqozQFsVfS8mwrEp8ZaW/9OAERlVLeGA3xuv/Oo7jOI7jOI7jnEPGf9odeKGwe3pq/849Bz4GnMAoJMasSnqVElcBklX1g3NBuRHmC/mxajpIO47zQqLf642jLKwBFjtFsfjT7dWLk34IY5TKV7PSI8bH+yVEbQ7w0n7mQghjIq43iGUUF4tu9yU3Do7jOOcSl8oa7NwzOwH6MvBuYKIUgi3LAD3YVv69agjKjWMsi/m13G06fhwGfn5metL/4L1A6Yew0WCbllAY5cqQ9PsCcBw40imKk839Q6+3Q9JGYDE7Zh7Y3ymKudY+9HpjwHlIm2vKF7MxpL2doji1iusZM7NtkjY1nfSHrilO8lNmdkzS0U5RzK/wHBuAHS1t5bs93TY+TUKvd6GktY3Ns52iOLqSvoxod71gO9L5wMuATcAEMAccwOwZpP1mNlt0uyu67lX3IYTzZLalIXznnCTOi5H3N/R6a4AdktaU2wzmNWJO5fRD2IbZ5hH9aLt/zf2eGtXP0OttkLQdeDnwi2a2STCOdBz4B+AnBocEh1Y6z5a5pjHgfGBdo7+HO0VxcIljNgDbqQtnx9M4Lrbsu6P046m9A8wwjVB7ms12ut1q/vZDWJvOu6a2W0tbI57ZY4rPxSJACGGrYGs6X3nv5oFn2sa3H8IOYENj86FOURxq2Xc9ZlMmTVT9MluU9PSoOdAPYbOZ7ZB0AfBLBpuivtiOS/pfZvaU4CDSoeWE4X4I64AL6oMwPEcTi8BJzI50ut1jy7S71WCr6m0dxey5Totg2g/hPGBLtmnMYEGwr1MUJ5Y4xwYz2058ZqeAn8NsHOkEZv/XpH2Ka4ODnaIY2V/HcRxn9bgFuMHM9NT8zj0H7gA2YlyNNA7U3KCjNXiw7KmVN8r3VZnoKlu6mEAxrjgZihttOy80DF4ts9uR1kVlBqXmIy5MzarY7nQnT6WF/N5+CDOdongyb0/SVWZ2c/q9nAQngRuBB1s7IW0AvgC8vFFJelZmb1rlJa2TdL2ZXVtdC/WFdbX4i9/NSdoP/LcQwj1FUTy37BnM3gPcOCixPYiVLy1+wIdZ6nozJH0esx2Nhe0n+yHcd7oWo34IFwNdzF6N2XaDiaHnUJoD9kr6i34IuztFcfh0zjUKwQ1I11pUZJAJE+Uus5JuBh4f2Y60DfgMcH51rHQY+Nhyx4ZebwL4INJ1lTIvzelsfmLl79n2fP4AbwKebrbfD2EcuAqztxlcqagYGRsoB9M1wxHBU5j9oB/Cl1aiHFmGcWAXcHFDSfVYv9e7udPtts3jS4njuK4cC8U5eiNRGZFzGfBFwVgezqLmXC/HL+sD0u3AN7K2LgQ+Y2bbsn3ic0j2PNaUqtSeK0kPEe/3SeK5rjKz2zV4jiEqd94GPJtfSL/XW2ewS2aXlsK2mS0CM/0Q/kOLUHsl0p1K45TeFceB3wCGBOB+COsN3mBmbwGmgS1mNl6OVfpclHQIs71mdm8I4btFURxvtpWPmZndmyum8zFDqp4jwQLSMaRnQgh/JXhghGD5XkG3cc/uI86lmkDbD2ErsMvMrkznwWBMsNfgEy37TwCXA+8CrpQ0ZWYTKAu1khYV79NBM3s8hPBngodXo+R0HMdxRuMCcAsz05OzO/ccuNGwdYKrotA6sN6qVgKpKvCbIoapBKOYQCt+xj9uqtYh6c9+bMtjgV/QCCaQtgIb44aBgkP5ZyLNjgvSYv+yfgg3d4rikcEOdr+krpldHA+vjv5EP4Q9bQt/g3cI3kj2zApOmvSx0xEUDDZImlrKmjRk6TO7SNJVMvvtfgivWc5CZ/AWSVO1Voath5eyAgEY2Ei0kuSsO53nph/CuJldg9ktSC9HGoMlxsBsHdLlFpUOr+mHcH2nKPav+qRLEELYQhyD7S3Cd7mY3orZJf0QfjJK2E/CxBZgKhPAxi0p8EahuM/W/NimtwtQE7gq7xYGY2dm65c4xUcw+wSwVQ3X51p+BdgMvBbpUuBl/RBuabM+rpg4PzbncyedbSvS4X6vd1On211oHDWB2Tak9dUYxH61sQbYRrRi17/J3wktCk6L3gbNts5Tc563tBs/GkJ2/P9WzHLL9ZNpTqypN8KFNARg4ELBJbWxim3+upltBiplQVJoXABcBLVn50fAkFCZhL47BO8waVM5B5pz3mBMZuchnaeoXPi1fq93e6fbPdJsMzEuaWpoLtWVAs1zXEJ8j36rH8InWr0jzP4ZMNV4r29s3otktS+Aa3MPFcHRJJjPNvYfB67D7FakKZXvnuH5MQasBy5EugCzjUh7gVavBcdxHGf1eBKsJZiZnpyV+C3QfYg5GNh6yz/5lUCcR/hmblOlsFyzAJfHly7TliwrzguZxfRTEwzaiHnQqiRn48SF3M3JUgBAp9s9avAJDS8WXw98JC2UKkKvd7ngdmDcrPI9OAns0soEyJaO5knZGPp9iHjda5Eux+zLyf2wlRDCZkkXlSO0lJgq+J0QQnNx3tbXppACsLiEq+OSJNfvjyN9HekVRFfF9lPCwHoXXWjfAPxVshyfMf0Y93elJSGiOm/jvggmTHolw66pNQTDZdyiNWxZC7mZTdB0vc0tvW3ny4XiwbbanOiHsK4fwi6DO5HOK5UNZd9GsA54L2Z3hxAuXK7/SxIFw3j99ed1Avg40of6w/NvaF4JFpfo7aKtYHyzdgaY/fPG1xPpZ3VkVnmLz+fgK7NDwGMtR/1GSzsXWJpjDWXepcldOeu6rcfsV2t9iHy7UxS1ZzW5+t4BfBTYrBFrjlzBQlQ2/r7B5/ohNJUFJYvl+Vuf45Y5pmid3YTZB4D3t3dECy3HNt3fxww+ama3Anl4xhxwZ9Ht3tWiJHwj0CeGATTfPTEcpvF3JfXXDRWO4zhnGReARzAzPXUK7Aaw3Qy7v7UntqpZeJuL/2FBOArRzgsdo34vJR3F7C6Du8zsLuAu4H4NW1YgxvY1rWNPIO0mxuTlfMyiiyCQYkThFkrrM5RCzcOYfeNM3OJahPgjwDOYPQM8AzxrcUFXR7qK6MbXiuCtwLrGvF6wGBuds53sWpfk7CmILkW6XVlMaGa9fAr4DvE+PiyzI+W5RTVW2zHblWL+zpS1wBWCTfl9kHSqOU4yu4RlBODMYjy0fTmSBXii7Eey7i6a2UKrYBHn37DAnY1rir+9kuhO2hQyT5nZk8C3gHsw+xENV9HUsStldnOLkLpiKoVR2ziY3Wpwdeprvr1Zxb1VwMrdxTNOEJ+d/Dlq/jwrqfncT2C2puxv+hll8V8k/mQKV9ZZ/jc9uvA/2nL4dK5kS+P7y6R3VO09BxsMfj3fX9K6pEDKOWlmj+Qb0ri+Q9KHsn6XnyeAxzG7B7P7MHvEzE4NCYDSdUQr60iyZ/QksI/BWD9tZrOY1cY7neWGfghD1v2llJuNfa4W3Ka6h8U8EIA/ae7fD2HC4JNk9yf1eZ/Fd85nDT4LfA14GJgtFX8Wn0XPEeI4jnMWcc3iMsxMTx3ZuefA7WZsk+zq+LexdF1WqgcctzFYiwxFCJfb4h+9zIuWJbTXzguOxhJ6H9LHGkLHOHC+pG+b2abMejZkaSyK4kQI4auCVwOvyFxNt8is2w/hKTM7LrNrkF5N3W1wDriz0+2etnvoEpa9ANybCQtjgkvMbJekfKG4BXhFP4SHWhIDrQVeZ1Alx1GMCfxPwHaDN2qQ8XR+GJCcAAAak0lEQVQNMW70oeX6a013xqWT3Yziw0rWmqy9k0AQ9AyOymzeovvrBcDNRCFuLO07hnQlZq/th3DXGWas3Qy8uoqzrS7LbkDaaWbTmUvnDqKleFn363I+tivg2jGYw+xzku6tuTxL64lx2hc39v+SzH4oabwS/qJ194lst7XEWNOt1Jk3s5skPUz0gFggnud84HM0kxpJ1xJjcveu4FKa1xWbYBAf2mCz4j1+BniqOi5zfS1jb9tm2pDLbeQBYqzoqPk5RlQ25TxpUldREC6PXSQKpn9AXYlwVNINZragMv447n+cTFHbKYpTIYS/E8xZUkilcThP0XW7nE9biG7+Q+uBNB9eb/ApkmLGYtK2WniDRWH/SOPgbUhvI1P+pTE7IukO4EGkYwAG6wWvBW4l9m3QDLyvH8I3RsXgl8+RmT0t6RZiAqnynBPAO4EPkZ7/1Pf1xIRstfdPm/t//kz1Q7gMuANY03gvPQR8ZonwkC1qXBdwFOnTgvuBuWQBX0NUdm4kumt/ULCOLLmd4ziOc+a4ALwCZqYnj+zcc+B3QX8B9mph45X11so/vhBdmpNrdN01LcYHV4ljsgzRbv59wTMkfEUW25KohBDGFReom9LBIM1p2NJLURTP9Hu925DuzmLIxpDeDvxQ0iPEZFm5i90C8OlOUbRZds7omszsn4putyZo9Hu9vUgvAz6eLbQnzOwXUsbhmmeEwcWKi+k8FvGYoC+4CLMrGcRXjpvZ5aHX21F0u/tG9fdMhd9+CJvM7OLqGRwIv7uAz3a63dySfgyYDb3eHkk/JC5ES9Yi/YbBd4kCx+lyMXBRdRXxXfEY8H3BLyBdzkC4GTd4H/Gc7WSZgmtuySvoSBG9CPY0t4deb4uk36QhAEv6cacovjWyUbNNSG9tbF0wuFXSlxrKg6PA/n6vdxDpXmKMaslaYCcxodCqqa6/bb5EgekSSbf3Q9hZxYM2klfByhQJab/jgv01JUT9WZtvE5CScPed5vbQ6x2T9FHqAvAcZvcXw/HLw5cYPVL2CV4RL7l67raTBGCLCeYuaQr92f6XYbaVaFlF0jR1QR3Bo0hNK/5FmF1O/dldQPow8J3mHAi93izSEeDLyrJXK+ZfuJqooFvqOsv+zhOzL9eURf0QDhPDUS5PO0J0Oc+zN9fbrM+ZBYON/RC2A7dbSkaYCciPyuzGTre7VJxu21prreBXgCctJoCbA+Y6RTELzPZDeJIoHF9ES2y14ziOc/q4ALxCZqYnT+788YGupM8BbzRsIgUt1a0tKv/JF+mD4kdWLRiqhYNbgF/gNK0A6XNjP4RrGtsmDF5FKv+TDj5FdGlrLdnT6Xa/2w/hW8SyWyXjRMvbv0Jquts+xoiF4EoorWH5Ij0tZodCIjrd7mI/hP+drqVazCdrUW3/fgjjFoWluqXDbD/S0xYtHkdVdwffIeli0uJ62b7nfV4dF1Ced3AdB4EHl3IjL7rduX6v9xmkPzWzsWpBHDP1rj5es87vlr9krrQ/kHTU4H/I7BjSpuw+TfdD2NwpivaEQJkLdNMKfAaMUbpG162gK7FGXUjmtp2ucT9w/5KWc+lZ4F4zuyVZ7Uou6Ycw3owvXY58HPJ3dE1BEO/pNennrpqwWk/QNZLsPFdidmctuVf9/fFDouv3Ci8ieR7UzzWmNoG+ndn0M3BZjgnTtkHlplx3sY+u0xMNL443MHDtfWXWN4BTSP+TTBmWXKYvoulxIT25lPKk6HYX+73ewxaVMdcijaVzrMHsl/shjC05d/Ks5e3Mmdmp01GkpYzbVyNNmdkGpEsbRx0V3NLpdtvCX8pGjiQFQe4RsdbMPiC4RtI+g4OKire/I96zZ1Kpt0famnQcx3FOH48BXgUzV0zOEi0R3xRaHHKMq1lgsgWQMSjNAJnTs60o3sh5YdAQLLYTLRVfzj6/KLMPWUx+BWbPWpwvn1+qHmTi0yT30Ww+XGwxUQvZ9uNAnyWE6RVfR8NSWMYdqiXOPS1kX5kfmwSiEwxbtTcKXmNma/JrkfSnnaJYKIriUIr1q84r2GBmvz4qqVatLaiV41kFW5RZ0jNX8pFu5CY9YXCs5qYcYy1PW3mYEqJdaWa5dfAQ0mOdopiX2VPErK+xr/FjPTG2eiSiGtezqljL21thu9vL66swe0IjrObJMvqUpOP5cRbdxZfKML0yBu0dJcbFnswSyo1hdls/hNcmC+LKXdsbScsMLkD6iJl9hJj9On7CR2T2+8AVq+m2zFrn+ir+bhw3s1kr3ZcBonLhV5PwOwH8drb/KTP7JvBk7a+b9KZ+COP9ENaSstdXfYnZiZ+tCacxG/VkYz8wGxnu0Ol25yT9rUkDZUesj7vVzJq1wAfjMMgCvdT9uzgJsPm2eYZd0YdIgvs24I2SLlf+7JvNAbexjJDa6XbnLP6NaOaSgBhecrng7Zj9W6QvIH0d+LN+CB/oh7CxtVHHcRzntHEL8CqZmZ7cv3PPgQ8aNo/xXqSJuDgsbbw1i07UMGtQjzBuS41ZEih+KlfinA4aCIsTlrnPRcN/vVYq0ryiJn84kVSdp4i1JL+YypaUrn/jtTqWsRblPau1hC1FI/kSwCtDCEeUFGMWLX1vMrOrS8FXcaF5DPi7FlfOHZi9IbMaATyH2feSdRjFOM93k0rHWKx/ew3wVVpqyJK3lbmm5nGaK2TCYkxzLpjP01KztHHeeaIQsSkbg/FVCCBtXAdsrN4R8boewewnIY7TIeC/KLqelpl9JzB7Sz+Eezqja6NWY7UKK+FIahmfV9qutLbcNxPyTzCcCK3JHPk9ieM8bmcaAzlwfT8C3ECMNb2mPIdJOwSfxOyrxKRDNJQerdig3Zqrs7J5Wn0Pi2rPaL5sv/Nwmqr9FdApisV+CH9vUbBdlw4ew+wik7Ymb4xLM2voUUl/ARw2s0sUQzIwswsUE1+tIYV3lIoWwTNIzzT6PUbyFGgkC/vHFXT7uPKsyMnjpJFwKo/7zcfjQmBXv9c7lfq9KGkjcJlgS3UfY7uHaE8SVlMiDcUE15J4xDFbydtAEJJy8MNIWw0mcnfz6ppgA9HSvIPosv2mfggfS67RjuM4zlnALcCnwcz05DxwG+h7wubNopWXwcK6yjxa2hjqC6PBH8+z5KronCtKS4N0QtIeSY8IHkF6xGAPZvugWqheBNyN2Y39Xm9JC2eynDyoWEdzMTu+FDhB2keM/T3trM9Dl5K3H7lOcK/B3cDdMvs6cK3SQjZzAX62mfE18VtIaxqLwzmk9wJ/KPhDotBRUwgoukxfumRHG5l8T1OwO0UmfGkQAzhkVWqcew2lsEq14F44XeGyH8J6M3tdZUGO7SwCW5A+oDhO/0bwS+X38dViIJ1PIx4362f6GJH1+Gyw8nZPNIUTi4l9lnMd3wiszd2QJS20eSesrLuZ8jEKL2uI83mXpIMMBCyISZg+Dayv3V9bOlN/+QyV58LsFDEB02GTDiv9DhyWdNSGsz+v5CKqecBgLFeO2U+Audo1SVsUk9JdTRJy4652iJih+wdkmb5TToNLzewiy++htGDwdHLVzU5pi6R7pnrf/8UKeryJlDhQg3szT0N5UCnasntssWbxdUjvB96PVBA9J7aSu47Hz8+31gGmcU/z8w27Ta8D7pTZDpahUxQnJX0W6Z3AH2G2hxiGMQ91gT67HxPAmzG7bihbueM4jnPa+Av1NNk9PXUY2c2gh8AWB4uUgbXEbGAVrraVvzg/k2QLz2eJiYk6QMegI+hI6lJ3H1yP9H6kqVHtdopizqTPk4TDhvVpEfhUpyhWFCe77DUMrI71bU0ai+7EItLni273uXxjv9cbA97acF0FuACz24lZU+8AbjOz9VAPCwB+Z8kOZ0J6JQyunkOK8di518U6YnKfpZEuM7MYHzlQcM2xvCVzKV5BtDYOXIqjtexKiwm57iB+vgdYWyrIknC1Fbi43+sNe+60xJzCKgWlFbCKsd/f7Asxo/iS5ZxCLBXzMob3OURbmaTlqLuYR+JYj3WK4ieY3aHkapuuayw9p7mL6+qUCTG79buAdwneZWbvkvSubNvXV30ZZdMMPE1WhfS0kqtvNhYbMNuC2RVQ84p4EjiM2ZOSDmf7ryUmbHqZ0viUYQSS/nb4lFo0s//TdBEnllBbkn4I68zsVwwGGcZjAqpDSEsqQZoCqzXO23gvzQP3mFlrLHJNYUL1znnUpJtM+ixwvOGWvh3pjn4IS87tUnhNoSCPET0QOgbvwux9Bv9O8E2LJbKGrouYTds99hzHcc4S/kI9A3ZPT+3buefA70m627BXAxP1VDRAaQO2gVtcqpgUY4Pjiuan0X3nNMju1HybQNoP4TlJPyIlnUkz4TyiNfip5v6Nth8n1oH8eG272QMG3zvDrjdOVvc+yKy7dWEq/n/BYF4xE2mPmJm0yTSwbchiMqxkq1lhBk8J0/0QzusUxVAW1ZpraTqOaF0a74cw6Pfgu/I6FrK4xKeJ8Z95gq4ppHf2e739nW63ZsFKsc/nAbeoTA42uLZnk6VvVYTY5uWCqepaBp9j2dwaoyx7lTcQYzdfh/RNGrHLS7jGLgKL/RAGFrt84T5Y4C8ULcmF2qzcNYvqCFI5msOkMIE017YhXR9CuKUoipowk8b7SuA9DLu6/nVb/5btQ7uguEgZIyrdQ7S0f7SRdKs8b9yNpQX/IQ8es4Mm/eh0+tvafltSrlW6t3eK4lQ/hB8RS/6UrDP4sKSLYtPJE8Hszzvd7iJwqt/rPZgsqRDn4xuJZazyhHBzSENuxJ2iWOiHsJcY8z0QDM0u6ofwEeBrneE5sBa4TmXZt8E76qTgb0aWHSsT+5ktChY0cGOfIHvnGMzJ7HakrxTd7kjrb/X/uPEnxFJupWX6I9S9Ga4hJrC6veh22wT1Tf0QbgH+EnjSzE5I2tcpimdDCGNJqTAOrLGo/LpT9WRzU+n71XsQOI7jOEO4AHyGzExPHtv54wM7Jd2Jca3J1omB6zOlDbhaw6SFvEVPaBd9f0bIMicnl8i1ode7JFkTxzOL3jaiKyWQ3d/oyjaSTlEshl7vwNDiVjois7O28KkJk1X3DElPIO0lJfFKC70FYkzeATN7RNLeZgxyEl5+j5QxOBOSFiUtLmGxGiPVA05ujmstxgb/+6X6W/UVkNk7LdZcHrbSRTfgU4Lvk5QOnaI40Q/hEZILcdp7wsw+JNjSD+HPiULlPLDB4ELB72G2vdH/I8BfEq3Aq0JRGHxdNV8Ggswoa3L1jk5jejkxo3VNAG4bYYMNgi5m/5DHMtbcaM1OSvoGLYnV2kpl5cePJMaJ30VU5oxXyhCz35c0H3q9vxEcJAoqGzF7uUkf1nCt1MOCe5Y/YUsX8muh9iwC1Zz4osGUopvs2NDxy7jdN9WdSBcKrgshtGaeTr+PEQXD7y1XS/pMlBANfgB8NPv/miRoDjA7Ql4OK1p235/tsaXl3XSwTWmV2EsM67gm23+MmDRqMoTwY8wOKcYkb8TsdcC7iTG7cff48Qzw4MirG9yng8C3MPtH4ji/ilhrvVQorTHpCpl9l+jFM5LsGVgD0CmK4/1e73Opj+/N3j0TQCHp//VD+OOWPA0LwDUG7xc8lgTqv++HMEt89k4QFTMbBeux6FWWxR2fRDorShXHcRzHBeCzwswVk4d37pn9JNIama41MS7q0u2QpcCF358tGhZIg/MVMzKjZAlIi+GNxDi0fPF6klgCZiVMtAgeE6t2exxB5u5Y3w53K5Y6GUMqM9AuIs0vs1DfQSylUllaJM0Z7Ab+pjxnFhM6BryFmFV1PCWcGZf0r0MIoRiOJ6z1Nd2DNwveXBPsqh2EUvZb6lb3LwJvB7ZWioyYXOkdxDIvR4BTmG1QTEZWjXvq4wLS94GHlxNc2kiJtC6uWd2jBe0WSrfK/HzSGsw+SCwTVbJe0m8RS2s1T1C33scERwVJSbDEOB4j1hceEoCHxrUeLzuSoihO9kP4M6LVsKrra9Ei9weK5z1CVJJssJilu/n3aBGzL67i2Vk1naKY7YdwG3AVuaVyNdTH/TJiLez0VT1BVqkIMLN9kh5gJRa9lqRvq41BN9irGIu8pfb826B8kMEDDevlE0SvjyWzENuIxHWdojjcD6FPHJPcE2AT8HHBu006mjqzkZikKveEiInDYvjHspnv0xg/h9kXOt3ufoB+COcb/BjYnJRO45KuNulEP4QPNq3Q2Xlr8d216+p2D4YQbhW8vPFsbiQmUnuGqHzLWSS2uQ64SnAVZnMWY8OPGcwpJknbgHQhqS58NY+kRzj9sAvHcRyngQvAZ4mZ6anDO3984AbDNsr0WsPyOKmGpcCiEWKFi0nnBUjMzvvy5ubcahR3s0VJj5vZc819l2K1i9vVUllNG9vMbKzT7Z5Okq2LDbY1en1IcCfJUjmUVMbsKNJlwObMPXFK0VX8R0P9bWFJC2XklIZjBvcD1wNfEGylXvd4A6UA1GJVTpbwRzG7pdPtjszCvBSKi+UNjY0PEt3eTzbOB1ERsQazVyDltV/f3g/h5pYs3Mudf6mvWtspM+FW/Vr9vHwC+LLBbUnoic3EzN+byLe19cnsHpNCcQZZzxuCZzpZ/Wydoni6H8JNmH2BlmzTQ8rLQePxHV5vr3RlrZ2rxa32xErvX1P4XbI/IxDMYfYo0lsbMdFlWwvAtxuHPUcMy3jDiHb/66jzmtkDknYRk4utyc48TlR6VJn0W67rFPAfDR4YdY7y2DTWY7nre6conu2HcBMxy/ya8rkSvN3M7mZYUF3R+BZFcTD0ejcg/WfFknglm4BP9UOY7RRFrhwYG8q7IK1TqhmfeRDUTxQVEweB3pk8B47jOE4dF4DPIjNXTB7duWd2p0FP6PUky2DT4mbJ/Fst+10MfkGTXFajsJRZTIb2a1h7DBYEjwF3El3zlkVtpT7qCWHODkn4S+7E5UJ+1e+DfghrzOxlSBuy60bw6AjXSPq93iOYHUbanAkpm4EL+yE80rCwLlsCpyUWc7HpMphKwnyPKPDdTIxbbk8EWL+/x4gL5U92ut2RdYOXIrmJv68WPxn5a4NTS8SMLvZDeMLgoOquwZuJltXvlBssj61uoTEvc5fcRcWMvW3HVLHIjfFdUfLE5Ab6J/0QTgI3ATuUyl8tw3GDr0n6VFEUy9ZpXYax/LqJwk/bPL/PpH8p+ACwpjFW1TjUiK67ZZmgXLlT9xhpY+XZoMeb/ZXZmhWMYQ2Lru7/HXhreS8bGbqflfRs45ijiq66rycbx/QdRAXT46POW3S7CyGErwh+jhjbeh7ZWI5QYh0EviH43FJW2rydbD4P3tUDvgu8Bnhvtm1C0udDr3dY0pP5+0btmcrb7v9jglsx+xywufq7IF2A2S39EG7spPmbMsc/SxSQR2aeb4zJPkWX8T0jDnEcx3FWiQvAZ5mZ6anDO/ccuBGzT5u4WtG1k5gMK2aFLiOEo/ChqiqS88JEMTPzQeBEqxiaC8VxoXMCs/2S/hbpu8Azq0iKc5xYOzi3wB09my7QRNfSo0izuWBtZqeTaXeDpG3Ac9Wcjt/cO+qwTrd7oh/Cg8D6xpX9ItFNcNAXs0NI68naH6rJ2XAfJlqgh64nCWXf74ew32Jm3jcDF6jF9dzghOBxzO4FvtNMlLVKNgPnSZodXJbNSXpqpGUnuso+RBZXnoT7WtkVRaH+EDF+sBmXWu4zmFPldrNjpOzYLSwQ3ZRnVR/f1ZYk2k2Mt3wTsezOhY1ESmXbh83sMUnfFtw/QvBZMZIOYzab3dtDtNR+7hTFiRDC54nlci6pjgfM7LDKxFl1TgKzRLfawZxshhY0FGNp48o8QmKytefIwyCi+/iqKLrdhaRM2StYX8UQD7IlP9pst+h2Y6y2tNfMNuTPXbqOJ2lxnR86d0yI9Sngx2b225Kuxuy80qshU4AtEuuGP4r0p8CeTlGMeifNk78rY9jGYVJm75JOURzvhzBj8TnfUu6PNC7pgxaVYblXxz8R7+tgzsPR5hu4iAq17ybFyTtqWe2lS4DXp7rdC5LmzOwTSJcCvya4RHC+ma1VY75IWkjvvEcNvpqUiW79dRzHOYu4APw8MDM9uW/nngNdxXIm78dsvHQ1i0JvbkGsl0pyXpA8BDyRW9nKWo3KhI2a5TcKFXOrdVMF7rIs43Nyfzxpjdq5Z4LBSUmfAr5YiwmVVu/aG2P4bsJsoiHQHF7B0buAL2SLTASnhq5Veh8wUQnraQHesOzl+8d43Wi5baVTFM/0Q9hFdNHdCmxGWpcEs3nghMwOmXRU0rGzsAA9CryqZh2M2bVHCzPSEeICvWk1agoGswbvUxKUZA1PheH44jIGOipD2ohKkpuSu3/Vjsq4zRWSxm5PP4QnUkzvlKQN6ZrGkE4lZcOsoiBy4mws+DtFMR96veuVuzWbLbBE/4ui2N8P4cPkdYgBRff0NiXBHmJW7nJchnbI52bD9XhFwr1JjwOvU90Sv3Ca4/Oo4Dcpk5Ll/TE72TYXJT2E2RMk7xDlseQxMdOKlGap3u6D/RAeBT6DtJWYL6GcW6eIz8hB4nvoxHJx9kmYf1Xm/hwt6+3zeY9i3oGJdF3l9kUN15j+isE3G8L5HGZD7+BOUcz1Q7gT+HLqU579/iRJcZKuZW8/hKeA+4gl2DYqesCsVcpCniz1x4EjmB0rTjPcwnEcxxmNS17PI+/Zc2C9zHpI15C5VRmZFQYdBn5+ZnrSMzw6juM4juM4juM8j6wolss5PXZPT54A3WLGA2Yxg2Nd+C23OI7jOI7jOI7jOM83LgA/z8xcMbkP7HqJh81YTOkqYwywLZMoxXEcx3Ecx3EcxzlruAB8Dth9xdRB4Hclvi/pZGXylWeAdhzHcRzHcRzHOVe4AHyOmJmePG6xBun9iHmlfNC4A7TjOI7jOI7jOM45wQXgc8ju6cnnMPukYT+q6iChqk6w4ziO4ziO4ziO8/zhAvA5ZuaKqUOgt4E9AMxjtJbPcBzHcRzHcRzHcc4uLgD/FNg9PTkX3aHtIRNrvASS4ziO4ziO4zjO848LwD8ldl8xtR90k+CBnXtm1/+0++M4juM4juM4jvNi5/8D4PKM2F8uALMAAAAASUVORK5CYII=;" vertex="1" parent="1">
          <mxGeometry x="318.04" y="107.92999999999999" width="119.46" height="24.14" as="geometry" />
        </mxCell>
      </root>
    </mxGraphModel>
  </diagram>
</mxfile>
